<?xml version="1.0" standalone="no"?>
<!DOCTYPE svg PUBLIC "-//W3C//DTD SVG 1.1//EN" "http://www.w3.org/Graphics/SVG/1.1/DTD/svg11.dtd" >
<!--
2013-9-30: Created.
-->
<svg>
<metadata>
Created by iconfont
</metadata>
<defs>

<font id="iconfont" horiz-adv-x="1024" >
  <font-face
    font-family="iconfont"
    font-weight="500"
    font-stretch="normal"
    units-per-em="1024"
    ascent="896"
    descent="-128"
  />
    <missing-glyph />
    
    <glyph glyph-name="bangzhu" unicode="&#58968;" d="M1021.626182 300c0-282.763636-229.236364-512-512-512s-512 229.236364-512 512 229.236364 512 512 512S1021.626182 582.763636 1021.626182 300zM509.626182 718.909091c-231.377455 0-418.909091-187.531636-418.909091-418.909091s187.531636-418.909091 418.909091-418.909091 418.909091 187.531636 418.909091 418.909091S741.003636 718.909091 509.626182 718.909091zM555.287273 172.232727 462.568727 172.232727c-0.279273 13.312-0.372364 21.457455-0.372364 24.343273 0 30.068364 4.887273 54.784 14.894545 74.193455 9.914182 19.362909 29.835636 41.192727 59.624727 65.442909 29.835636 24.250182 47.616 40.122182 53.434182 47.616 8.890182 11.869091 13.451636 24.948364 13.451636 39.284364 0 19.874909-8.005818 36.910545-23.831273 51.106909C563.898182 488.369455 542.533818 495.490909 515.677091 495.490909c-26.018909 0-47.616-7.400727-65.070545-22.202182C433.105455 458.487273 421.096727 435.959273 414.533818 405.658182L320.744727 417.294545c2.653091 43.380364 21.131636 80.244364 55.435636 110.545455 34.304 30.301091 79.313455 45.474909 135.121455 45.474909 58.600727 0 105.239273-15.36 139.962182-45.986909 34.629818-30.673455 51.991273-66.373818 51.991273-107.101091 0-22.528-6.376727-43.892364-19.083636-64-12.706909-20.154182-39.982545-47.522909-81.640727-82.152727-21.643636-17.966545-35.002182-32.349091-40.168727-43.287273C557.102545 219.848727 554.728727 200.299636 555.287273 172.232727zM462.568727 34.784l0 102.167273 102.167273 0 0-102.167273L462.568727 34.784z"  horiz-adv-x="1024" />

    
    <glyph glyph-name="jiahao" unicode="&#59011;" d="M409.6-212l204.8 0L614.4 197.6l409.6 0L1024 402.4 614.4 402.4 614.4 812 409.6 812l0-409.6L0 402.4l0-204.8 409.6 0L409.6-212z"  horiz-adv-x="1024" />

    
    <glyph glyph-name="lose" unicode="&#58909;" d="M459.759 343.968c8.433 0 16.325 0.834 24.631 1.059 58.478 34.604 129.23 55.14 205.779 55.14 18.225 0 35.707-2.363 53.213-4.581 68.673 30.333 111.362 71.471 111.362 116.979v56.199c0 93.111-176.845 168.599-394.984 168.599-218.145 0-394.984-75.488-394.984-168.599v-56.199c-0.001-93.116 176.838-168.597 394.983-168.597zM476.216 169.126h485.507v-156.108h-485.507v156.108zM377.73-62.823c-3.846 5.716-7.497 11.544-10.941 17.478-173.059 14.146-302.013 67.573-302.013 146.952v-94.834c0-24.816 12.563-48.379 35.118-69.595 62.077-58.392 199.859-99.002 359.866-99.002 7.465 0 14.435 0.764 21.796 0.939-42.583 25.748-77.752 59.305-103.826 98.061zM346.329 183.273c14.522 39.429 37.672 75.152 68.149 106.009-196.544 7.548-349.704 63.028-349.704 149.52v-94.834c0.001-76.168 119.093-139.785 281.555-160.696zM340.292 15.479c-7.206 24.318-12.2 49.36-12.2 75.592 0 12.268 2.603 23.923 4.233 35.828-155.244 18.153-267.551 69.342-267.551 143.306v-94.839c-0-75.213 116.172-138.176 275.517-159.886z"  horiz-adv-x="1024" />

    
    <glyph glyph-name="yunduan" unicode="&#58971;" d="M917.954779 386.902232c-40.84015 40.84015-93.963045 64.927755-151.037948 68.834738-26.361391 46.957475-64.293305 86.594217-110.209054 115.03292-50.133817 31.051203-107.949594 47.464011-167.195953 47.464011-76.903507 0-151.125953-27.823696-208.991872-78.346369-52.831252-46.125527-88.848561-108.227933-102.630449-176.357614-82.845847-23.356964-141.253094-99.278097-141.253094-186.927343 0-51.435463 19.905352-99.910501 56.04955-136.49779 30.118971-30.487362 68.625984-49.808406 110.369713-55.769165l0-1.984191L750.384295-17.64857c63.299675 0 122.81107 24.650423 167.570483 69.409836s69.409836 104.270808 69.409836 167.570483S962.714192 342.142819 917.954779 386.902232zM750.384295 33.51674 231.015468 33.51674l-2.044566 0.026606c-37.815257 0.494257-73.28919 15.595186-99.887988 42.520419-26.622334 26.947745-41.283242 62.653969-41.283242 100.538811 0 69.068052 49.213865 128.245849 117.019157 140.712789l18.066471 3.321652 2.62785 18.180058c9.079796 62.821791 40.564881 120.541377 88.656179 162.528654 48.543599 42.382273 110.814852 65.723887 175.34147 65.723887 49.719378 0 98.219999-13.761422 140.255371-39.797401 31.191396-19.317974 57.987692-44.790112 78.805834-74.68498-23.131837-4.139274-45.606711-11.68104-66.428945-22.387893-32.121582-16.518209-60.511165-40.609906-82.098833-69.670779-8.42488-11.341303-6.062066-27.366278 5.28026-35.792181 11.341303-8.425903 27.365254-6.062066 35.792181 5.28026 16.947997 22.812565 39.225373 41.721217 64.425312 54.680367 26.38902 13.570063 54.934147 20.450774 84.84334 20.450774 102.458533 0 185.815009-83.356476 185.815009-185.815009S852.842829 33.51674 750.384295 33.51674z"  horiz-adv-x="1024" />

    
    <glyph glyph-name="fanhui" unicode="&#59056;" d="M51.511699 333.005718l320.993758 269.99934 0-159.013597c0 0 452.975698-47.038316 599.98182-446.995497C751.733525 290.645958 372.505457 224.990632 372.505457 224.990632l0-155.998937L51.511699 333.005718z"  horiz-adv-x="1024" />

    
    <glyph glyph-name="paixing" unicode="&#58982;" d="M367.817692-3.572994 81.75756-3.572994c-10.921747 0-19.747763 8.856715-19.747763 19.776416L62.009797 398.325399c0 10.921747 8.826016 19.776416 19.747763 19.776416l286.061155 0c10.921747 0 19.801998-8.854669 19.801998-19.776416l0-382.121977C387.61969 5.283722 378.739439-3.572994 367.817692-3.572994zM101.503277 35.976768 348.070952 35.976768 348.070952 378.552054 101.503277 378.552054 101.503277 35.976768zM653.880893-3.572994 367.817692-3.572994c-10.921747 0-19.74674 8.856715-19.74674 19.776416L348.070952 588.38099c0 10.921747 8.824993 19.776416 19.74674 19.776416l286.063201 0c10.92277 0 19.805068-8.854669 19.805068-19.776416l0-572.177568C673.685961 5.283722 664.803663-3.572994 653.880893-3.572994zM387.61969 35.976768l246.514463 0 0 532.630876-246.514463 0L387.61969 35.976768zM939.999352-3.572994 653.880893-3.572994c-10.921747 0-19.74674 8.856715-19.74674 19.776416L634.134153 302.292206c0 10.921747 8.824993 19.776416 19.74674 19.776416l286.11846 0c10.9197 0 19.798928-8.854669 19.798928-19.776416l0-286.088784C959.797257 5.283722 950.919053-3.572994 939.999352-3.572994zM673.685961 35.976768l246.5073 0L920.193261 282.51886 673.685961 282.51886 673.685961 35.976768zM469.975373 408.695584l28.630061 0 0 76.591399-24.769127 0 0 19.885909c14.452153 2.729158 23.828708 6.340405 33.264615 12.161994l23.719214 0 0-108.640326 24.214495 0 0-26.061562-85.059258 0L469.975373 408.695584zM171.393044 109.038784c33.647331 30.586622 56.317657 54.995545 56.317657 74.577532 0 12.300141-6.950296 18.974144-17.59575 18.974144-9.211802 0-16.492626-6.15007-22.780843-13.017478l-17.540492 17.402345c13.183254 13.899568 25.483394 20.769023 44.679595 20.769023 26.034956 0 44.128033-16.603143 44.128033-42.308595 0-23.166629-19.85828-48.706305-40.48711-69.530586 6.674003 0.937348 15.885805 1.820462 21.843494 1.820462l24.822338 0 0-27.16571-93.3859 0L171.394067 109.038784zM739.601206 106.887794l14.838963 20.270672c8.108678-7.804756 17.540492-13.044084 28.075429-13.044084 12.467963 0 20.629853 5.239328 20.629853 15.388479 0 11.583826-6.1777 18.423605-34.419927 18.423605l0 22.671349c23.0029 0 30.228465 7.060813 30.228465 17.73185 0 9.211802-5.406127 14.260795-15.390525 14.260795-9.045003 0-15.941064-4.136204-24.105001-11.19497l-16.217357 19.74674c12.466939 10.45205 25.815969 16.603143 41.811268 16.603143 27.800159 0 46.113247-12.990872 46.113247-37.06722 0-13.405311-7.226588-23.914666-21.732977-29.705556l0-0.88209c15.004739-4.550643 26.091238-15.416108 26.091238-32.791847 0-25.127284-23.0029-39.247886-49.810453-39.247886C764.423545 88.048727 749.363548 95.440068 739.601206 106.887794z"  horiz-adv-x="1024" />

    
    <glyph glyph-name="rijianmoshi" unicode="&#58918;" d="M438.857 726.857c0 40.396 32.466 73.143 73.143 73.143 40.396 0 73.143-32.466 73.143-73.143v-73.143h-146.286v73.143zM438.857-77.714h146.286v-73.143c0-40.396-32.466-73.143-73.143-73.143-40.396 0-73.143 32.466-73.143 73.143v73.143zM73.143 214.857c-40.396 0-73.143 32.466-73.143 73.143 0 40.396 32.466 73.143 73.143 73.143h73.143v-146.286h-73.143zM877.714 214.857v146.286h73.143c40.396 0 73.143-32.466 73.143-73.143 0-40.396-32.466-73.143-73.143-73.143h-73.143zM149.961 546.599c-28.564 28.564-28.763 74.676 0 103.44 28.564 28.564 74.676 28.763 103.44 0l51.719-51.719-103.44-103.44-51.722 51.719zM718.879-22.319l103.44 103.44 51.719-51.722c28.564-28.564 28.763-74.676 0-103.44-28.564-28.564-74.676-28.763-103.44 0l-51.719 51.719zM253.401-74.039c-28.564-28.564-74.676-28.763-103.44 0-28.564 28.564-28.763 74.676 0 103.44l51.719 51.719 103.44-103.44-51.719-51.722zM822.319 494.879l-103.44 103.44 51.722 51.719c28.564 28.564 74.676 28.763 103.44 0 28.564-28.564 28.763-74.676 0-103.44l-51.719-51.719zM512-4.571c161.583 0 292.571 130.989 292.571 292.571 0 161.583-130.989 292.571-292.571 292.571-161.583 0-292.571-130.989-292.571-292.571 0-161.583 130.989-292.571 292.571-292.571z"  horiz-adv-x="1024" />

    
    <glyph glyph-name="fanhui1" unicode="&#58975;" d="M821.505611-148.761724l-438.660668 448.745351 438.660668 448.77912L641.151987 748.762747 202.493365 299.983627l438.658621-448.745351L821.505611-148.761724z"  horiz-adv-x="1024" />

    
    <glyph glyph-name="jianhao" unicode="&#59013;" d="M64.709791 222.45181 64.709791 377.549214l894.579395 0 0-155.097404L64.709791 222.45181z"  horiz-adv-x="1024" />

    
    <glyph glyph-name="icon6" unicode="&#58906;" d="M514.003122 785.724567c-268.223904 0-485.661122-217.437218-485.661122-485.661122 0-268.222881 217.437218-485.661122 485.661122-485.661122 268.222881 0 485.661122 217.438241 485.661122 485.661122C999.66322 568.288372 782.226003 785.724567 514.003122 785.724567zM514.003122-131.631578c-238.423181 0-431.701163 193.276958-431.701163 431.698093S275.579941 731.765631 514.003122 731.765631c238.419088 0 431.697069-193.277982 431.697069-431.699116S752.42221-131.631578 514.003122-131.631578zM211.571115 171.565862 243.992525 171.565862 243.992525 283.853251 334.715783 283.853251 334.715783 316.275685 243.992525 316.275685 243.992525 396.140641 334.715783 396.140641 334.715783 428.562051 211.571115 428.562051ZM481.543849 279.653603c16.949021 16.946974 25.542746 37.72623 25.542746 61.756529 0 23.932062-8.592702 44.660152-25.542746 61.61122-14.137998 14.133905-31.532157 22.696931-51.696406 25.453718l-73.27077 0.086981 0-256.996189 32.422434 0 0 82.541925 29.845749 0 52.999075-82.541925 39.226397 0L453.379393 260.52494C463.684086 264.823849 473.119993 271.2277 481.543849 279.653603zM389.00013 395.992261l30.934546 0c15.165398 0 27.78174-5.222955 38.570457-15.9646 10.774391-10.734482 16.010649-23.366174 16.010649-38.618553 0-15.260565-5.242398-27.92091-16.023952-38.703487-10.786671-10.784624-23.39892-16.027022-38.557154-16.027022l-30.934546 0L389.00013 395.992261zM518.538415 171.565862 656.555815 171.565862 656.555815 203.988296 550.960849 203.988296 550.960849 283.853251 656.555815 283.853251 656.555815 316.275685 550.960849 316.275685 550.960849 396.140641 656.555815 396.140641 656.555815 428.562051 518.538415 428.562051ZM816.435129 396.140641 816.435129 428.562051 678.418752 428.562051 678.418752 171.565862 816.435129 171.565862 816.435129 203.988296 710.841186 203.988296 710.841186 283.853251 816.435129 283.853251 816.435129 316.275685 710.841186 316.275685 710.841186 396.140641Z"  horiz-adv-x="1024" />

    
    <glyph glyph-name="icon105" unicode="&#58999;" d="M512.243035 748.077132c-247.336178 0-447.838701-200.502523-447.838701-447.838701 0-247.332085 200.502523-447.834608 447.838701-447.834608 247.327992 0 447.834608 200.502523 447.834608 447.834608C960.077643 547.574608 759.57512 748.077132 512.243035 748.077132L512.243035 748.077132zM717.58068 174.067846c6.833639-6.829546 6.828522-17.907858 0.004093-24.741497l-54.428633-54.425563c-6.833639-6.833639-17.907858-6.837732-24.741497-0.004093l-126.171608 126.175701L386.067334 94.901809c-6.829546-6.833639-17.907858-6.833639-24.736381 0l-54.42761 54.425563c-6.833639 6.828522-6.833639 17.906835 0 24.741497l126.174678 126.170584L306.903344 426.415155c-6.829546 6.828522-6.829546 17.907858 0 24.737404l54.42761 54.42761c6.834662 6.833639 17.906835 6.828522 24.740474 0l126.171608-126.171608L638.414643 505.580169c6.829546 6.833639 17.907858 6.833639 24.741497 0l54.425563-54.42454c6.828522-6.833639 6.833639-17.907858 0-24.741497l-126.172631-126.175701L717.58068 174.067846 717.58068 174.067846zM717.58068 174.067846"  horiz-adv-x="1024" />

    
    <glyph glyph-name="chart" unicode="&#59212;" d="M975.685-20.117h-927.371c-26.481 0-47.967 20.736-47.967 46.219l-0 739.061c0 25.514 21.486 46.187 47.967 46.187s47.967-20.673 47.967-46.187v-692.843h879.404c26.482 0 47.967-20.736 47.967-46.219s-21.484-46.219-47.967-46.219zM863.761 118.539h-95.935c-26.482 0-47.967 20.643-47.967 46.155l0 323.344c0 25.514 21.485 46.187 47.967 46.187h95.935c26.482 0 47.967-20.673 47.967-46.187v-323.343c0-25.513-21.484-46.156-47.967-46.156zM591.945 118.539h-95.935c-26.482 0-47.967 20.643-47.967 46.155l-0 508.094c0 25.514 21.485 46.187 47.967 46.187h95.935c26.482 0 47.967-20.673 47.967-46.187v-508.093c0-25.513-21.484-46.156-47.967-46.156zM320.13 118.539h-95.935c-26.481 0-47.967 20.643-47.967 46.155v92.375c0 25.514 21.486 46.187 47.967 46.187h95.935c26.482 0 47.967-20.672 47.967-46.187v-92.375c0-25.512-21.484-46.155-47.967-46.155z"  horiz-adv-x="1024" />

    
    <glyph glyph-name="shitiguanli" unicode="&#58913;" d="M712.8 423.8 368.1 423.8c-12.9 0-23.4-10.5-23.4-23.4 0-12.9 10.5-23.4 23.4-23.4l344.7 0c12.9 0 23.4 10.5 23.4 23.4C736.2 413.3 725.7 423.8 712.8 423.8zM871.6 799.8 136.1 799.8c-12.9 0-23.4-10.5-23.4-23.4L112.7-5c0-12.9 10.5-23.4 23.4-23.4l239.3 0 229.8 0 2 0 0 0.1c12 1 21.4 11.1 21.4 23.3 0 12-9.1 21.9-20.7 23.2l0 0.2-2.7 0L375.4 18.4 173.9 18.4c-11.1 0-14.2 3.1-14.2 14.2l0 706.3c0 11.1 3.1 14.2 14.2 14.2l659.9 0c11.1 0 14.2-3.1 14.2-14.2L848 369l0.1 0c0.5-12.4 10.7-22.4 23.4-22.4s22.8 10 23.4 22.4l0.1 0 0 407.4C895 789.3 884.5 799.8 871.6 799.8zM368.1 259.6c-12.9 0-23.4-10.5-23.4-23.4s10.5-23.4 23.4-23.4l229.8 0c12.9 0 23.4 10.5 23.4 23.4s-10.5 23.4-23.4 23.4L368.1 259.6zM756.3 587.8 368.1 587.8c-12.9 0-23.4-10.5-23.4-23.4 0-12.9 10.5-23.4 23.4-23.4l388.3 0c12.9 0 23.4 10.5 23.4 23.4C779.7 577.3 769.3 587.8 756.3 587.8zM233.6 564.4c0-18.6 15.1-33.6 33.6-33.6 18.6 0 33.6 15.1 33.6 33.6s-15 33.6-33.6 33.6C248.6 598 233.6 582.9 233.6 564.4L233.6 564.4zM238.1 398.9c0-18.6 15.1-33.6 33.6-33.6 18.6 0 33.6 15.1 33.6 33.6S290.2 432.5 271.7 432.5 238.1 417.4 238.1 398.9L238.1 398.9 238.1 398.9zM238.1 235.3c0-18.6 15.1-33.6 33.6-33.6 18.6 0 33.6 15.1 33.6 33.6s-15.1 33.6-33.6 33.6C253.2 268.9 238.1 253.9 238.1 235.3L238.1 235.3zM630.4 159.4l74.2-59.2 184.9 170.4c0 0 12.4 11.4 23.3 2.5 3.2-2.6 7-10.2-1.4-22L718.3 25c0 0-14.7-20.3-32.3 0.3l-83.4 112.5c0 0-9.8 15.3 2.5 24.3C609.3 165.1 618.8 169.9 630.4 159.4L630.4 159.4z"  horiz-adv-x="1024" />

    
    <glyph glyph-name="iconset0190" unicode="&#59037;" d="M917.504 673.792l-43.008 0L665.6 673.792c0 47.104-38.912 84.992-84.992 84.992L417.792 758.784c-47.104 0-84.992-38.912-84.992-84.992l-204.8 0L84.992 673.792c-21.504 0-43.008-17.408-43.008-43.008l0-204.8c0-21.504 17.408-43.008 43.008-43.008l0-332.8c0-21.504 17.408-43.008 43.008-43.008l750.592 0c21.504 0 43.008 17.408 43.008 43.008L921.6 384c21.504 0 43.008 17.408 43.008 43.008L964.608 635.904C960.512 657.408 943.104 673.792 917.504 673.792zM417.792 716.8l166.912 0c21.504 0 43.008-17.408 43.008-43.008L375.808 673.792C375.808 699.392 397.312 716.8 417.792 716.8zM878.592 51.2 128 51.2 128 384l84.992 0 0-43.008c0-21.504 17.408-43.008 43.008-43.008l84.992 0c21.504 0 43.008 17.408 43.008 43.008L384 384l251.904 0 0-43.008c0-21.504 17.408-43.008 43.008-43.008l84.992 0c21.504 0 43.008 17.408 43.008 43.008L806.912 384l84.992 0 0-332.8L878.592 51.2zM251.904 340.992 251.904 468.992l84.992 0 0-128L251.904 340.992zM669.696 340.992 669.696 468.992l84.992 0 0-128L669.696 340.992zM917.504 427.008 793.6 427.008l0 43.008c0 21.504-17.408 43.008-43.008 43.008L665.6 513.024c-21.504 0-43.008-17.408-43.008-43.008l0-43.008L375.808 427.008l0 43.008c0 21.504-17.408 43.008-43.008 43.008l-84.992 0c-21.504 0-43.008-17.408-43.008-43.008l0-43.008L84.992 427.008 84.992 635.904l831.488 0L916.48 427.008z"  horiz-adv-x="1024" />

    
    <glyph glyph-name="gengduo" unicode="&#58983;" d="M1080.416 313.647l-471.874-208.617c-45.178-19.339-63.161-19.339-104.862 0l-471.874 208.617c-25.045 13.066-31.805 61.486-31.805 87.923 31.5-17.704 75.793-37.424 74.149-36.421l481.962-218.52 481.96 218.52c0.843 0.187 43.799 21.488 74.149 36.421-0.002-27.047-8.531-77.259-31.805-87.923zM1080.416 532.166l-471.874-208.621c-45.178-19.333-63.161-19.333-104.862 0l-471.874 208.621c-37.066 19.344-35.909 80.258 0 103.011l471.874 245.033c41.702 20.48 67.794 21.615 104.862 0l471.874-245.033c35.907-19.344 34.748-87.085 0-103.011zM556.112 838.616l-481.962-254.945 481.962-199.743 481.96 199.743-481.96 254.945zM556.112-71.897l481.96 218.527c0.843 0.187 43.799 21.488 74.149 36.418 0-27.049-8.531-77.259-31.805-87.93l-471.874-208.608c-45.178-19.346-63.161-19.346-104.862 0l-471.874 208.608c-25.045 13.073-31.805 61.488-31.805 87.928 31.5-17.711 75.793-37.424 74.149-36.418l481.962-218.524z"  horiz-adv-x="1113" />

    
    <glyph glyph-name="zhuye" unicode="&#58933;" d="M618.775862 41.276335c0 35.763528 0.112564 83.739193-0.031722 117.392664-0.127913 27.329439-5.867638 33.224706-32.721239 33.341363-39.933501 0.163729-79.865979 0.147356-119.79948 0.007163-27.369348-0.095167-32.573883-4.948709-33.008788-33.016974-0.528026-33.605376-0.127913-81.556481-0.127913-116.696816-7.55507-0.871857-12.839423-1.987261-18.131963-2.010797-36.19127-0.152473-72.387657-0.452301-108.574834 0.023536-42.947138 0.563842-53.088102 11.304464-52.78418 53.383838 0.268106 38.038338-0.327458 199.909006 0.715291 237.926878 0.211824 7.574512 4.185322 17.064654 9.6815 22.177092 72.167646 67.110467 144.806014 133.713374 217.58048 200.167902 29.03222 26.5067 63.293535 26.821879 92.369757 0.039909 72.954569-67.186192 145.493675-134.823662 217.712487-202.793706 5.080715-4.780887 8.618285-13.719466 8.765641-20.805862 0.188288-9.190313 0.98749-172.98889 0.288572-243.611344-0.264013-26.41358-13.287631-44.094264-37.71088-45.0091C715.775057 40.024831 668.443052 41.276335 618.775862 41.276335L618.775862 41.276335zM519.040347 761.088334c35.567054 0.071631 54.090942-11.728112 70.727855-27.841092 64.0999-62.062498 128.316457-124.020618 192.453197-186.046277 29.604248-28.632107 59.135842-57.345056 88.679715-86.041632 3.130294-3.045359 6.240121-6.135744 9.129938-9.4093 16.441461-18.62315 18.651802-38.610366 6.087649-54.259788-13.246699-16.492626-39.792285-20.35356-59.555397-8.233522-5.252631 3.225461-9.992585 7.438413-14.502295 11.695367-73.009827 69.01791-146.012492 138.03889-218.874963 207.215412-53.939493 51.209312-74.593905 51.625798-129.080867 1.003863-72.682369-67.530023-144.785547-135.688355-218.039945-202.591091-10.333346-9.441023-25.131377-15.928784-38.941917-19.134803-18.127869-4.204765-33.097816 5.004991-41.544185 21.713534-8.482185 16.776082-5.108345 32.985252 6.852058 46.944172 6.863315 8.014534 14.957667 15.001669 22.695908 22.236444 89.803305 83.959204 179.734524 167.762865 269.385357 251.885797C483.315704 747.865171 503.802294 760.85195 519.040347 761.088334L519.040347 761.088334z"  horiz-adv-x="1024" />

    
    <glyph glyph-name="icon3" unicode="&#58923;" d="M511.998465-24.591839c510.790452 300.467259 458.235492 560.859801 458.235492 560.859801S962.7014 797.70837 742.328317 797.70837c-220.370013 0-230.329852-161.275103-230.329852-161.275103S501.950621 797.70837 281.638937 797.70837c-220.342384 0-227.870848-261.440407-227.870848-261.440407S1.177314 275.87542 511.998465-24.591839z"  horiz-adv-x="1024" />

    
    <glyph glyph-name="duihuan1" unicode="&#58895;" d="M717.233268 279.147954c-11.83249 0-21.399379-9.042957-21.399379-20.180622 0-45.375443-16.33606-56.20714-19.566638-58.042951l-86.693478 0c-6.507204 0-10.003841 0.917906-11.574616 1.530866L577.999157 322.034716l72.892147 0c25.157983 0 45.599548 19.300578 45.599548 43.058678l0 95.522564c0 23.711028-20.441565 43.054585-45.599548 43.054585l-41.706891 0 45.856397 67.258847c6.378268 9.390881 3.538593 21.836331-6.461155 27.867698-9.870812 6.070252-23.101137 3.319605-29.528524-6.031367l-60.746526-89.095177L489.778906 503.670543l-96.435353 97.615225c-8.036024 8.16803-21.575388 8.601912-30.176276 1.007957-8.648984-7.602142-9.128915-20.35663-1.093914-28.520567l69.227688-70.098521-53.372581 0c-25.198915 0-45.679365-19.34765-45.679365-43.058678l0-95.517447c0-23.7581 20.48045-43.063795 45.679365-43.063795l36.903491 0c-8.119935-34.195823-33.406854-100.403734-109.6227-122.592083-11.265578-3.319605-17.555841-14.5903-14.101159-25.247011 2.835581-8.643867 11.308557-14.234189 20.437471-14.234189 2.097778 0 4.234441 0.299829 6.332219 0.913812C422.345074 191.314513 450.954669 282.81139 458.509738 322.030623l76.735685 0 0-118.747521c-0.699941-7.55507 1.440815-18.035772 9.346879-26.773783 9.605775-10.56666 24.718985-15.941064 44.980447-15.941064l89.838098 0 3.715625 0.346901c5.718235 0.923022 55.466266 11.707646 55.466266 98.052177C738.592738 270.104997 729.072921 279.147954 717.233268 279.147954L717.233268 279.147954 717.233268 279.147954zM377.929492 362.38675c-1.616824 0-2.88163 1.180895-2.88163 2.707668l0 95.522564c0 1.479701 1.264806 2.659573 2.88163 2.659573l186.840362 0c1.612731-0.310062 3.14462-0.60989 4.757351-0.60989 1.744737 0 3.538593 0.218988 5.237281 0.60989l76.125795 0c1.574868 0 2.839675-1.180895 2.839675-2.659573l0-95.522564c0-1.526773-1.264806-2.707668-2.839675-2.707668L377.929492 362.38675 377.929492 362.38675 377.929492 362.38675zM514.408863 830.48896c-246.667959 0-447.350584-200.687742-447.350584-447.312722 0-246.672052 200.682625-447.312722 447.350584-447.312722 246.633167 0 447.312722 200.64067 447.312722 447.312722C961.721585 629.801219 761.04203 830.48896 514.408863 830.48896L514.408863 830.48896 514.408863 830.48896zM514.408863-17.623124c-220.98809 0-400.795269 179.807179-400.795269 400.799362S293.420773 783.933645 514.408863 783.933645c220.992183 0 400.756383-179.7642 400.756383-400.756383S735.401046-17.623124 514.408863-17.623124L514.408863-17.623124 514.408863-17.623124z"  horiz-adv-x="1024" />

    
    <glyph glyph-name="shijian" unicode="&#59036;" d="M506.678925-81.849905c-63.955231 0-125.966224 12.484061-184.395723 37.247527-56.382932 23.84251-107.035475 58.020186-150.627361 101.509743-43.489557 43.489557-77.667233 94.142101-101.509743 150.627361-24.763466 58.429499-37.247527 120.440492-37.247527 184.395723S45.382632 517.999001 70.043769 576.4285c23.84251 56.382932 58.020186 107.035475 101.509743 150.627361 43.489557 43.489557 94.142101 77.667233 150.627361 101.509743 58.429499 24.763466 120.440492 37.247527 184.395723 37.247527s125.966224-12.484061 184.395723-37.247527c56.382932-23.84251 107.035475-58.020186 150.627361-101.509743 43.489557-43.489557 77.667233-94.142101 101.509743-150.627361 24.763466-58.429499 37.247527-120.440492 37.247527-184.395723S967.872889 265.964225 943.211752 207.534726c-23.84251-56.382932-58.020186-107.035475-101.509743-150.627361-43.489557-43.489557-94.142101-77.667233-150.627361-101.509743C632.645148-69.263516 570.531828-81.849905 506.678925-81.849905zM506.678925 804.31378c-55.666633 0-109.696013-10.949136-160.553213-32.438093-49.117618-20.772659-93.221145-50.550215-131.082642-88.411712s-67.639053-81.965024-88.411712-131.082642c-21.488958-50.8572-32.438093-104.784251-32.438093-160.553213s10.949136-109.696013 32.438093-160.553213c20.772659-49.117618 50.550215-93.221145 88.411712-131.082642s81.965024-67.639053 131.082642-88.411712c50.8572-21.488958 104.784251-32.438093 160.553213-32.438093s109.696013 10.949136 160.553213 32.438093c49.117618 20.772659 93.221145 50.550215 131.082642 88.411712s67.639053 81.965024 88.411712 131.082642c21.488958 50.8572 32.438093 104.784251 32.438093 160.553213s-10.949136 109.696013-32.438093 160.553213c-20.772659 49.117618-50.550215 93.221145-88.411712 131.082642s-81.965024 67.639053-131.082642 88.411712C616.272609 793.466973 562.345558 804.31378 506.678925 804.31378zM724.536025 396.125912l-204.65674 0-0.920955 280.993704c-0.102328 16.884181-13.81433 30.596183-30.698511 30.596183 0 0-0.102328 0-0.102328 0-16.986509-0.102328-30.698511-13.81433-30.596183-30.800839l1.023284-310.873588c0-0.204657 0-0.409313 0-0.61397 0-16.884181 13.712002-30.698511 30.698511-30.698511l235.355251 0c16.884181 0 30.698511 13.712002 30.698511 30.698511S741.522534 396.125912 724.536025 396.125912z"  horiz-adv-x="1024" />

    
    <glyph glyph-name="review" unicode="&#58904;" d="M980.736 584.256c-25.728 60.8-62.528 115.328-109.376 162.24-46.848 46.848-101.44 83.648-162.24 109.376-62.912 26.624-129.728 40.128-198.592 40.128h-46.464l3.712-1.728c-65.536-5.376-128.448-23.168-187.52-53.056-59.776-30.336-113.728-72.768-157.44-123.776v57.92c0 19.008-15.488 34.496-34.496 34.496-19.008 0-34.496-15.488-34.496-34.496v-138.752c0-9.152 3.648-17.92 10.368-24.64 6.464-6.656 15.488-10.496 24.768-10.496h138.752c19.008 0 34.496 15.488 34.496 34.496 0 19.008-15.488 34.496-34.496 34.496h-54.272c83.968 99.776 205.696 156.608 337.024 156.608 243.392 0 441.472-198.016 441.472-441.408 0-243.392-198.016-441.472-441.472-441.472-243.392 0-441.472 198.016-441.472 441.472 0 19.008-15.488 34.496-34.496 34.496-18.88-0.064-34.368-15.552-34.368-34.56 0-68.864 13.504-135.744 40.128-198.656 25.728-60.8 62.528-115.328 109.376-162.24 46.848-46.848 101.44-83.648 162.24-109.376 62.912-26.624 129.792-40.128 198.656-40.128 68.864 0 135.744 13.504 198.656 40.128 60.8 25.728 115.328 62.528 162.24 109.376 46.848 46.848 83.648 101.44 109.376 162.24 26.624 62.912 40.128 129.792 40.128 198.656-0.064 68.928-13.568 135.744-40.192 198.656zM510.528 699.84c-20.096 0-36.416-16.32-36.416-36.416v-273.92c0-0.768 0-2.048 0.256-3.456 1.344-12.672 9.344-23.872 21.12-29.312l184.96-83.2c4.736-2.176 9.728-3.264 14.912-3.264 0 0 0 0 0 0 14.272 0 27.264 8.384 33.216 21.376 4.032 8.832 4.352 18.688 0.832 27.84-3.456 9.088-10.176 16.256-19.072 20.288l-163.392 73.792v249.856c0 20.096-16.384 36.416-36.416 36.416z"  horiz-adv-x="1025" />

    
    <glyph glyph-name="zhuye1" unicode="&#59000;" d="M904.45123 406.158672C797.500383 516.138506 689.768753 625.357 582.221318 734.756619c-20.268626 20.617573-44.738947 30.486338-73.79982 29.354562-29.351492-1.143033-51.260477-15.84078-71.074755-36.090986C334.303902 622.708684 230.941789 517.712351 127.723963 412.573779c-5.315052-5.414313-10.914584-10.697643-15.365966-16.784268-12.106736-16.551978-13.753235-34.152844 0.197498-50.03865 13.870916-15.797801 31.027667-17.869996 48.974411-6.02625 7.161097 4.725628 13.975293 9.974166 28.293393 20.263509 0-25.102724-0.00307-40.23026 0.002047-55.356772 0.021489-65.314565-0.661056-130.639363 0.260943-195.941648 0.945535-66.991764 37.852096-103.015212 105.497753-104.244202 34.924417-0.635473 69.877487-0.62217 104.802928-0.00921 43.273573 0.76134 54.16769 11.334139 55.037501 53.504588 0.688685 33.401738-0.185218 66.836221 0.37146 100.244099 0.191358 11.483542 2.608407 22.928199 4.275373 36.582173 26.123984 0 48.803519-0.037862 71.484078 0.00921 24.301476 0.050142 48.668443-0.89744 72.887031 0.566912 26.16287 1.582031 42.014906 18.021445 40.753169 39.244816-1.172709 19.747763-15.739473 34.362622-40.295751 34.791387-62.253856 1.088798-124.547621 0.86367-186.809663 0.040932-23.25668-0.305969-36.43891-14.351869-37.169551-37.625946-0.904603-28.834722-0.406253-57.7114-0.469698-86.570681-0.041956-19.334347-0.00921-38.669718-0.00921-60.587913-18.724457-1.099031-32.074509-2.452865-45.435819-2.564405-60.644195-0.50449-69.605288 7.983835-69.777203 67.104327-0.25685 88.098477 0.722454 176.211281-0.683569 264.286222-0.348947 21.816888 6.352685 36.70497 21.410636 51.685149C347.326497 526.205792 407.463132 588.50672 468.341664 650.065751c39.398312 39.83731 50.401923 40.036855 89.12383 0.782829 92.796476-94.082772 185.224562-188.528817 277.884938-282.744619 9.565866-9.727549 18.256806-21.975501 29.972639-27.447119 10.904351-5.091972 27.89942-7.457856 37.442774-2.26253 9.677407 5.270027 18.419512 21.209044 18.554588 32.580023C921.460626 382.757706 913.268036 397.091156 904.45123 406.158672zM835.717799 179.643706c0 30.318516 1.566682 60.745503-0.497327 90.921779-1.6465 24.080441-17.629519 37.854143-37.658691 37.890982-20.269649 0.036839-33.938973-13.145391-37.667901-37.975916-1.563612-10.412141-1.016143-21.173229-1.054005-31.776727-0.119727-33.358759 0.428765-66.725704-0.193405-100.073206-0.87595-46.886867-9.485025-55.398728-56.367799-56.55404-31.81766-0.784876-63.939241 1.523703-95.337345-2.334161-12.121062-1.488911-27.311019-14.097066-32.406061-25.518187-4.256954-9.54233 0.404206-28.218692 8.025791-36.475749 7.834432-8.487302 23.913643-12.285814 36.607756-12.817933 37.84084-1.592264 75.806523-1.280156 113.694435-0.419556 63.584154 1.443885 100.788497 38.437427 103.279225 102.354156 0.943488 24.223704 0.153496 48.514947 0.153496 72.77549C836.103586 179.642682 835.910181 179.642682 835.717799 179.643706z"  horiz-adv-x="1024" />

    
    <glyph glyph-name="tuichu" unicode="&#58907;" d="M472.709135 330.18535c30.962176 0 56.019875 25.057699 56.019875 56.019875 0 30.962176-25.058722 56.019875-56.019875 56.019875-30.963199 0-56.019875-25.057699-56.019875-56.019875C416.688237 355.243049 441.745936 330.18535 472.709135 330.18535zM792.583396 50.085978l168.059624 168.059624L792.583396 386.206248l0-117.101022-168.845523 0L623.737874 778.34537c0 30.962176-16.542768 56.019875-47.504944 56.019875L124.042107 778.34537c-30.963199 0-60.051701-25.057699-60.051701-56.019875l0-728.259392c0-30.962176 41.636283-60.60531 72.599482-60.60531l448.16002 0 38.990013 0 0 60.60531L623.73992 157.564851l168.845523 0L792.585443 50.085978zM568.479339-11.280672l-39.751353 0L120.271224-11.280672 120.271224 722.325495l448.208115 56.019875L568.479339-11.280672zM792.583396 436.927443l55.258535 0L847.841931 666.305621c0 30.962176-8.052396 51.007721-39.013549 51.007721L680.019715 717.313342l0-56.281841 112.563682 0L792.583396 436.927443zM680.019715-66.539206l128.808668 0c30.962176 0 56.019875 0 56.019875 55.258535L680.019715-11.280672 680.019715-66.539206z"  horiz-adv-x="1024" />

    
    <glyph glyph-name="zhuye2" unicode="&#58889;" d="M511.89 767.255c-201.858 0-365.49-163.632-365.49-365.49 0-201.857 163.632-365.489 365.49-365.489s365.489 163.632 365.489 365.489c0 201.858-163.631 365.49-365.489 365.49zM722.047 403.3c0-10.279-3.231-19.801-18.274-19.801h-36.549v-164.471c0-14.812-8.975-18.273-18.273-18.273h-91.373c0 0 0 114.858 0 127.911 0 5.881-10.494 18.275-18.274 18.275h-36.549c-7.334 0-18.274-11.663-18.274-18.275v-127.911c0 0-71.903 0-91.372 0-10.413 0-18.274 7.781-18.274 18.273l-0 164.472h-36.548c-11.226 0-18.274 3.516-18.274 20.701v3.632l189.293 191.695c2.213 2.168 5.354 3.265 9.316 3.265 4.471 0 7.879-1.115 10.119-3.301 95.219-93.238 193.31-192.516 193.31-192.516l-0-3.677z"  horiz-adv-x="1024" />

    
    <glyph glyph-name="chongzhi" unicode="&#58944;" d="M740.842477 627.255233l74.445526 0 0-74.445526c0-8.419763 8.704243-15.243169 19.441794-15.243169 10.738575 0 19.438725 6.824429 19.438725 15.243169l0 74.445526 74.451666 0c8.416693 0 15.238053 8.704243 15.238053 19.443841 0 10.731412-6.821359 19.437701-15.238053 19.437701l-74.451666 0 0 74.449619c0 8.413624-8.700149 15.239076-19.438725 15.239076-10.737552 0-19.441794-6.825452-19.441794-15.239076l0-74.449619-74.445526 0c-8.417717 0-15.239076-8.705266-15.239076-19.437701C725.603401 635.960499 732.42476 627.255233 740.842477 627.255233L740.842477 627.255233zM667.251412 362.89124c13.317307 0 24.11728 9.05933 24.11728 20.233833 0 11.18269-10.800997 20.246113-24.11728 20.246113l-138.831952 0 0 21.449521 133.447315 128.86188c8.733918 8.43716 7.670703 21.224394-2.38328 28.554336-10.053983 7.336082-25.287943 6.438643-34.025954-1.99954L504.217245 463.159898 390.508483 580.049095c-8.422833 8.66024-23.612791 9.952676-33.933857 2.87856-10.316973-7.067976-11.855002-19.816325-3.428076-28.477588l127.036301-130.589221 0-20.48966L356.022041 403.371186c-13.316284 0-24.11728-9.063423-24.11728-20.24202 0-11.175527 10.800997-20.23895 24.11728-20.23895l124.160811 0 0-33.259498L356.022041 329.630718c-13.316284 0-24.11728-9.0624-24.11728-20.23895 0-11.17962 10.800997-20.24202 24.11728-20.24202l124.160811 0 0-105.816001c0-11.180644 10.796904-20.239973 24.11728-20.239973 13.322423 0 24.118304 9.060353 24.118304 20.239973L528.418436 289.149748l138.831952 0c13.317307 0 24.11728 9.0624 24.11728 20.24202 0 11.17655-10.800997 20.23895-24.11728 20.23895l-138.831952 0 0 33.259498L667.251412 362.890216 667.251412 362.89124zM944.73112 494.452601c-2.77623 11.004635-13.947663 17.674545-24.952298 14.903431-11.005658-2.77623-17.674545-13.94664-14.899338-24.953322 8.15575-32.346709 12.291954-65.828264 12.291954-99.518574 0-223.61594-181.921329-405.542386-405.535223-405.542386-223.613894 0-405.536246 181.926446-405.536246 405.542386 0 223.611847 181.922353 405.539316 405.536246 405.539316 59.542094 0 116.889197-12.603039 170.459277-37.45403 10.29753-4.77577 22.515806-0.299829 27.293623 9.990538 4.776793 10.29753 0.300852 22.51683-9.991562 27.2926C640.366088 817.638281 577.193303 831.5225 511.636215 831.5225c-119.302153 0-231.463676-46.457078-315.821969-130.816394C111.45493 616.347812 64.996828 504.18629 64.996828 384.88516c0-119.3042 46.459125-231.466746 130.818441-315.824015 84.358293-84.359316 196.519816-130.817418 315.821969-130.817418s231.461629 46.458101 315.821969 130.817418c84.359316 84.358293 130.817418 196.519816 130.817418 315.824015C958.275601 421.96466 953.716772 458.825173 944.73112 494.452601L944.73112 494.452601zM944.73112 494.452601"  horiz-adv-x="1024" />

    
    <glyph glyph-name="icon-yxj-money-copy" unicode="&#58992;" d="M512 805.875c-232.875 0-421.875-189-421.875-421.875s189-421.875 421.875-421.875c232.875 0 421.875 189 421.875 421.875s-189 421.875-421.875 421.875zM680.75 396.656h-143.438v-71.719h113.906c15.188 0 27.422-12.234 27.422-27.422s-12.234-27.422-27.422-27.422h-113.906v-127.828c0-15.187-12.234-27.422-27.422-27.422s-27.422 12.234-27.422 27.422v127.828h-109.688c-15.188 0-27.422 12.234-27.422 27.422s12.234 27.422 27.422 27.422h109.688v71.719h-139.219c-15.188 0-27.422 12.234-27.422 27.422s12.234 27.422 27.422 27.422h109.688l-118.125 126.984c-10.547 11.391-9.703 28.687 1.688 39.234s29.109 9.703 39.656-1.688l134.156-145.547 133.734 145.547c10.547 11.391 28.266 12.234 39.656 1.688s12.234-27.422 1.688-39.234l-117.703-126.984h113.063c15.188 0 27.422-12.234 27.422-27.422s-12.656-27.422-27.422-27.422z"  horiz-adv-x="1024" />

    
    <glyph glyph-name="fenxiang" unicode="&#58963;" d="M942.13632 400.29184c-31.5136 0-57.11872-25.54368-57.11872-57.11872l0-199.68L141.5168 143.49312l0 199.68c0 31.5136-25.5488 57.11872-57.11872 57.11872s-57.11872-25.5488-57.11872-57.11872l0-256.7936c0-31.5136 25.5488-57.11872 57.11872-57.11872l857.73824 0c31.5136 0 57.11872 25.54368 57.11872 57.11872l0 256.7936C999.1936 374.74816 973.70624 400.29184 942.13632 400.29184zM373.4016 269.4912l-12.16512 40.72448c-7.87968 26.41408-11.87328 53.92896-11.87328 81.792 0 152.87296 120.48896 277.24288 268.55424 277.24288 4.864 0 13.6704-0.11776 23.3472-0.40448L641.26464 758.05696c0 18.47808 11.06432 26.76224 22.01088 26.76224 6.13888 0 12.39552-2.48832 18.5344-7.41376l213.98528-171.17696c8.28416-6.6048 13.03552-16.04608 13.03552-25.83552s-4.75136-19.23072-13.03552-25.83552l-213.98528-171.17696c-6.13888-4.92544-12.3392-7.41376-18.5344-7.41376-10.94656 0-22.01088 8.28416-22.01088 26.76224L641.26464 487.12704c-9.61536 0.29184-18.47808 0.40448-23.3472 0.40448-107.28448 0-200.66304-71.24992-232.35072-177.31584L373.4016 269.4912z"  horiz-adv-x="1024" />

    
    <glyph glyph-name="mianfei" unicode="&#58949;" d="M512 896C229.665391 896 0 666.334609 0 384 0 282.445913 29.785043 184.186435 86.105043 99.906783 96.345043 84.591304 117.092174 80.539826 132.429913 90.713043 147.767652 100.953043 151.863652 121.700174 141.623652 137.037913 92.672 210.298435 66.782609 295.69113 66.782609 384 66.782609 629.49287 266.50713 829.217391 512 829.217391 757.49287 829.217391 957.217391 629.49287 957.217391 384 957.217391 138.50713 757.49287-61.217391 512-61.217391 423.424-61.217391 337.808696-35.194435 264.392348 14.024348 249.143652 24.264348 228.374261 20.190609 218.067478 4.87513 207.805217-10.440348 211.901217-31.165217 227.216696-41.449739 311.652174-98.05913 410.134261-128 512-128 794.334609-128 1024 101.665391 1024 384 1024 666.334609 794.334609 896 512 896ZM323.283478 360.913252C309.103304 360.913252 301.979826 367.101774 301.979826 379.478817L301.979826 430.010991C301.979826 443.81273 309.103304 450.691339 323.283478 450.691339L462.057739 450.691339C458.629565 418.635687 450.192696 388.717078 436.813913 360.913252L323.283478 360.913252ZM524.454957 450.691339 700.360348 450.691339C708.10713 450.691339 714.073043 449.1776 718.32487 446.127861 721.975652 443.501078 723.801043 438.113948 723.801043 430.010991L723.801043 375.828035C723.801043 365.899687 716.032 360.913252 700.360348 360.913252L504.375652 360.913252C513.324522 388.917426 520.025043 418.858296 524.454957 450.691339ZM334.547478 238.255861C309.815652 221.226296 273.975652 205.688209 227.116522 191.686122L227.116522 139.039165C246.416696 141.064904 261.798957 143.402296 273.374609 146.051339 309.504 154.977948 344.275478 171.495513 377.755826 195.648557 413.506783 221.827339 446.363826 258.157078 476.371478 304.615513L522.028522 304.615513 522.028522 201.12473C522.028522 180.021426 528.328348 164.5056 540.883478 154.554991 552.281043 145.428035 566.77287 140.864557 584.403478 140.864557L789.849043 140.864557 789.849043 198.698296 603.881739 198.698296C595.801043 198.698296 589.901913 200.212035 586.25113 203.261774 582.800696 206.111165 581.197913 212.277426 581.376 221.827339L581.665391 304.615513 720.461913 304.615513C738.715826 304.615513 753.764174 310.202991 765.495652 321.355687 775.446261 330.883339 780.410435 345.397426 780.410435 364.875687L780.410435 446.728904C780.410435 466.630122 774.934261 481.633948 763.981913 491.784904 757.281391 498.06247 746.841043 502.848557 732.638609 506.076383L748.755478 543.207513C753.452522 553.981774 755.767652 562.997426 755.767652 570.298991 755.767652 584.924383 749.890783 597.90247 738.114783 609.255513 726.160696 621.231861 709.709913 627.220035 688.806957 627.220035L359.501913 627.220035 368.317217 657.338991 311.106783 657.338991C300.755478 628.533426 290.114783 607.430122 279.162435 594.051339 265.984 577.600557 250.534957 567.672209 232.882087 564.221774L232.882087 506.076383C256.233739 512.576557 275.622957 521.191513 291.027478 531.965774 304.62887 541.493426 317.94087 554.471513 330.896696 570.922296L665.366261 570.922296C677.36487 570.922296 684.844522 570.098643 687.894261 568.4736 692.591304 566.047165 694.884174 562.59673 694.884174 558.122296 694.884174 553.670122 692.902957 546.880557 688.806957 537.731339L675.405913 508.213426 326.021565 508.213426C295.41287 508.213426 274.42087 502.9376 263.023304 492.385948 251.069217 481.032904 245.058783 464.80473 245.058783 443.701426L245.058783 367.903165C245.058783 336.448557 258.05913 316.369252 284.015304 307.642991 290.114783 305.639513 302.425043 304.615513 320.857043 304.615513L403.333565 304.615513C379.581217 275.186643 356.674783 253.059339 334.547478 238.255861L334.547478 238.255861Z"  horiz-adv-x="1024" />

    
    <glyph glyph-name="tuijian-copy" unicode="&#58986;" d="M458.099 896l-458.026-458.026v-480.241l85.732-85.732v171.465l766.803 766.803h171.319l-85.659 85.659 0.073 0.072h-480.242zM230.137 411.907l-0.613-1.436c-1.598-3.746-4.679-8.893-9.419-15.734-2.454-4.947-4.427-8.73-5.903-11.333l54.672-54.672c7.417-6.875 11.277-13.876 11.407-20.747 0.124-6.656-3.208-13.156-9.943-19.364-2.895-3.904-8.121-9.657-15.255-16.791l-1.635-1.635-1.635 1.635c-2.426 2.426-6.69 5.681-12.672 9.671-1.997 0.972-3.746 2.151-4.95 3.353l-1.635 1.635 8.53 8.53c4.274 3.246 7.028 5.496 8.428 6.896 2.694 2.694 4.060 5.087 3.946 6.921-0.073 1.197-0.794 2.313-2.202 3.415l-49.413 49.387c-5.033-8.816-9.913-17.936-14.522-27.149l-1.293-2.583-20.753 16.979 1.229 1.756c6.746 9.638 12.617 19.343 17.466 28.87l-42.389 42.389-22.985-22.986-16.294 16.294 22.986 22.986-35.245 35.245 17.061 17.061 35.245-35.245 20.687 20.687 16.294-16.294-20.687-20.687 38.417-38.417c1.401 2.334 3.193 5.319 5.367 8.954 4.087 7.156 6.806 12.342 8.286 15.811l1.342 3.146 8.548-8.548c4.087-3.053 6.843-5.311 8.428-6.896l1.104-1.105zM424.512 465.777l-101.903-101.903 13.791-13.791-17.061-17.061-113.472 113.472c0.249-1.235 0.517-2.574 0.807-4.010 0.526-5.718 1.029-9.757 1.534-12.261l0.557-2.77-2.823 0.001c-6.196 0-12.701 0.26-19.333 0.773l-1.941 0.15-0.182 1.941c-3.543 37.889-13.017 74.51-28.162 108.845l-0.905 2.051 22.007 10.528 14.204-42.61 39.122 39.122c-12.672 3.829-25.512 6.76-38.187 8.714l-2.505 0.385 5.701 22.81 2.008-0.223c13.731-1.526 27.483-3.861 40.872-6.942l2.316-0.532-4.904-18.909 47.274 47.274 15.528-15.528-45.967-45.97 25.847-25.846 43.673 43.673 15.528-15.528-43.673-43.673 25.847-25.847 43.673 43.673 15.528-15.528-43.673-43.673 25.847-25.847 49.036 49.036 13.993-13.995zM583.88 692.569l-46.738-46.738 22.117-22.117c7.536-7.022 11.455-14.484 11.588-22.121 0.142-8.13-4.013-16.48-12.355-24.821-5.602-6.614-15.44-16.972-29.115-30.647l-1.462-1.462-1.615 1.29c-5.055 4.040-10.942 8.391-17.496 12.931l-2.275 1.579 11.152 11.152c11.725 10.679 18.761 17.228 22.219 20.687 0.581 0.511 1.011 0.911 1.41 1.312 2.499 2.499 3.727 4.934 3.647 7.236-0.089 2.535-1.751 5.225-4.939 7.994l-19.939 19.929-57.464-57.464-15.528 15.528 57.464 57.464-7.681 7.681 8.594 40.327-71.964-71.964-16.294 16.294 100.575 100.575 14.729-14.729-9.602-59.829 45.441 45.441 15.529-15.528zM481.211 796.77l-48.271-48.269 14.558-14.558-17.061-17.061-14.558 14.558-48.066-48.066 10.601-10.601 10.823 8.852 0.582-4.053c0.329-2.296 0.884-4.607 1.658-6.904l105.618 105.618 17.061-17.061-114.071-114.071c3.859-13.726 6.81-27.555 8.779-41.141l89.202-89.202-17.061-17.061-68.618 68.618c0.679-14.671 0.569-30.736-0.329-47.849l-0.185-3.518-3.152 1.57c-1.764 0.88-4.858 1.575-9.194 2.072-6.294 1.247-9.153 1.51-10.476 1.519l-2.493 0.013 0.203 2.485c2.909 35.887 0.431 70.116-7.365 101.804l-42.432-42.432-17.061 17.061 52.038 52.038c-0.753 2.905-1.648 5.979-2.67 9.18l-7.023-7.023-12.259 12.259-49.036-49.036-16.294 16.294 49.036 49.036-16.856 16.856 17.826 17.826 16.856-16.856 48.066 48.066-16.856 16.856 17.061 17.061 16.856-16.856 48.271 48.271 16.293-16.294zM344.425 413.674l-35.806-35.806-25.846 25.846 35.806 35.806 25.846-25.846zM303.050 455.049l-35.806-35.806-25.846 25.846 35.806 35.806 25.846-25.846zM261.676 496.423l-35.806-35.806-25.846 25.846 35.806 35.806 25.846-25.846z"  horiz-adv-x="1024" />

    
    <glyph glyph-name="chakantiezishipin" unicode="&#58973;" d="M512 896c-282.767101 0-512-229.234225-512-512 0-282.771077 229.232899-512.001325 512-512.001325 282.771077 0 512 229.228923 512 512.001325C1023.998675 666.765775 794.771077 896 512 896L512 896zM512-56.143444c-243.08435 0-440.138142 197.059093-440.138142 440.144769 0 243.08435 197.053791 440.138142 440.138142 440.138142S952.142118 627.08435 952.142118 384C952.142118 140.91565 755.083025-56.143444 512-56.143444L512-56.143444zM512-56.143444M318.448174 451.617615c5.329826 0 10.550962 2.163212 14.327305 5.936904 3.769715 3.772366 5.928951 8.993502 5.928951 14.325979 0 5.332477-2.159236 10.553613-5.928951 14.325979-3.772366 3.769715-8.996153 5.934253-14.331281 5.934253-5.331152 0-10.552287-2.163212-14.323328-5.934253-3.769715-3.772366-5.934253-8.993502-5.934253-14.325979 0-5.331152 2.164538-10.552287 5.934253-14.325979C307.895886 453.780827 313.115696 451.617615 318.448174 451.617615L318.448174 451.617615zM318.448174 451.617615M776.9206 533.700386c-6.326601 3.96854-13.563818 5.980646-21.512828 5.980646-7.852248 0-15.907298-1.967039-23.939814-5.852072l-110.391426-53.31682L621.076532 499.294442c0 35.191964-28.634727 63.826691-63.829342 63.826691l-266.223564 0c-35.191964 0-63.826691-28.634727-63.826691-63.826691l0-230.587558c0-35.197266 28.634727-63.826691 63.826691-63.826691l266.228866 0c35.19329 0 63.82404 28.630751 63.82404 63.826691l0 18.674937 110.427214-53.803278c8.070956-3.931426 16.169747-5.928951 24.075015-5.928951 7.903943 0 15.089466 1.993549 21.357745 5.923649 12.62404 7.909245 19.86656 22.801212 19.86656 40.853165L796.803065 492.823362C796.803065 510.86206 789.556569 525.76198 776.9206 533.700386L776.9206 533.700386zM767.358459 492.823362l0-218.400932c0-7.568592-2.258648-13.50152-6.034991-15.868859-1.561436-0.966288-3.513894-1.456722-5.809656-1.456722-3.285909 0-7.131178 1.023284-11.120926 2.966464l-123.317679 60.086137L621.075206 447.828017l123.189106 59.488337c3.983121 1.919321 7.825738 2.932001 11.114298 2.932001 2.334201 0 4.310519-0.499713 5.882559-1.489859C765.136925 506.331509 767.358459 500.523178 767.358459 492.823362L767.358459 492.823362zM256.640215 499.294442c0 18.958594 15.42084 34.383411 34.38076 34.383411l266.228866 0c18.959919 0 34.383411-15.424817 34.383411-34.383411l0-230.587558c0-18.961245-15.424817-34.383411-34.383411-34.383411l-266.228866 0c-18.958594 0-34.38076 15.423491-34.38076 34.383411L256.640215 499.294442 256.640215 499.294442zM256.640215 499.294442"  horiz-adv-x="1024" />

    
    <glyph glyph-name="sousuo" unicode="&#59001;" d="M704 246.399999C733.19584 281.546369 755.044838 320.805418 768.57207 364.02001 779.087686 397.613567 784.574477 433.597451 784.574477 471.897844 784.574477 670.974016 623.390412 832.332634 424.529304 832.332634 225.702689 832.332634 64.480433 670.974016 64.480433 471.897844 64.480433 272.85867 225.702689 111.460591 424.529304 111.460591 512.02356 111.460591 587.197878 140.052477 649.599976 191.999975L878.203494-36.409455C893.33415-51.527269 918.125242-51.215896 932.601805-36.69134L932.601805-36.69134C947.514509-21.729207 947.275341 2.747411 932.249568 17.796484L704 246.399999ZM115.199997 473.600565C115.199997 642.993773 252.987407 780.799981 422.400584 780.799981 591.77617 780.799981 729.6 642.993773 729.6 473.600565 729.6 304.205009 591.77617 166.399978 422.400584 166.399978 252.988582 166.399978 115.199997 304.205009 115.199997 473.600565L115.199997 473.600565Z"  horiz-adv-x="1024" />

    
    <glyph glyph-name="meiyou" unicode="&#59309;" d="M512 896C229.730462 896 0 666.269538 0 384c0-282.230154 229.730462-512 512-512 282.269538 0 512 229.769846 512 512C1024 666.269538 794.269538 896 512 896zM120.32 384c0 216.300308 175.379692 391.68 391.68 391.68 82.589538 0 159.389538-25.560615 222.72-69.789538L190.109538 161.240615C145.880615 224.610462 120.32 301.410462 120.32 384zM512-7.68c-80.620308 0-154.899692 24.300308-217.6 65.929846L837.750154 601.6c41.668923-62.739692 65.969231-137.019077 65.969231-217.6C903.68 167.699692 728.300308-7.68 512-7.68z"  horiz-adv-x="1024" />

    
    <glyph glyph-name="shouji" unicode="&#58886;" d="M350.352 43.355674c-28.999526 4.11319-54.653683 23.780237-66.900416 51.287334-1.530624 3.437888-3.718822 10.749683-4.862682 16.248422-1.998323 9.606477-2.080282 20.350067-2.09431 274.536717-0.016 290.101363-0.3952 273.203597 6.511808 290.176102 11.168512 27.444224 36.990643 47.84617 66.260787 52.352333 5.34592 0.823014 60.816653 1.086797 178.821952 0.850381 161.277325-0.323123 171.451315-0.457754 177.697088-2.351552 30.851366-9.354509 52.681254-31.37545 61.32919-61.865958 1.940672-6.842355 2.029722-19.071578 2.029722-278.760883 0-259.689293-0.089088-271.918515-2.029722-278.76087-8.647923-30.490458-30.476109-52.509798-61.32919-61.866266-6.259558-1.898266-16.155686-2.017651-179.363366-2.163776-95.006067-0.08512-174.237952 0.057984-176.070861 0.318016zm351.920397 46.261056c3.544102 1.740288 8.868698 5.589018 11.83241 8.552742 2.963738 2.963725 6.812467 8.28832 8.552755 11.832422l3.164147 6.443827 0.331955 38.046861 0.331942 38.046848-203.341094 0-203.341082 0 0-36.130598c0-32.865702 0.194048-36.682701 2.147302-42.240115 4.235917-12.051917 15.257254-22.976115 26.84128-26.60471 4.082893-1.278938 33.202893-1.497702 175.964557-1.321997l171.072 0.210573 6.443827 3.164147zm-190.290688 19.558656c-8.424384 2.894797-16.993434 12.020326-19.552115 20.821875-4.366694 15.020915 2.444262 30.394496 16.774976 37.864243 7.967795 4.153139 19.821581 4.133338 27.908454-0.04672 20.135386-10.40759 24.037274-35.848422 7.942182-51.784192-8.55625-8.471565-20.914957-11.033229-33.073498-6.855322zm214.39543 298.314906l0 171.62743-203.286861 0-203.286848 0 0-171.62743 0-171.62743 203.286848 0 203.286861 0 0 171.62743zm-0.198054 230.78057c-0.373478 15.918656-0.586893 17.329062-3.537882 23.38071-4.000845 8.204634-12.14135 16.353152-20.372493 20.392538l-6.440141 3.160461-172.738291 0-172.738278 0-6.440141-3.160461c-8.231142-4.039386-16.371648-12.187904-20.372493-20.392538-2.950989-6.051648-3.164403-7.462054-3.537882-23.38071l-0.397453-16.94057 203.486246 0 203.486259 0-0.397453 16.94057z"  horiz-adv-x="1024" />

    
    <glyph glyph-name="icon77" unicode="&#58977;" d="M705.101-76.202c-124.030-53.71-264.65-53.71-388.681 0-124.021 51.76-212.89 141.6-266.6 265.62-51.761 124.030-51.761 264.649 0 388.68 53.71 124.020 142.579 213.86 266.6 265.62 124.030 53.71 264.65 53.71 388.681 0 124.020-51.76 213.859-141.601 265.619-265.62 53.711-124.030 53.711-264.649 0-388.68-51.76-124.021-141.6-213.86-265.619-265.62v0 0zM680.68 786.098c-108.399 46.88-231.439 46.88-339.84 0-108.4-45.89-186.53-124.021-233.4-232.42-45.899-108.4-45.899-231.439 0-339.84 46.87-108.4 125-186.53 233.4-232.42 108.4-46.88 231.44-46.88 339.84 0 108.4 45.89 186.53 124.020 232.421 232.42 46.88 108.4 46.88 231.439 0 339.84-45.891 108.399-124.021 186.53-232.421 232.42v0 0zM448.26 477.508h125v-343.75h-125v343.75zM448.26 633.758h125v-93.75h-125v93.75z"  horiz-adv-x="1024" />

    
    <glyph glyph-name="shoucang" unicode="&#58970;" d="M953.395454 493.084441c-8.676613 24.556279-30.668487 42.291199-57.407478 46.220694l-222.3716 32.523741L576.974315 769.53368c-11.676947 24.065092-37.161365 39.672558-64.992223 39.672558-27.721365 0-53.151547-15.606443-64.828494-39.617299l-96.643084-197.759039-222.589564-32.633235c-26.629497-3.928472-48.566112-21.609157-57.297984-46.27493-8.622378-24.938995-2.182712-51.950186 16.806781-70.613244l163.271574-160.433946-37.925774-222.535329c-4.638647-26.356274 6.65763-52.440349 29.631878-68.102051 12.059664-8.130168 26.303063-12.441357 41.200354-12.441357 12.059664 0 23.955598 2.891863 34.651194 8.458649l193.666838 102.917998 194.431248-103.192244c23.355941-12.059664 53.260018-10.423397 75.578326 4.311189 22.646789 15.497972 33.887808 41.582047 29.30442 67.940368l-37.871539 222.533282 163.381068 160.653957C955.577143 441.08002 961.962573 468.036975 953.395454 493.084441zM896.587634 463.126128 722.675722 292.105057c-6.712889-6.603395-9.713222-15.989159-8.131191-25.211195l40.381709-237.377362c0.709151-4.202719-1.200338-8.18645-5.02034-10.80509-4.637624-3.166109-12.659321-3.329838-17.080004-1.037632L525.352611 127.796874c-8.404414 4.474918-18.444071 4.365424-26.848485 0L291.576263 17.839553c-5.129834-2.620687-12.605086-2.346441-17.080004 0.709151-1.963725 1.308809-6.438643 5.074575-5.402033 11.076266l40.435944 237.377362c1.582031 9.224082-1.419326 18.609847-8.131191 25.213241L127.486044 463.126128c-3.110851 3.055592-4.201695 7.148817-2.892887 10.859325 1.582031 4.529153 6.056949 7.80271 11.67797 8.676613l237.431597 34.814923c9.331529 1.364067 17.407462 7.258311 21.554922 15.715937L498.558361 744.54045c2.182712 4.474918 7.584746 7.476275 13.423731 7.476275 5.948479 0 11.405771-3.001357 13.58746-7.53051l103.299691-211.292264c4.14746-8.458649 12.223393-14.351869 21.554922-15.715937l237.213633-34.706453c5.675256-0.87288 10.258645-4.201695 11.787464-8.512884C900.736117 470.273922 899.698484 466.181721 896.587634 463.126128z"  horiz-adv-x="1024" />

    
    <glyph glyph-name="zhuce" unicode="&#59023;" d="M752.779277 281.225456c22.772498 0 41.198849 18.466262 41.198849 41.195779 0 13.119284-6.122673 24.787464-15.663319 32.329517l0.212856 0.25993c-31.702207 24.541861-66.94621 44.657755-105.004413 59.222002 48.439015 41.559066 79.256028 103.114295 79.256028 171.951647 0 125.12133-101.463639 226.585993-226.585993 226.585993-125.123377 0-226.587016-101.464663-226.587016-226.585993 0-68.837352 30.818036-130.392581 79.257051-171.951647-154.571154-59.301823-264.565398-208.763415-264.646242-384.297793l0-0.079821c0.080844-22.689607 18.507195-41.118004 41.198849-41.118004 22.770451 0 41.116981 18.428398 41.196802 41.118004 0 181.727662 147.894851 329.58158 329.58158 329.58158 74.497474 0 143.081036-25.128238 198.294595-66.945187C731.868244 285.515318 741.817205 281.225456 752.779277 281.225456zM526.193284 441.991941c-79.498561 0-144.190342 64.692805-144.190342 144.192389 0 79.498561 64.693828 144.191366 144.190342 144.191366 79.498561 0 144.191366-64.692805 144.191366-144.191366S605.691845 441.991941 526.193284 441.991941zM909.926191 143.148577 848.129453 143.148577l0 61.798785c0.001023 17.057115-13.839719 30.897857-30.897857 30.897857-17.099073 0-30.897857-13.840742-30.897857-30.897857l0-61.798785-61.796738 0c-17.097026 0-30.896834-13.838695-30.896834-30.897857 0-17.057115 13.799808-30.897857 30.896834-30.897857l61.796738 0 0-61.796738c0-17.059162 13.798785-30.895811 30.897857-30.895811 17.058139 0 30.897857 13.836649 30.897857 30.895811l0 61.796738 61.796738 0c17.058139 0 30.897857 13.840742 30.897857 30.897857C940.824049 129.308858 926.985353 143.148577 909.926191 143.148577z"  horiz-adv-x="1024" />

    
    <glyph glyph-name="jifen1" unicode="&#59530;" d="M972.233498 275.535683c0 88.421842-170.611749 137.76362-351.761506 144.503115 58.400085 112.517633 81.247442 216.755696 29.184693 257.461793-0.391926 0.330528-0.791016 0.653893-1.207501 0.963954l-81.45108 60.752666c-0.275269 0.204661-0.554632 0.398066-0.835018 0.590448l0.016373 0.021489c-24.932856 18.599613-73.381287 27.506471-162.584935-35.678594-61.940724-43.874253-129.378649-112.715131-189.890838-193.8408C96.422562 353.07978 17.703709 164.068985 94.167195 107.033991l0.016373 0.021489c0.264013-0.213871 0.529049-0.426719 0.803295-0.63138l81.450057-60.755736c12.582573-9.385764 27.386744-13.724583 43.87323-13.723559 26.684756 0.002047 57.765635 11.388375 90.89722 31.137161 71.868841-22.921036 165.784814-35.484166 266.305205-35.484166 196.151425 0 394.720923 49.910737 394.720923 145.30334L972.233498 274.512377c0 0.342808-0.013303 0.683569-0.025583 1.023306L972.233498 275.535683zM207.028659 86.679407l-26.697035 19.914562c22.045085 7.845689 46.648436 21.300119 73.463152 40.293705 61.514006 43.572378 128.546701 112.017236 188.747805 192.724373 22.556739 30.241768 43.379996 61.184501 61.889559 91.967598 5.824659 9.686616 2.694365 22.261003-6.992251 28.085662-9.68764 5.825682-22.261003 2.694365-28.086685-6.992251-17.813714-29.624714-37.872562-59.429531-59.620889-88.587618-57.706283-77.362972-121.487935-142.635581-179.597401-183.796026-44.334741-31.403221-75.370595-41.754986-93.866854-40.826847l-10.689457 7.973602c-0.275269 0.204661-0.554632 0.398066-0.833995 0.590448l0.01535 0.020466c-12.365632 9.224082-15.393595 46.367027 5.715165 108.551298 22.722514 66.935482 66.845431 146.175197 124.239606 223.12066 57.393151 76.94444 120.769574 141.821029 178.453345 182.680623 53.588499 37.95852 90.052992 45.641503 102.419647 36.418444l0.01535 0.020466c0.264013-0.213871 0.530073-0.426719 0.804319-0.632403l10.69048-7.974625c6.166443-17.48114 5.079692-50.223868-12.429077-101.745289-3.63683-10.701736 2.090615-22.326495 12.792351-25.963325 2.183735-0.741897 4.403287-1.093914 6.588045-1.093914 8.523117 0 16.480346 5.367241 19.376303 13.886265 10.600429 31.19242 16.48444 58.653865 17.720593 82.063017l26.712385-19.924795c0 0 0.001023 0 0.001023-0.001023 12.363585-9.227152 15.390525-46.369074-5.718235-108.550275-22.722514-66.936505-66.844407-146.176221-124.238582-223.122707-57.395198-76.943416-120.771621-141.822053-178.454368-182.680623C255.858784 85.138308 219.394291 77.455325 207.028659 86.679407zM921.068188 274.512377l0-13.343913c-10.329253-15.393595-37.229926-34.096563-88.988754-50.865481-10.752902-3.483334-16.646122-15.025205-13.161764-25.777083 2.804882-8.65717 10.831696-14.164604 19.465331-14.164604 2.089591 0 4.216022 0.323365 6.311753 1.001817 31.325449 10.148128 56.873312 21.839401 76.373435 34.837436l0-33.30043c0-15.426341-27.960819-40.060391-90.427522-60.32083-67.240427-21.807678-157.136853-33.8172-253.128091-33.8172-76.804247 0-151.293775 8.012488-212.110909 22.435988 17.113773 13.730723 34.424021 29.116131 51.652404 45.796022 49.929156-7.624654 105.006566-11.645225 160.458505-11.645225 37.722136 0 74.974575 1.809205 110.720707 5.375427 11.246135 1.122567 19.455097 11.149944 18.332531 22.398126s-11.162224 19.455097-22.397103 18.332531c-34.401508-3.432169-70.28681-5.173836-106.657158-5.173836-42.682102 0-85.062328 2.467191-124.808564 7.185656 26.433022 28.498054 52.191686 59.520605 76.210729 91.719958 22.868847 30.658254 44.257993 62.525032 63.328327 94.383624 90.428545-1.164522 174.61083-13.025665 238.398622-33.713846 62.466704-20.260439 90.427522-44.89449 90.427522-60.32083l0.025583 0C921.081491 275.195945 921.068188 274.855184 921.068188 274.512377z"  horiz-adv-x="1024" />

    
    <glyph glyph-name="weibiaoti1" unicode="&#59114;" d="M832 320h-256v-256h-128v256h-256v128h256v256h128v-256h256v-128z"  horiz-adv-x="1024" />

    
    <glyph glyph-name="fenxiang1" unicode="&#58958;" d="M841.14432 274.28352c-59.9296 0-112.60928-29.21472-145.96608-73.71264l-264.57088 124.4672c5.248 18.78016 8.24832 38.5024 8.24832 58.96192s-3.00032 40.17664-8.24832 58.96192l264.57088 124.4672c33.3568-44.49792 86.03648-73.71264 145.96608-73.71264 100.99712 0 182.85568 81.85344 182.85568 182.85568S942.14144 859.42784 841.14432 859.42784 658.2784 777.5744 658.2784 676.57216c0-14.8992 2.28864-29.14304 5.6064-43.00288L399.53408 509.184c-39.64416 56.92928-105.46176 94.24896-180.10624 94.24896C98.21696 603.42784 0 505.216 0 384s98.21696-219.42784 219.42784-219.42784c74.64448 0 140.46208 37.3248 180.10624 94.24896l264.35584-124.3904c-3.31776-13.85984-5.6064-28.1088-5.6064-43.00288 0-100.99712 81.85856-182.85568 182.8608-182.85568S1024-9.5744 1024 91.42784s-81.85856 182.85568-182.85568 182.85568z m0 512c60.49792 0 109.71136-49.21344 109.71136-109.71136s-49.21344-109.71648-109.71136-109.71648-109.71648 49.21344-109.71648 109.71648 49.21344 109.71136 109.71648 109.71136zM219.42784 237.7216c-80.64 0-146.28352 65.6384-146.28352 146.28352s65.6384 146.28352 146.28352 146.28352S365.7216 464.64512 365.7216 384s-65.64352-146.28352-146.28864-146.28352z m621.71648-256c-60.50304 0-109.71648 49.21344-109.71648 109.71136s49.21344 109.71648 109.71648 109.71648 109.71136-49.21344 109.71136-109.71648-49.21344-109.71136-109.71136-109.71136z"  horiz-adv-x="1024" />

    
    <glyph glyph-name="fanhui-copy" unicode="&#58950;" d="M920.284-124.591c-9.42 0-17.676 6.635-19.575 16.025-0.267 1.26-13.361 61.021-69.179 119.734-71.088 74.776-181.094 115.91-319.009 119.511v-162.438c0-7.513-4.212-14.389-10.904-17.803-6.691-3.413-14.733-2.788-20.815 1.622l-383.177 277.778c-5.18 3.755-8.249 9.762-8.256 16.16-0.007 6.397 3.049 12.412 8.221 16.177l383.177 279.047c6.079 4.426 14.128 5.068 20.83 1.657 6.703-3.41 10.924-10.293 10.924-17.813v-172.479c24.684-0.909 67.747-4.571 117.668-17.819 79.459-21.088 145.432-57.892 196.090-109.389 77.957-79.251 116.314-190.385 114.004-330.313-0.168-10.212-8.010-18.654-18.181-19.575-0.61-0.055-1.218-0.082-1.819-0.082zM492.534 170.91c88.575 0 167.113-13.947 233.433-41.451 53.747-22.29 99.611-53.457 136.314-92.634 12.051-12.863 22.308-25.728 31.025-38.149-13.304 81.008-45.264 147.575-95.526 198.672-108.175 109.97-268.348 115.542-299.357 115.542-3.308 0-5.125-0.065-5.143-0.065-5.432-0.194-10.704 1.819-14.611 5.585-3.906 3.767-6.123 8.96-6.123 14.386v152.988l-329.187-239.729 329.187-238.638v143.507c0 11.038 8.948 19.986 19.987 19.986z"  horiz-adv-x="1000" />

    
    <glyph glyph-name="liebiao1" unicode="&#59292;" d="M240 679.416c0-12.932-10.482-23.416-23.416-23.416H23.416C10.482 656 0 666.482 0 679.416V872.584C0 885.518 10.482 896 23.416 896h193.17C229.518 896 240 885.518 240 872.584v-193.168zM240 287.414c0-12.932-10.482-23.414-23.416-23.414H23.416C10.482 264 0 274.482 0 287.414v193.17C0 493.518 10.482 504 23.416 504h193.17c12.932 0 23.416-10.482 23.416-23.416v-193.17zM240-104.586c0-12.932-10.482-23.414-23.416-23.414H23.416C10.482-128 0-117.518 0-104.586v193.172C0 101.518 10.482 112 23.416 112h193.17c12.932 0 23.416-10.482 23.416-23.414v-193.172zM1024 679.416c0-12.932-10.482-23.416-23.414-23.416H395.414c-12.932 0-23.414 10.482-23.414 23.416V872.584C372 885.518 382.482 896 395.414 896h605.172C1013.518 896 1024 885.518 1024 872.584v-193.168zM1024 287.414c0-12.932-10.482-23.414-23.414-23.414H395.414c-12.932 0-23.414 10.482-23.414 23.414v193.17c0 12.932 10.482 23.416 23.414 23.416h605.172c12.932 0 23.414-10.482 23.414-23.416v-193.17zM1024-104.586c0-12.932-10.482-23.414-23.414-23.414H395.414c-12.932 0-23.414 10.482-23.414 23.414v193.172c0 12.932 10.482 23.414 23.414 23.414h605.172c12.932 0 23.414-10.482 23.414-23.414v-193.172z"  horiz-adv-x="1024" />

    
    <glyph glyph-name="mingxi" unicode="&#59024;" d="M333.541203 228.819528H214.551947c-19.400125 0-35.14669-15.793318-35.146691-35.194584 0-19.303198 15.744285-35.096517 35.146691-35.096516h118.988115c19.400125 0 35.14555 15.793318 35.14555 35.096516 0 19.398984-15.744285 35.194584-35.144409 35.194584zM452.529318 563.068864c19.400125 0 35.14669 15.744285 35.146691 35.097657 0 19.352232-15.745425 35.14441-35.146691 35.14441h-12.479572V669.579688c0 19.400125-15.744285 35.195724-35.14669 35.195724-19.400125 0-35.14441-15.793318-35.14441-35.195724v-36.267617h-72.486201V669.579688c0 19.400125-15.745425 35.195724-35.14555 35.195724-19.353372 0-35.14669-15.793318-35.14669-35.195724v-36.267617h-12.429399c-19.400125 0-35.14669-15.793318-35.14669-35.14441 0-19.352232 15.744285-35.098797 35.14669-35.098797h83.793533v-72.48506h-83.793533c-19.400125 0-35.14669-15.793318-35.14669-35.14555 0-19.450298 15.744285-35.195724 35.14669-35.195724h83.793533v-83.795813c0-19.398984 15.793318-35.194584 35.195723-35.194583 19.401265 0 35.14669 15.793318 35.146691 35.194583v83.795813h83.842565c19.400125 0 35.14669 15.744285 35.146691 35.195724 0 19.352232-15.745425 35.14441-35.146691 35.14441H368.685612v72.48734h83.842566zM571.468401 657.148009c-19.401265 0-35.097657-15.793318-35.097657-35.194584 0-19.353372 15.696392-35.14669 35.098797-35.14669h118.937942c19.401265 0 35.195724 15.793318 35.195724 35.14669 0 19.398984-15.792178 35.194584-35.195724 35.194584H571.467261zM423.866441 20.579207l-3.069719 6.43592h-289.012027c-19.986245 0-36.266477 16.280232-36.266477 36.265336V776.181737c0 19.937212 16.281372 36.17069 36.266477 36.170691H773.177016c20.083171 0 36.267617-16.231198 36.267617-36.170691v-295.637238l8.188579-2.437987c23.593051-7.0209 35.394138-17.061345 57.424962-29.88073l17.159412-9.9458V788.565523c0 58.739742-47.772223 106.558717-106.558717 106.558718H119.398628C60.610993 895.124241 12.842192 847.305265 12.842192 788.565523v-737.668846c0-58.787635 47.769942-106.558717 106.556436-106.558717H483.629042l-15.697532 18.621292c-17.207305 20.472018-32.025657 32.270824-44.065069 57.619955zM809.444633 157.461096H631.037149c-1.073033 0.088944-2.337639 0.088944-6.043652 0h-5.946726c-16.476365 0-30.808944-10.992606-33.440784-24.217942-0.87804-2.143786-1.071893-3.842851-1.071893-3.842851l-0.58498-4.199768c0-3.03665 0-11.347243 56.739634-89.979724 1.853007-2.862183 6.433639-7.776927 16.769426-7.686842 7.019759 0 15.109131 2.235011 23.104997 6.343554 5.068686 2.591929 17.353265 9.918432 20.377372 20.194922 1.16996 4.289853 0.58384 8.400677-1.656873 11.88547l-17.452472 27.074424h127.615715c19.402405 0 35.195724 14.473978 35.195724 32.165915-0.002281 17.875528-15.795599 32.262842-35.198004 32.262842zM714.195528 466.795759c-163.589131 0-296.860793-133.173595-296.860793-296.96 0-163.689479 133.270521-296.96 296.860793-296.96 163.787546 0 296.96114 133.270521 296.96114 296.96 0 163.786405-133.173595 296.96-296.96114 296.96z m-0.380864-513.144873c-119.371261 0-216.659243 97.289122-216.659243 216.660383 0 119.47731 97.287982 216.662664 216.659243 216.662664 119.47731 0 216.659243-97.185354 216.659242-216.662664 0-119.37012-97.184214-216.659243-216.659242-216.659242zM787.802655 316.389773c-1.853007 2.857621-6.433639 7.67886-16.671359 7.67886-7.019759 0-15.208339-2.232731-23.203064-6.340134-10.529639-5.444989-18.230165-13.033764-20.277025-20.265621-1.270307-4.109684-0.779973-8.392695 1.556526-11.786263l17.452472-26.962673H619.04335c-19.398984 0-35.094236-14.464855-35.094236-32.320998 0-17.678254 15.692971-32.141969 35.094236-32.141968l182.135162-0.177889 8.267261 0.177889c16.474085 0 30.807804 10.892258 33.53771 24.465389 0.681906 1.874673 0.976107 3.481372 0.976107 3.749345l0.680766 3.927234c0 3.123314 0 11.427065-56.837701 89.996829z m13.347349-111.910201h0.015965l-0.004561-0.053594-0.011404 0.052454z"  horiz-adv-x="1024" />

    
    <glyph glyph-name="zuixin" unicode="&#58993;" d="M924.75 383.924c-13.862 16.779-10.789 23.991 0.82 38.715 60.134 76.339 27.539 181.841-64.776 206.908-23.201 6.292-33.055 13.346-25.068 33.516 2.414 96.78-87.602 161.9-175.261 128.069-20.586-7.945-27.869-6.279-40.224 12.469-53.195 80.664-163.826 80.736-216.62-0.043-12.556-19.193-20.456-19.969-40.324-12.556-89.843 33.544-180.836-32.768-174.716-128.199 1.537-23.906-5.847-27.697-25.57-33.186-92.156-25.686-125.772-132.81-64.66-207.08 13.446-16.334 11.865-23.431-0.388-39.018-61.053-77.615-26.145-182.584 69.027-208.113 17.57-4.711 23.129-8.331 21.965-28.588-5.86-101.12 83.378-166.21 178.379-130.411 17.812 6.737 23.904 5.029 34.405-11.147 55.021-84.729 165.506-84.385 220.585 0.89 10.99 17.009 17.354 16.65 34.477 10.013 94.067-36.475 186.28 32.381 177.862 132.795-1.553 18.547 3.131 21.505 19.723 25.787 97.802 25.183 134.047 132.078 70.364 209.179zM408.449 248.269c-7.284-2.456-13.921-1.982-19.925 1.437l-125.886 81.899-1.093-0.36 33.559-100.099c3.463-12.757-1.35-21.319-14.452-25.729-13.819-4.655-22.841-0.718-27.022 11.793l-51.07 152.247c-4.425 13.202 0.172 22.482 13.762 27.812 7.743 1.049 14.624-0.129 20.615-3.491l126.232-82.976 1.092 0.373-33.918 101.135c-4.425 13.202 0.172 22.482 13.762 27.827 13.346 3.706 22.583-0.949 27.754-13.906l51.042-152.247c3.476-12.757-1.351-21.319-14.452-25.715z m137.637 46.127l-72.073-24.177c-13.374-3.72-22.512 0.589-27.424 12.872L397.286 430.11c-4.899 14.61-0.546 24.565 13.058 29.91l69.888 23.43c11.882 3.233 20.414-0.502 25.614-11.132 2.715-13.001-1.738-21.463-13.374-25.37l-49.145-16.477 12.944-38.587 45.869 15.372c12.857 2.758 21.85-1.178 27.051-11.808 2.486-12.312-2.312-20.874-14.452-25.715l-45.869-15.385 13.633-40.654 51.343 17.195c12.613 3.448 21.147-0.288 25.614-11.119 2.715-13.004-1.738-21.466-13.374-25.374z m210.788 70.68c-14.582-4.899-26.002-2.17-34.349 8.188l-67.374 92.241 1.852-114.235c-1.134-13.518-8.246-22.467-21.361-26.863-15.313-5.1-26.534-1.911-33.616 9.638l-85.002 133.903c-2.399 2.27-3.806 5.272-4.238 9.036-2.772 10.659 1.797 18.747 13.719 24.292 11.636 3.893 21.505-0.144 29.579-12.124l60.695-104.928 1.106 0.373-3.132 128.874c0.375 10.933 5.919 18.604 16.607 22.957 10.429 2.73 19.452-0.057 27.079-8.303L733.644 423.4l1.106 0.375-13.749 120.657c-2.728 13.016 2.342 22.065 15.213 27.151 12.096 2.5 20.63-1.191 25.599-11.119 1.178-3.505 1.839-6.766 2.055-9.768l14.021-157.707c-0.904-14.223-7.914-23.545-21.015-27.913z"  horiz-adv-x="1024" />

    
    <glyph glyph-name="nlife_chuhao" unicode="&#59014;" d="M128 448h768v-128H128zM448 709.11488h128v-128h-128zM448 186.86976h128v-127.99488h-128z"  horiz-adv-x="1024" />

    
    <glyph glyph-name="nlife_denghao" unicode="&#59016;" d="M128 640h768v-128H128V640zM128 256h768v-128H128V256z"  horiz-adv-x="1024" />

    
    <glyph glyph-name="empty" unicode="&#58890;" d="M1116.16 384.853l121.173 46.933-85.333 127.147 75.947-12.8 6.827 11.947-142.507 96.427-426.667 158.72-503.467-167.253-162.133-115.2 7.68-12.8 88.747 36.693-64.853-89.6 128-71.68v-286.72l407.040-226.133 548.693 226.133 0.853 278.187zM1197.227 566.613l-56.32 9.387-34.987 51.2 91.307-60.587zM673.28 794.453l397.653-148.48-397.653-148.48v296.96zM1082.88 635.733l132.267-197.12-549.547-212.48-90.453 219.307 507.733 190.293zM58.027 553.813l77.653 55.467-23.893-32.427-53.76-23.040zM52.907 469.333l114.347 158.72 388.267-182.613-68.267-219.307-434.347 243.2zM174.080 116.053v268.8l321.707-180.053 62.293 198.827 1.707-502.613-385.707 215.040zM181.76 637.44l477.013 157.867v-303.787l-93.867-34.987-383.147 180.907zM1101.653 116.907l-527.36-216.747-1.707 512.853 85.333-205.653 443.733 171.52v-261.973z"  horiz-adv-x="1237" />

    
    <glyph glyph-name="xueke" unicode="&#59034;" d="M894.28366 524.311653c-3.622504 27.212782-4.131087 74.082252 21.145599 89.819678 0.451278 0.288572 0.787946 0.707105 1.180895 1.064238 20.668739 6.608511 34.964326 15.883759 23.739681 28.365025L635.522268 735.409488l-493.591745-68.623937s-56.521295-8.077979-51.472302-95.894023c2.740414-47.791469 17.730826-71.26509 30.841426-82.816171L80.794118 475.866291c-11.242042-12.478196 3.057639-21.759583 23.725354-28.355815 0.391926-0.370437 0.723477-0.782829 1.181918-1.072425 25.260314-15.752776 24.77322-62.616106 21.140483-89.832981-90.743724-25.767873-58.171887-34.164101-58.171887-34.164101l19.907399-4.817726c-14.003945-12.651135-27.909653-36.644595-25.303293-82.149998 5.052063-87.797625 51.478442-93.856621 51.478442-93.856621l323.002508-104.986099 487.538889 118.088511s32.585139 8.408507-58.187237 34.179451c-3.650133 27.176966-4.158716 74.034157 21.159925 89.827865 0.464581 0.279363 0.805342 0.703011 1.181919 1.054005 20.665669 6.609535 34.958186 15.877619 23.726377 28.361955l-21.191648 6.398733c14.132882 8.518001 35.366486 30.792307 38.685068 88.644923 2.294252 39.797401-8.086166 63.105247-20.101827 76.825736l41.888016 10.134825c-0.001023-0.01535 32.584116 8.395204-58.170864 34.165124z m-407.79366 1.124613l81.985246 16.847713 277.063223 56.937781 41.280172 8.488325c-13.19144-24.140817-12.639878-57.173141-10.458189-78.407768 0.479931-4.803399 1.029446-9.191336 1.565658-12.526291l-45.183062-11.232832-349.697497-86.99433 3.444449 106.887402zM134.317125 439.991222l41.273009-8.490372 266.080078-54.697762 23.245423-4.759398 69.707618-14.32731 3.439333-106.890472-359.415836 89.418542-35.433001 8.80555c0.520863 3.340071 1.070378 7.722892 1.570775 12.539594 2.169409 21.217231 2.731204 54.261834-10.467399 78.401628z m-16.035208 135.12963c-0.500397 23.355941 3.662413 40.247656 12.075013 48.834218 5.353938 5.481851 11.670807 6.624884 16.006556 6.624885 2.289136 0 3.936659-0.320295 4.048199-0.320295l212.675774-69.334112 106.106619-34.593889-3.481287-107.635439-297.66954 83.45676-15.709797 4.399194a9.510608 9.510608 0 0 1-1.964748 0.301875c-1.224898 0.088004-30.655184 2.794649-32.086789 68.266803z m320.242651-491.858264l-313.372173 87.853907c-0.577145 0.168846-1.353834 0.280386-1.957585 0.310062-1.246387 0.084934-30.691 2.788509-32.115442 68.24429-0.505513 23.387663 3.677762 40.260959 12.07399 48.857755 5.368264 5.480828 11.688203 6.619768 16.012695 6.619767 2.295276 0 3.937682-0.304945 4.056386-0.304945 0 0 0.014326 0 0 0L441.984367 190.898027l-3.459799-107.635439z m410.637428 110.618377c0.491187-4.817726 1.040702-9.197476 1.575892-12.537548l-394.888746-98.237395 3.448542 106.890472 84.421738 17.35732 12.472056-3.016707 46.730301 15.188934 215.412095 44.26618 41.292451 8.494465c-13.202697-24.137747-12.650111-57.186444-10.464329-78.405721z m21.74628 145.265478c-0.716314-0.014326-1.437745-0.109494-2.110057-0.323365l-29.782304-8.343015-283.582707-79.511915-3.469008 107.633392 93.041046 30.349215 225.285977 73.468269c0.027629 0.013303 11.849886 2.638083 20.528545-6.183839 8.399297-8.586562 12.568247-25.479301 12.078083-48.835242-1.474584-65.448618-30.916127-68.167542-31.989575-68.2535z"  horiz-adv-x="1024" />

    
    <glyph glyph-name="kongzhiguanli" unicode="&#58953;" d="M93.9 704.3h835c15.4 0 27.8-12.5 27.8-27.8v-612.3c0-15.4-12.5-27.8-27.8-27.8h-835c-15.4 0-27.8 12.5-27.8 27.8v612.3c-0.1 15.3 12.4 27.8 27.8 27.8zM93.9 83.9l286.4 286.4-286.4 286.4v-572.8zM642.5 370.3l286.4-286.4v572.8l-286.4-286.4zM622.7 350.5l-101.3-101.3c-2.7-2.7-6.3-4.1-10-4.1s-7.3 1.3-10 4.1l-101.4 101.3-286.4-286.4h795.5l-286.4 286.4zM511.4 278.7l397.7 397.7h-795.5l397.8-397.7z"  horiz-adv-x="1024" />

    
    <glyph glyph-name="shijuan" unicode="&#58880;" d="M334.228 637.666c0-18.668-15.111-33.799-33.78-33.799-18.649 0-33.78 15.132-33.78 33.799 0 18.629 15.132 33.761 33.78 33.761 18.668 0.007 33.78-15.132 33.78-33.761zM334.228 513.786c0-18.678-15.111-33.761-33.78-33.761-18.649 0-33.78 15.091-33.78 33.761 0 18.649 15.132 33.761 33.78 33.761 18.668 0 33.78-15.122 33.78-33.761zM266.667 389.892c0 0 0 0 0 0 0-18.656 15.124-33.78 33.78-33.78 18.656 0 33.78 15.124 33.78 33.78 0 0 0 0 0 0 0 0 0 0 0 0 0 18.656-15.124 33.78-33.78 33.78-18.656 0-33.78-15.124-33.78-33.78s0 0 0 0zM639.709 607.148h-226.653c-16.821 0-30.492 13.651-30.492 30.522 0 16.831 13.671 30.481 30.492 30.481h226.653c16.85 0 30.492-13.651 30.492-30.481 0.012-16.871-13.632-30.522-30.492-30.522zM639.709 483.254h-226.653c-16.821 0-30.492 13.671-30.492 30.522s13.671 30.522 30.492 30.522h226.653c16.85 0 30.492-13.671 30.492-30.522s-13.632-30.522-30.492-30.522zM639.709 359.38h-226.653c-16.821 0-30.492 13.671-30.492 30.5 0 16.88 13.671 30.522 30.492 30.522h226.653c16.85 0 30.492-13.639 30.492-30.522 0.012-16.831-13.632-30.5-30.492-30.5zM266.667 273.708c0 0 0 0 0 0 0-18.656 15.124-33.78 33.78-33.78 18.656 0 33.78 15.124 33.78 33.78 0 0 0 0 0 0 0 0 0 0 0 0 0 18.656-15.124 33.78-33.78 33.78-18.656 0-33.78-15.124-33.78-33.78s0 0 0 0zM639.709 243.186h-226.653c-16.821 0-30.492 13.659-30.492 30.522 0 16.85 13.671 30.492 30.492 30.492h226.653c16.85 0 30.492-13.642 30.492-30.492 0.012-16.86-13.632-30.522-30.492-30.522zM959.089 653.734c0 110.203-40.694 150.898-90.928 150.898h-618.434c-51.653 0-93.711-42.016-93.711-93.719v-589.145h-91.107c0-137.594 50.779-158.399 113.482-158.399h542.489c51.694 0 93.73 42.016 93.73 93.719v596.646h144.479zM777.104 57.099c0-30.998-25.215-56.223-56.223-56.223-50.193 0-75.886 10.71-75.886 120.913h-451.47v589.136c0 30.998 25.174 56.223 56.195 56.223h552.125c-14.863-23.556-24.123-59.215-24.529-110.102-0.119-1.142-0.219-2.286-0.219-3.309v-596.636h0.007z"  horiz-adv-x="1024" />

    
    <glyph glyph-name="xianshidazhe" unicode="&#58987;" d="M518.365 492.372h-14.514v-183.523h242.708v14.514H518.365V492.372z m0 219.625V754.01h33.94v14.514h-82.394v-14.514h33.94v-42.013c-209.627-3.87-378.37-175.001-378.37-385.553 0-212.975 172.652-385.627 385.627-385.627S896.735 113.47 896.735 326.444c0 210.552-168.744 381.684-378.37 385.553z m329.99-385.553c0-45.549-8.91-89.71-26.483-131.256-16.984-40.153-41.306-76.224-72.295-107.213-30.989-30.989-67.059-55.312-107.213-72.295-41.546-17.573-85.707-26.483-131.256-26.483s-89.71 8.91-131.257 26.483c-40.153 16.984-76.224 41.306-107.212 72.295-30.988 30.988-55.311 67.06-72.295 107.213-17.573 41.547-26.483 85.707-26.483 131.256 0 45.549 8.91 89.711 26.483 131.257 16.983 40.154 41.306 76.224 72.295 107.213 30.988 30.988 67.059 55.311 107.212 72.294 41.546 17.573 85.708 26.482 131.257 26.482s89.711-8.91 131.256-26.482c40.154-16.984 76.224-41.306 107.213-72.294 30.988-30.988 55.312-67.059 72.295-107.213 17.573-41.546 26.483-85.707 26.483-131.257z m10.628 242.884l39.644 27.732a475.097 475.097 0 0 1-121.041 119.766c-47.215 32.291-100.621 56.254-158.061 69.74l-11.058-47.1c51.516-12.095 99.411-33.58 141.81-62.573a426.765 426.765 0 0 0 108.706-107.565zM269.14 674.963c41.223 28.677 87.745 50.214 137.806 62.85l-11.84 46.909c-55.82-14.088-107.689-38.106-153.596-70.043a475.184 475.184 0 0 1-117.924-117.618l39.643-27.733A426.835 426.835 0 0 0 269.14 674.963zM458.327 285.44l-25.166-8.419c-3.385 9.992-10.554 14.988-21.506 14.988-11.692 0-17.537-3.793-17.537-11.38 0-3.022 1.093-5.583 3.28-7.679 2.186-2.098 7.128-3.92 14.828-5.465 12.872-2.598 22.296-5.223 28.272-7.874 5.975-2.651 11.01-6.922 15.106-12.812 4.097-5.89 6.146-12.472 6.146-19.749 0-11.408-4.392-21.274-13.172-29.601-8.782-8.325-21.8-12.487-39.055-12.487-12.941 0-23.957 2.945-33.047 8.836-9.09 5.89-15.082 14.633-17.978 26.229l27.386 6.199c3.078-11.782 11.634-17.672 25.668-17.672 6.771 0 11.818 1.31 15.143 3.933 3.323 2.621 4.986 5.75 4.986 9.391 0 3.7-1.509 6.568-4.528 8.604-3.019 2.035-8.838 3.947-17.46 5.739-16.077 3.333-27.533 7.884-34.371 13.65-6.837 5.767-10.255 14.2-10.255 25.302 0 11.224 4.081 20.691 12.246 28.4 8.165 7.708 19.241 11.563 33.229 11.563 24.769 0.004 40.698-9.896 47.785-29.696zM514.252 264.374l24.248-77.467h-19.504l-4.771 15.947h-25.046l-4.855-15.947h-15.911l24.83 77.467h21.009z m-20.721-47.218h16.414l-8.135 27.184-8.279-27.184zM565.23 202.23h30.815v-15.323h-49.203v77.467h18.388v-62.144zM660.688 249.618h-36.889v-15.891h29v-14.585h-29v-16.912h36.889v-15.323h-55.333v77.467h55.333v-14.756zM518.365 492.372h-14.514v-183.523h242.708v14.514H518.365V492.372z m0 219.625V754.01h33.94v14.514h-82.394v-14.514h33.94v-42.013c-209.627-3.87-378.37-175.001-378.37-385.553 0-212.975 172.652-385.627 385.627-385.627S896.735 113.47 896.735 326.444c0 210.552-168.744 381.684-378.37 385.553z m329.99-385.553c0-45.549-8.91-89.71-26.483-131.256-16.984-40.153-41.306-76.224-72.295-107.213-30.989-30.989-67.059-55.312-107.213-72.295-41.546-17.573-85.707-26.483-131.256-26.483s-89.71 8.91-131.257 26.483c-40.153 16.984-76.224 41.306-107.212 72.295-30.988 30.988-55.311 67.06-72.295 107.213-17.573 41.547-26.483 85.707-26.483 131.256 0 45.549 8.91 89.711 26.483 131.257 16.983 40.154 41.306 76.224 72.295 107.213 30.988 30.988 67.059 55.311 107.212 72.294 41.546 17.573 85.708 26.482 131.257 26.482s89.711-8.91 131.256-26.482c40.154-16.984 76.224-41.306 107.213-72.294 30.988-30.988 55.312-67.059 72.295-107.213 17.573-41.546 26.483-85.707 26.483-131.257z m10.628 242.884l39.644 27.732a475.097 475.097 0 0 1-121.041 119.766c-47.215 32.291-100.621 56.254-158.061 69.74l-11.058-47.1c51.516-12.095 99.411-33.58 141.81-62.573a426.765 426.765 0 0 0 108.706-107.565zM269.14 674.963c41.223 28.677 87.745 50.214 137.806 62.85l-11.84 46.909c-55.82-14.088-107.689-38.106-153.596-70.043a475.184 475.184 0 0 1-117.924-117.618l39.643-27.733A426.835 426.835 0 0 0 269.14 674.963zM458.327 285.44l-25.166-8.419c-3.385 9.992-10.554 14.988-21.506 14.988-11.692 0-17.537-3.793-17.537-11.38 0-3.022 1.093-5.583 3.28-7.679 2.186-2.098 7.128-3.92 14.828-5.465 12.872-2.598 22.296-5.223 28.272-7.874 5.975-2.651 11.01-6.922 15.106-12.812 4.097-5.89 6.146-12.472 6.146-19.749 0-11.408-4.392-21.274-13.172-29.601-8.782-8.325-21.8-12.487-39.055-12.487-12.941 0-23.957 2.945-33.047 8.836-9.09 5.89-15.082 14.633-17.978 26.229l27.386 6.199c3.078-11.782 11.634-17.672 25.668-17.672 6.771 0 11.818 1.31 15.143 3.933 3.323 2.621 4.986 5.75 4.986 9.391 0 3.7-1.509 6.568-4.528 8.604-3.019 2.035-8.838 3.947-17.46 5.739-16.077 3.333-27.533 7.884-34.371 13.65-6.837 5.767-10.255 14.2-10.255 25.302 0 11.224 4.081 20.691 12.246 28.4 8.165 7.708 19.241 11.563 33.229 11.563 24.769 0.004 40.698-9.896 47.785-29.696zM514.252 264.374l24.248-77.467h-19.504l-4.771 15.947h-25.046l-4.855-15.947h-15.911l24.83 77.467h21.009z m-20.721-47.218h16.414l-8.135 27.184-8.279-27.184zM565.23 202.23h30.815v-15.323h-49.203v77.467h18.388v-62.144zM660.688 249.618h-36.889v-15.891h29v-14.585h-29v-16.912h36.889v-15.323h-55.333v77.467h55.333v-14.756z"  horiz-adv-x="1024" />

    
    <glyph glyph-name="pptx" unicode="&#58966;" d="M766.1 838.8c-0.8 0.8-1.6 1.4-2.4 2.2l-50 50c-2.8 2.8-8.2 5-12.1 5H286c-58.1 0-105.4-47.2-105.4-105.1v-465.5h82.5V790.9c0 12.4 10.5 22.9 22.9 22.9h364.4v-152c0-58 47.3-105.1 105.4-105.1h152.4v-579.5c0-12.4-10.5-22.9-22.9-22.9H286c-12.4 0-22.9 10.5-22.9 22.9v57.9h-82.5v-57.9c0-58 47.3-105.1 105.4-105.1h599.2c58.1 0 105.4 47.2 105.4 105.1V607.6c0 3.9-2.2 9.3-5 12l-50.2 50c-0.8 0.8-1.5 1.6-2.3 2.4l-167 166.8z m-33.2-177V766.9c0 3.9 2.2 4.8 5 2.1l125.3-125c2.8-2.8 1.8-5-2.1-5H755.8c-12.4-0.1-22.9 10.4-22.9 22.8zM751 416.7V364h-32.2V515.2h52.1c37.6 0 56.4-16 56.4-47.9 0-15.5-5.7-27.9-17-37.3-11.4-9.3-25.6-13.8-42.6-13.4l-16.7 0.1z m0 73.5v-48.8h14c18.9 0 28.4 8.2 28.4 24.7 0 16.1-9.4 24.1-28.1 24.1H751z m-288.9 95.5H627c0-90.4-73.8-163.8-164.9-163.8V585.7zM286.5 599.4c0 90.4 73.8 163.8 164.8 163.8s164.8-73.3 164.8-163.8H451.3v-163.8c-91 0-164.8 73.3-164.8 163.8zM174 230.7h-14.3v-48.8h14c18.9 0 28.4 8.2 28.4 24.7 0 16.1-9.4 24.1-28.1 24.1zM679.7 297.5H68c-15.1 0-27.5-12.3-27.5-27.4v-180.6c0-15.1 12.4-27.4 27.5-27.4h611.7c15.1 0 27.5 12.3 27.5 27.4V270c0 15.1-12.4 27.5-27.5 27.5zM219 170.6c-11.4-9.3-25.6-13.8-42.6-13.4h-16.6v-52.7h-32.2V255.7h52.1c37.6 0 56.4-16 56.4-47.9-0.1-15.5-5.8-27.9-17.1-37.2z m131.4 0c-11.4-9.3-25.6-13.8-42.6-13.4h-16.6v-52.7H259V255.7h52c37.6 0 56.4-16 56.4-47.9 0.1-15.5-5.6-27.9-17-37.2z m144.4 58.7h-43.2v-124.9h-32.3V229.3h-43.1v26.4h118.6v-26.4z m103.5-124.9l-27.1 50.2c-1 1.8-2 5.1-3 9.9h-0.4c-0.5-2.3-1.7-5.7-3.5-10.2L537 104.4h-38.6l48.5 75.7-44.3 75.6h39.3l22.6-46.3c1.8-3.8 3.4-7.9 4.7-12.5h0.4c1.4 4.1 3 8.4 5 13l24.9 45.8h36l-45.7-75 46.9-76.3h-38.4zM305.4 230.7h-14.3v-48.8h14c18.9 0 28.4 8.2 28.4 24.7 0.1 16.1-9.3 24.1-28.1 24.1z"  horiz-adv-x="1024" />

    
    <glyph glyph-name="shoucang1" unicode="&#59017;" d="M701.76 768c-78.944 0-141.536-36.8-189.472-97.248C463.776 731.232 401.76 768 322.848 768 180.16 768 64 650.784 64 506.24c0-86.24 41.728-146.688 75.008-195.04 96.416-141.408 329.28-293.312 339.456-300.672 10.144-7.36 21.44-10.528 33.28-10.528s23.104 3.68 33.248 10.528c10.144 7.36 243.04 159.776 340 300.672C918.272 359.552 960 420 960 506.208 960 650.24 843.84 768 701.76 768z m130.688-422.912C741.76 213.12 512 64 512 64S282.24 213.12 191.552 345.08799999999997C157.888 393.6 128 440.128 128 503.808c0 110.208 88.544 199.68 197.696 199.68 80.96 0 138.496-49.024 169.472-118.784v0.512A18.24 18.24 0 0 1 512 572.576a17.12 17.12 0 0 1 16.832 12.64C559.808 654.976 617.376 704 698.304 704 807.456 704 896 614.528 896 504.32c0-64.192-29.888-110.72-63.552-159.232z"  horiz-adv-x="1024" />

    
    <glyph glyph-name="zengjia" unicode="&#59030;" d="M512-128C229.205333-128 0 101.290667 0 384 0 666.862933 229.205333 896 512 896s512-229.137067 512-512c0-282.709333-229.205333-512-512-512z m253.576533 534.135467a39.424 39.424 0 0 1-39.424 39.424h-157.525333V603.136a39.406933 39.406933 0 0 1-39.424 39.355733h-39.338667a39.338667 39.338667 0 0 1-39.3728-39.355733v-157.559467h-157.559466a39.458133 39.458133 0 0 1-39.424-39.424v-39.287466a39.424 39.424 0 0 1 39.424-39.424h157.576533v-157.576534a39.2704 39.2704 0 0 1 39.355733-39.287466h39.355734c21.777067 0 39.424 17.578667 39.424 39.287466v157.559467h157.4912c21.794133 0 39.424 17.578667 39.424 39.424v39.287467z"  horiz-adv-x="1024" />

    
    <glyph glyph-name="shiliangzhinengduixiang" unicode="&#58900;" d="M946.869346 395.991145l-0.301691-0.696211a29.960254 29.960254 0 0 1 21.071968-41.076412c93.547469-20.491792 161.706466-104.849284 161.706466-208.723875 0-113.389465-103.224793-199.27862-202.527602-211.717579a27.245033 27.245033 0 0 0-4.246883-0.208863H249.220124a27.593138 27.593138 0 0 0-4.293298 0.208863c-103.758555 12.995927-183.915577 104.431558-183.915577 211.717579 0 93.825953 61.91631 173.704492 147.68943 202.249118a29.821012 29.821012 0 0 1 17.683744 40.47303l-0.510554 1.137144a29.91384 29.91384 0 0 1-36.968772 16.08246c-109.722757-36.806322-188.905085-139.427734-188.905085-259.918545 0-141.562779 108.840891-261.543036 247.827691-273.355405a29.937047 29.937047 0 0 1 6.080237 0.139242 31.329467 31.329467 0 0 0 3.945192 0.324898h655.690944a29.565734 29.565734 0 0 0 3.898778-0.324898 29.774598 29.774598 0 0 1 3.921985-0.255277h2.552771c128.682887 10.907296 266.393301 123.368481 266.393302 273.355405 0 133.463531-88.186649 241.840282-209.188015 268.319484a30.169117 30.169117 0 0 1-34.253551-17.730158zM739.468272 394.32024a276.766836 276.766836 0 1 1-322.57748 0c-136.526857-61.753861-231.930887-198.976929-231.930887-358.31628a43.698805 43.698805 0 1 1 87.397611 0c0 168.691777 137.223067 305.914844 305.914844 305.914845s305.914844-137.269481 305.914844-305.914845a43.698805 43.698805 0 1 1 87.397611 0c0 159.339351-95.473651 296.562418-232.070129 358.31628z m-350.774001 224.365401a189.346018 189.346018 0 1 0 189.346019-189.276398 189.554882 189.554882 0 0 0-189.346019 189.346019z"  horiz-adv-x="1190" />

    
    <glyph glyph-name="gengduo1" unicode="&#59012;" d="M516.266667 891.733333C234.666667 891.733333 8.533333 661.333333 8.533333 379.733333S234.666667-128 516.266667-128C797.866667-128 1024 102.4 1024 384S797.866667 891.733333 516.266667 891.733333z m0-955.733333C268.8-64 68.266667 136.533333 68.266667 384S268.8 832 516.266667 832 964.266667 631.466667 964.266667 384s-200.533333-448-448-448zM789.333333 413.866667h-226.133333V640c0 17.066667-17.066667 34.133333-34.133333 34.133333s-34.133333-17.066667-34.133334-34.133333v-226.133333H268.8c-17.066667 0-34.133333-17.066667-34.133333-34.133334s17.066667-34.133333 34.133333-34.133333h226.133333v-226.133333c0-17.066667 17.066667-34.133333 34.133334-34.133334s34.133333 17.066667 34.133333 34.133334v226.133333h226.133333c17.066667 0 34.133333 17.066667 34.133334 34.133333s-17.066667 34.133333-34.133334 34.133334z"  horiz-adv-x="1024" />

    
    <glyph glyph-name="jifen" unicode="&#58887;" d="M968.53333333 588.8l-134.4 211.2C821.33333333 819.2 802.13333333 832 782.93333333 832L232.53333333 832C206.93333333 832 187.73333333 819.2 174.93333333 800l-128-211.2C27.73333333 563.2 34.13333333 537.6 46.93333333 518.4l403.2-505.6c25.6-32 76.8-32 102.4 0l409.6 505.6C981.33333333 537.6 981.33333333 569.6 968.53333333 588.8zM910.93333333 576l-147.2 0-96 192 128 0L910.93333333 576zM482.13333333 576L277.33333333 576c19.2 32 44.8 96 96 192l108.8 0L482.13333333 576zM520.53333333 768l121.6 0c51.2-96 76.8-153.6 96-192L520.53333333 576 520.53333333 768zM482.13333333 512l0-460.8L469.33333333 70.39999999999998 258.13333333 512 482.13333333 512zM520.53333333 51.200000000000045L520.53333333 512l230.4 0-204.8-435.2L520.53333333 51.200000000000045zM219.73333333 768l128 0L251.73333333 576 104.53333333 576 219.73333333 768zM238.93333333 512L405.33333333 160 123.73333333 512 238.93333333 512zM603.73333333 160L776.53333333 512l115.2 0L603.73333333 160z"  horiz-adv-x="1024" />

    
    <glyph glyph-name="danxuanti" unicode="&#59010;" d="M512 896C230.4 896 0 665.6 0 384s230.4-512 512-512 512 230.4 512 512-230.4 512-512 512z m0-896c-211.2 0-384 172.8-384 384s172.8 384 384 384 384-172.8 384-384-172.8-384-384-384z m0 128a256 256 0 1 1 0 512 256 256 0 0 1 0-512z"  horiz-adv-x="1024" />

    
    <glyph glyph-name="NEWS-copy" unicode="&#58894;" d="M376.439 753.385c-87.656-32.851-160.202-96.224-205.015-177.086h143.964c16.018 81.909 40.44 139.841 61.051 177.086zM500.954 576.299v202.040c-30.725-0.986-60.392-5.892-88.935-13.555-21.762-36.401-49.945-97.545-67.721-188.483h156.655zM855.192 576.297c-44.094 79.558-114.435 142.586-200.134 175.894 20.477-37.267 44.547-94.859 60.403-175.894h139.732zM619.228 764.145c-28.605 8.014-58.493 12.888-89.313 14.24v-202.088h156.672c-17.672 90.431-45.647 151.367-67.36 187.847zM654.261 23.706c86.072 33.238 156.744 96.299 200.722 176.188h-139.692c-15.97-81.871-40.413-139.326-61.030-176.188zM529.916 199.893v-201.514c30.431 1.349 60.104 5.581 88.381 13.428 21.752 35.815 49.872 97.033 67.705 188.086h-156.086zM171.835 199.893c44.869-81.073 117.447-144.67 205.421-177.408-20.745 36.812-45.505 94.684-61.644 177.408h-143.777zM412.974 11.136c28.249-7.507 57.6-12.309 87.981-13.285v202.042h-156.070c17.942-91.602 46.289-153.027 68.090-188.757zM210.423 268.261v252.152h-31.991v-197.972l-132.436 197.972h-34.227v-252.152h31.991v198.144l132.437-198.144zM449.496 490.656v29.756h-182.316v-252.152h188.163v29.755h-154.796v85.829h139.488v29.584h-139.488v77.227zM545.471 268.261h34.053l53.492 192.123c2.29 8.139 4.756 18.001 7.395 29.584 0.801-3.67 3.441-13.532 7.913-29.584l53.147-192.123h32.163l69.141 252.151h-33.539l-39.557-162.023c-5.161-20.641-9.348-38.931-12.557-54.868-4.014 27.864-10.551 57.618-19.608 89.269l-36.118 127.624h-40.246l-47.987-170.28c-1.148-4.128-4.932-19.667-11.352-46.612-2.985 17.084-6.536 34.285-10.665 51.6l-38.355 165.291h-34.227l66.907-252.152zM1012.784 375.33c-6.996 10.376-17.832 18.948-32.509 25.714-10.092 4.586-28.696 9.946-55.811 16.082-27.118 6.132-43.888 12.126-50.309 17.973-6.534 5.848-9.803 13.301-9.803 22.36 0 10.432 4.612 19.351 13.844 26.747 9.23 7.396 23.934 11.093 44.117 11.093 19.375 0 34.026-4.071 43.944-12.211 9.917-8.145 15.737-20.184 17.459-36.119l31.99 2.407c-0.575 14.793-4.704 28.035-12.385 39.731-7.683 11.695-18.659 20.553-32.936 26.574-14.276 6.021-30.76 9.030-49.448 9.030-16.971 0-32.395-2.868-46.268-8.6-13.876-5.735-24.423-14.134-31.646-25.198-7.224-11.068-10.836-22.963-10.836-35.69 0-11.583 2.95-22.045 8.856-31.39 5.905-9.348 14.878-17.173 26.918-23.478 9.286-4.93 25.511-10.177 48.675-15.738 23.158-5.563 38.122-9.661 44.89-12.297 10.547-4.014 18.117-8.972 22.704-14.878 4.584-5.908 6.878-12.814 6.878-20.726 0-7.799-2.382-14.993-7.137-21.587-4.76-6.595-12.014-11.782-21.757-15.565-9.749-3.785-20.984-5.676-33.712-5.676-14.333 0-27.234 2.494-38.697 7.482-11.469 4.989-19.927 11.524-25.369 19.608-5.45 8.083-8.918 18.43-10.407 31.045l-31.474-2.751c0.457-16.857 5.075-31.966 13.844-45.323 8.772-13.359 20.869-23.363 36.291-30.013 15.421-6.648 34.543-9.975 57.361-9.975 18.001 0 34.197 3.297 48.589 9.889 14.389 6.593 25.426 15.825 33.11 27.692 7.681 11.868 11.523 24.509 11.523 37.925 0 13.531-3.498 25.484-10.49 35.863z"  horiz-adv-x="1024" />

    
    <glyph glyph-name="datiqia" unicode="&#58903;" d="M510.08 304.853333h-37.546667c-11.306667 0-18.773333-5.546667-18.773333-13.226666v-49.28c0-7.466667 9.386667-13.226667 18.773333-13.226667h37.546667c11.306667 0 18.773333 5.546667 18.773333 13.226667v49.28c0 7.466667-9.386667 13.226667-18.773333 13.226666zM472.533333 351.573333h37.546667c11.306667 0 18.773333 5.546667 18.773333 13.226667v49.066667c0 7.466667-9.386667 13.226667-18.773333 13.226666h-37.546667c-11.306667 0-18.773333-5.546667-18.773333-13.226666v-49.28c-1.92-7.466667 7.466667-13.226667 18.773333-13.226667zM326.186667 351.573333H362.666667c11.306667 0 18.773333 5.546667 18.773333 13.226667v49.066667c0 7.466667-9.386667 13.226667-18.773333 13.226666h-36.48c-11.306667 0-18.773333-5.546667-18.773334-13.226666v-49.28c0-7.466667 9.386667-13.226667 18.773334-13.226667zM181.546667 349.653333h37.546666c11.306667 0 18.773333 5.546667 18.773334 13.226667v49.066667c0 7.466667-9.386667 13.226667-18.773334 13.226666H181.546667c-11.306667 0-18.773333-5.546667-18.773334-13.226666V362.666667c0-7.466667 9.386667-13.226667 18.773334-13.226667zM365.653333 304.853333h-37.546666c-11.306667 0-18.773333-5.546667-18.773334-13.226666v-49.28c0-7.466667 9.386667-13.226667 18.773334-13.226667h37.546666c11.306667 0 18.773333 5.546667 18.773334 13.226667v49.28c0 7.466667-9.386667 13.226667-18.773334 13.226666zM365.653333 552.96h-37.546666c-11.306667 0-18.773333-5.546667-18.773334-13.226667V490.666667c0-7.466667 9.386667-13.226667 18.773334-13.226667h37.546666c11.306667 0 18.773333 5.546667 18.773334 13.226667v49.066666c0 7.466667-9.386667 13.226667-18.773334 13.226667zM654.72 428.8h-37.546667c-11.306667 0-18.773333-5.546667-18.773333-13.226667v-49.28c0-7.466667 9.386667-13.226667 18.773333-13.226666h37.546667c11.306667 0 18.773333 5.546667 18.773333 13.226666v49.493334c0 7.466667-9.386667 13.226667-18.773333 13.226666zM510.08 552.96h-37.546667c-11.306667 0-18.773333-5.546667-18.773333-13.226667V490.666667c0-7.466667 9.386667-13.226667 18.773333-13.226667h37.546667c11.306667 0 18.773333 5.546667 18.773333 13.226667v49.066666c0 7.466667-9.386667 13.226667-18.773333 13.226667zM654.72 552.96h-37.546667c-11.306667 0-18.773333-5.546667-18.773333-13.226667V490.666667c0-7.466667 9.386667-13.226667 18.773333-13.226667h37.546667c11.306667 0 18.773333 5.546667 18.773333 13.226667v49.066666c0 7.466667-9.386667 13.226667-18.773333 13.226667zM221.013333 304.853333H183.466667c-11.306667 0-18.773333-5.546667-18.773334-13.226666v-49.28c0-7.466667 9.386667-13.226667 18.773334-13.226667h37.546666c11.306667 0 18.773333 5.546667 18.773334 13.226667v49.28c0 7.466667-9.386667 13.226667-18.773334 13.226666zM181.546667 475.52h37.546666c11.306667 0 18.773333 5.546667 18.773334 13.226667v49.28c0 7.466667-9.386667 13.226667-18.773334 13.226666H181.546667c-11.306667 0-18.773333-5.546667-18.773334-13.226666v-49.28c0-5.546667 9.386667-13.226667 18.773334-13.226667zM654.72 304.853333h-37.546667c-11.306667 0-18.773333-5.546667-18.773333-13.226666v-49.28c0-7.466667 9.386667-13.226667 18.773333-13.226667h37.546667c11.306667 0 18.773333 5.546667 18.773333 13.226667v49.28c0 7.466667-9.386667 13.226667-18.773333 13.226666zM718.506667-85.333333H117.76A75.306667 75.306667 0 0 0 42.666667-10.24V628.053333A75.306667 75.306667 0 0 0 117.76 704h600.746667a75.306667 75.306667 0 0 0 75.093333-75.093333v-639.146667A75.306667 75.306667 0 0 0 718.506667-85.333333zM117.76 665.6a37.76 37.76 0 0 1-37.546667-37.546667v-638.293333a37.76 37.76 0 0 1 37.546667-37.546667h600.746667a37.76 37.76 0 0 1 37.546666 37.546667V628.053333a37.76 37.76 0 0 1-37.546666 37.546667zM718.506667-85.333333H117.76A75.306667 75.306667 0 0 0 42.666667-10.24V628.053333A75.306667 75.306667 0 0 0 117.76 704h600.746667a75.306667 75.306667 0 0 0 75.093333-75.093333v-639.146667A75.306667 75.306667 0 0 0 718.506667-85.333333zM140.586667 638.506667A34.773333 34.773333 0 0 1 106.666667 603.946667v-590.08A34.773333 34.773333 0 0 1 140.586667-21.333333h554.666666a34.773333 34.773333 0 0 1 34.773334 34.773333V603.946667a34.773333 34.773333 0 0 1-34.773334 34.773333zM906.24 853.333333H305.493333a75.306667 75.306667 0 0 1-75.093333-75.093333v-60.373333l75.306667 1.066666V746.666667a24.32 24.32 0 0 0 28.373333 27.306666l549.12-2.346666c21.333333 0 24.96-12.8 24.96-45.653334l1.066667-547.84c0-21.333333-5.333333-37.546667-26.026667-37.546666h-74.88V64h97.92A75.306667 75.306667 0 0 1 981.333333 139.946667V778.24A75.306667 75.306667 0 0 1 906.24 853.333333z"  horiz-adv-x="1024" />

    
    <glyph glyph-name="xiaojielianxi" unicode="&#59119;" d="M998.63552 565.25824c0 3.98336-1.71008 7.40352-2.83648 10.81344-42.12736 111.0016-113.85856 195.82976-218.61376 252.18048-21.05344 11.95008-43.25376 20.49024-65.45408 30.74048C658.21696 874.37312 609.83296 896 556.9024 896c-1.14688-13.08672-7.41376-63.1808-9.1136-76.27776-6.26688-59.77088-13.09696-118.96832-19.3536-178.7392-6.25664-59.77088-13.08672-118.97856-19.34336-178.74944-2.28352-21.06368-4.5568-42.12736-6.84032-64.32768 166.21568 30.74048 345.52832 65.46432 510.6176 95.63136 0 26.74688-3.98336 45.53728-14.2336 71.72096zM398.88896 730.68544l-43.03872-399.104-10.31168-95.61088 94.55616 17.42848c143.5136 26.43968 285.4912 52.41856 438.5792 80.40448-1.78176-109.08672-52.3264-239.0016-173.5168-321.11616C638.40256-32.4608 560.96768-56.32 481.20832-56.32c-92.672 0-183.17312 32.7168-254.80192 92.1088C88.94464 149.8624 44.53376 343.2448 118.3232 505.88672 178.16576 636.928 292.7616 708.80256 398.88896 730.68544m69.20192 78.96064c-141.60896 0-327.39328-82.20672-414.96576-273.99168-86.528-190.70976-36.43392-418.97984 127.50848-555.03872a470.58944 470.58944 0 0 1 300.58496-108.62592c91.3408 0 183.296 26.66496 264.11008 81.31584 173.056 117.25824 227.14368 317.63456 197.5296 465.08032a342266.5216 342266.5216 0 0 1-515.7376-94.50496l52.36736 485.5808c-3.75808 0.13312-7.5776 0.18432-11.39712 0.18432z"  horiz-adv-x="1024" />

    
    <glyph glyph-name="qian" unicode="&#59025;" d="M874.984558 880.743203h-136.195261l-153.134837-282.160729c-40.838792-76.467995-65.817322-127.292659-74.937566-152.485864h-2.606774c-26.941276 61.254726-102.961124 206.131977-228.076361 434.644614h-144.013602l267.824958-460.05843h-219.6041v-101.655264h257.397864v-140.102948h-257.397864v-102.960135h257.397864v-203.964447h127.720032v203.964447h248.274651v102.960135h-248.273662v140.102948h248.274651v101.655264h-213.084692l270.431731 460.05843z"  horiz-adv-x="1024" />

    
    <glyph glyph-name="baocuo" unicode="&#59088;" d="M512-128a512 512 0 1 0 512 512 512 512 0 0 0-512-512z m0 955.415814A443.773023 443.773023 0 1 1 955.773023 384 443.773023 443.773023 0 0 1 512 827.415814z m0-750.973023a68.226977 68.226977 0 1 0 68.226977 68.226976A68.226977 68.226977 0 0 0 512 76.56186z m0 204.8c-18.813023 0-34.173023 30.48186-34.173023 68.226976l-34.053954 307.55721a68.226977 68.226977 0 1 0 136.453954 0l-34.173024-307.2c0-37.745116-15.36-68.226977-34.173023-68.226977z"  horiz-adv-x="1024" />

    
    <glyph glyph-name="shipin" unicode="&#58901;" d="M432 539.8399999999999A32 32 0 0 1 384 512v-256a32 32 0 0 1 48-27.84l224 128a32 32 0 0 1 0 55.68z m16-228.48v145.6L576 384zM864 864H160a128 128 0 0 1-128-128v-704a128 128 0 0 1 128-128h704a128 128 0 0 1 128 128v128H96V608h896V736a128 128 0 0 1-128 128z m-96-768h160v-64a64 64 0 0 0-64-64h-96z m-224 0h160v-128h-160z m-224 0h160v-128h-160z m-64 0v-128H160a64 64 0 0 0-64 64v64zM256 672H96V736a64 64 0 0 0 64 64h96z m224 0h-160V800h160z m224 0h-160V800h160z m224 0h-160V800h96a64 64 0 0 0 64-64zM960 512m-32 0a32 32 0 1 1 64 0 32 32 0 1 1-64 0ZM960 416a32 32 0 0 1-32-32v-128a32 32 0 0 1 64 0v128a32 32 0 0 1-32 32z"  horiz-adv-x="1024" />

    
    <glyph glyph-name="panduan-dui" unicode="&#59133;" d="M101.056 290.176s220.544-92.16 330.112-291.392c131.648 246.592 384.384 476.544 459.264 493.568V793.28C588.8 594.048 443.968 227.136 443.968 227.136l-158.72 168.896-184.192-105.856z"  horiz-adv-x="1024" />

    
    <glyph glyph-name="panduan-cuo" unicode="&#59134;" d="M192.448 728.576l-60.032-50.24C239.424 598.976 339.2 507.776 426.624 416.32 292.416 281.664 187.328 149.248 131.968 96l114.368-95.296c40.576 83.392 128.896 210.304 247.104 343.04 118.336-133.504 206.848-260.864 247.744-344.96 0 0 111.424 117.888 121.408 99.648-43.008 48.192-147.52 188.224-288.448 331.648 80.704 82.56 171.264 164.288 267.968 236.096l-26.304 48.96c-109.696-54.336-213.888-134.912-307.648-220.736C413.504 583.488 306.432 668.8 192.448 728.576"  horiz-adv-x="1024" />

    
    <glyph glyph-name="ziyuan1" unicode="&#58916;" d="M1271.521 869.031l-16.657 18.243c-7.109 5.445-16.127 8.726-25.91 8.726-0.093 0-0.186-0-0.279-0.001l-13.47 0-1182.636-368.83c-18.75-4.139-32.569-20.617-32.569-40.323 0-17.967 11.489-33.252 27.521-38.907l407.985-195.212-6.345-192.743c-0.017-0.438-0.026-0.953-0.026-1.469 0-15.833 8.921-29.582 22.011-36.495 6.462-3.86 13.991-6.078 22.037-6.078 8.047 0 15.575 2.219 22.007 6.078l186.997 99.833c12.175 7.319 20.196 20.457 20.196 35.47 0 9.36-3.118 17.993-8.372 24.914-7.838 9.952-20.007 16.35-33.67 16.35-8.689 0-16.774-2.587-23.526-7.034l-118.816-53.837 3.173 139.6c0.007 0.294 0.012 0.64 0.012 0.986 0 16.587-9.606 30.93-23.559 37.77l-336.557 165.092 1019.24 312.514-107.080-810.633-267.303 158.637c-6.185 3.67-13.634 5.839-21.59 5.839-15.237 0-28.616-7.956-36.209-19.941-3.9-6.297-6.151-13.724-6.151-21.676 0-3.634 0.47-7.158 1.352-10.514 3.26-11.827 11.649-21.525 22.623-26.549l321.554-191.289c5.852-3.197 12.82-5.076 20.226-5.076s14.374 1.88 20.451 5.188c12.768 6.496 21.765 19.313 22.879 34.324l120.462 938.006c0.707 2.859 1.113 6.141 1.113 9.518 0 3.377-0.406 6.659-1.171 9.8zM1097.814 636.628c7.902 7.775 12.798 18.585 12.798 30.538 0 11.953-4.896 22.762-12.792 30.532-7.868 7.717-18.65 12.476-30.543 12.476-11.893 0-22.675-4.759-30.545-12.477l-429.898-368.823c-7.902-7.775-12.798-18.585-12.798-30.538s4.896-22.762 12.792-30.532c7.868-7.717 18.65-12.476 30.543-12.476 11.893 0 22.675 4.759 30.545 12.477l430.691 368.823z"  horiz-adv-x="1272" />

    
    </font>
</defs>
</svg>
