<?xml version="1.0" standalone="no"?>
<!DOCTYPE svg PUBLIC "-//W3C//DTD SVG 1.1//EN" "http://www.w3.org/Graphics/SVG/1.1/DTD/svg11.dtd" >
<svg xmlns="http://www.w3.org/2000/svg">
<metadata>
Created by FontForge 20120731 at Wed Jun 17 17:58:50 2015
 By Ads
</metadata>
<defs>
<font id="iconfont" horiz-adv-x="1024" >
  <font-face 
    font-family="iconfont"
    font-weight="500"
    font-stretch="normal"
    units-per-em="1024"
    panose-1="2 0 6 3 0 0 0 0 0 0"
    ascent="812"
    descent="-212"
    x-height="792"
    bbox="0 -223 1024.36 812"
    underline-thickness="50"
    underline-position="-100"
    unicode-range="U+0078-F0105"
  />
<missing-glyph horiz-adv-x="374" 
d="M34 0v682h272v-682h-272zM68 34h204v614h-204v-614z" />
    <glyph glyph-name=".notdef" horiz-adv-x="374" 
d="M34 0v682h272v-682h-272zM68 34h204v614h-204v-614z" />
    <glyph glyph-name=".null" horiz-adv-x="0" 
 />
    <glyph glyph-name="nonmarkingreturn" horiz-adv-x="341" 
 />
    <glyph glyph-name="x" unicode="x" horiz-adv-x="1001" 
d="M281 543q-27 -1 -53 -1h-83q-18 0 -36.5 -6t-32.5 -18.5t-23 -32t-9 -45.5v-76h912v41q0 16 -0.5 30t-0.5 18q0 13 -5 29t-17 29.5t-31.5 22.5t-49.5 9h-133v-97h-438v97zM955 310v-52q0 -23 0.5 -52t0.5 -58t-10.5 -47.5t-26 -30t-33 -16t-31.5 -4.5q-14 -1 -29.5 -0.5
t-29.5 0.5h-32l-45 128h-439l-44 -128h-29h-34q-20 0 -45 1q-25 0 -41 9.5t-25.5 23t-13.5 29.5t-4 30v167h911zM163 247q-12 0 -21 -8.5t-9 -21.5t9 -21.5t21 -8.5q13 0 22 8.5t9 21.5t-9 21.5t-22 8.5zM316 123q-8 -26 -14 -48q-5 -19 -10.5 -37t-7.5 -25t-3 -15t1 -14.5
t9.5 -10.5t21.5 -4h37h67h81h80h64h36q23 0 34 12t2 38q-5 13 -9.5 30.5t-9.5 34.5q-5 19 -11 39h-368zM336 498v228q0 11 2.5 23t10 21.5t20.5 15.5t34 6h188q31 0 51.5 -14.5t20.5 -52.5v-227h-327z" />
    <glyph glyph-name="uni343A" unicode="&#x343a;" horiz-adv-x="1000" 
d="M376 742v-187h188v187h-188zM126 742v-187h188v187h-188zM626 742v-187h188v187h-188zM564 496h-188v-579h188v579zM126 496v-579h188v579h-188zM814 -83v579h-188v-579h188z" />
    <glyph glyph-name="uni3465" unicode="&#x3465;" horiz-adv-x="1000" 
d="M952 -58l-280 258q70 89 70 202q0 30 -5.5 59t-15.5 55.5t-24.5 51.5t-33 46.5t-40 39.5t-46.5 32.5t-52 24.5t-56.5 15t-59.5 5q-45 0 -88.5 -11.5t-80 -33t-67 -52t-52 -66.5t-33.5 -78.5t-12 -87.5q0 -90 44.5 -165.5t121.5 -120t167 -44.5q122 0 215 78l276 -251z
M105 403q0 124 90 211.5t217 87.5t217 -87.5t90 -211.5q0 -81 -41 -150t-112 -109t-154 -40q-127 0 -217 87.5t-90 211.5z" />
    <glyph glyph-name="uni346C" unicode="&#x346c;" horiz-adv-x="1000" 
d="M816 710h-632v-124q0 -26 44 -69.5t97 -81.5t99 -77.5t49 -58.5q2 -14 -18 -36t-51 -45t-68 -50.5t-68.5 -52.5t-53 -51.5t-21.5 -45.5v-112h614v112q0 23 -29.5 55t-71.5 63.5t-84 61.5t-69.5 57t-25 43.5t33 44.5t72.5 60t83.5 64.5t70.5 64.5t29 54v124zM698 37h-396
l198 158zM500 396l-198 158h396z" />
    <glyph glyph-name="uniE600" unicode="&#xe600;" 
d="M510 751q-91 0 -174 -35.5t-143 -95.5t-95.5 -143t-35.5 -174t35.5 -174t95.5 -143t143 -95.5t174 -35.5q73 0 141.5 22.5t123.5 64t96.5 96.5t64.5 123.5t23 141.5q0 91 -35.5 174t-96 143t-143.5 95.5t-174 35.5zM665 -63q-37 -15 -75.5 -23t-79.5 -8q-81 0 -154 31
q-71 30 -126 85h-1q37 86 113.5 136.5t169.5 50.5q91 0 168 -50.5t114 -133.5l-1 -1l-2 -2q-55 -55 -126 -85zM512 280q-53 0 -90.5 37.5t-37.5 90t37.5 90t90.5 37.5t90.5 -37.5t37.5 -90.5q0 -34 -17 -63.5t-46.5 -46.5t-64.5 -17zM830 68q-20 38 -48.5 70.5t-64.5 57.5
q-8 6 -16 11t-16.5 9.5t-17 8.5t-17.5 7l-16 8q-9 3 -18 5.5t-18 4.5q42 24 67.5 65.5t25.5 91.5q0 75 -52.5 127.5t-126.5 52.5t-126.5 -52.5t-52.5 -127.5q0 -50 25.5 -91.5t67.5 -65.5q-31 -7 -60 -20t-56 -32q-76 -52 -117 -133q-30 39 -49 84q-31 73 -31 154t31 155
q31 71 86 126t126 85q73 31 154 31q27 0 53.5 -3.5t51.5 -10.5t50 -17q23 -10 45 -23t42.5 -28.5t38.5 -33.5q27 -28 48.5 -59.5t36.5 -66.5q31 -74 31 -155t-31 -154q-18 -44 -46 -81z" />
    <glyph glyph-name="uniE601" unicode="&#xe601;" 
d="M883 469l26 -144l-17 -1l-9 121l-6 -121l-13 1l-6 120l-8 -120h-16l24 144v54l-99 -36v-90q0 -19 -25 -39v-3l1 -6q0 -40 -14.5 -76t-39.5 -64.5t-58 -47.5q81 -29 137 -95t70 -150h-51q-17 93 -92.5 155t-175 62t-174.5 -62t-93 -155h-50q13 84 69 150t138 95
q-25 14 -46 34t-35.5 44t-22.5 52t-8 58v5v5q-12 9 -18.5 18.5t-6.5 19.5v90l-149 54l397 144l396 -144l-25 -9v-63zM512 181q67 0 116.5 43.5t55.5 107.5q-36 -15 -81 -23t-91 -8q-94 0 -173 31q7 -64 56 -107.5t117 -43.5zM313 421q0 -10 22 -24q4 -3 9 -6
q31 -17 76.5 -29.5t91.5 -12.5t91.5 12t75.5 30l10 6q6 4 11 8.5t7.5 8t2.5 7.5v48l-198 -72l-199 72v-48zM512 637l-322 -96l322 -96l322 96zM512 637z" />
    <glyph glyph-name="uniE602" unicode="&#xe602;" 
d="M183 417q-13 0 -26.5 -3t-25 -8.5t-21.5 -13.5t-18 -18.5t-14 -22t-9 -24.5t-3 -27q0 -32 16 -59t43 -42.5t58.5 -15.5t58.5 15.5t43 42.5t16 59q0 16 -4.5 31t-12 28t-18 24t-23.5 18.5t-28.5 11.5t-31.5 4zM512 417q-49 0 -83 -34t-34 -83t34 -83t83 -34t83 34t34 83
q0 24 -9 45.5t-25 37.5t-37.5 25t-45.5 9zM841 417q-20 0 -37.5 -6t-32 -16.5t-25.5 -25t-17 -32.5t-6 -37q0 -24 9.5 -45.5t25 -37.5t37.5 -25t46 -9q48 0 82.5 34t34.5 83q0 32 -16 59t-43 42.5t-58 15.5z" />
    <glyph glyph-name="uniE603" unicode="&#xe603;" 
d="M959 76v-168q0 -23 -16.5 -39t-39.5 -16h-783q-23 0 -39.5 16t-16.5 39v-55v895h895h-56q15 0 28 -7.5t20.5 -20.5t7.5 -28v-168v-448zM64 748v-56q0 15 7.5 28t20.5 20.5t28 7.5h-56zM831 620h-639v-639h639v639zM316 294l71 77l77 -83l169 181l74 -79l-240 -258z" />
    <glyph glyph-name="uniE604" unicode="&#xe604;" 
d="M743 10q-4 -2 -7.5 -3t-8 -2t-8 -2t-7.5 -2l-8 -2q-13 -3 -35 -7q-11 -2 -26 -4l-9 -1l6 -44q4 1 10 2q10 2 27 5q23 5 37 10q10 3 20.5 6.5t21.5 8.5q18 8 22 9q8 4 20 11q12 9 17 13q4 3 7 5.5t8 8.5q1 1 3 4t3 4t2.5 3.5t2.5 4.5q1 3 2.5 6.5t2.5 8.5q1 2 1 4v1v1h10
q-2 3 -7 8t-20 17t-30 20q3 -6 4 -9t2 -8t2 -10.5t2 -13.5l7 -1q-1 -1 -1 -2v-2q-1 0 -1.5 -2t-1.5 -3q-1 -2 -7 -9q-10 -9 -11 -10q-4 -3 -15 -9q-10 -5 -18 -8q-3 -2 -10 -4.5t-9 -2.5zM297 10l-13 -35q1 0 1.5 -0.5t3 -1.5t5.5 -2q1 0 5 -1.5t6.5 -2.5t6.5 -2.5t8 -2.5
q1 0 7.5 -2t10.5 -3q9 -2 20 -5q3 -1 21 -4q9 -2 22 -4q2 0 10 -1.5t12 -1.5q2 -1 4.5 -1t4.5 -0.5t4 -0.5h4q3 0 5 -1q5 0 10.5 -0.5t9.5 -1t9.5 -0.5t8.5 -1h15h3q1 0 3 -1l-2 -12l77 46l-68 19l-1 -7h-11q-1 0 -6 0.5t-8 0.5h-11q-7 0 -13.5 0.5t-11.5 0.5q-24 2 -42 4
q-12 2 -21 3q-3 1 -10 2t-10 1q-7 2 -19 4l-16 4q-10 2 -24 7zM391 174l-2 -19q3 1 7 1l9 2l-2 18q-4 -1 -10 -2h-1h-1zM723 159v-3q5 -10 7 -17q1 -3 1 -5l6 -2l9 -4l8 22h-1q-1 1 -3.5 2t-5.5 1q-13 5 -21 6zM420 502q-19 18 -38 15l-3 -2l-1 -5l-7 -40q16 19 50 31h-1v1z
M273 326q3 -3 8 -4.5t8 -1.5h5v2v3v4q-2 31 -3.5 78t0.5 45l1 -2l1 -1l4 -69q2 -27 3 -54q1 -7 2 -15v-2v-1q1 -7 5 -14l2 -11l4 -18l3 -18l7 -1l11 -81l3 -21q4 1 8 5l4 10l2 15l3 34l3 -36l1 -12l5 -11q1 -2 3 -3l4 -2l3 21l10 70q-10 6 -12 17l-1 1q-4 21 -9 91.5
t-3 92.5q1 11 5 21l-3 36l2 6l-2 4l-1 4h-7l-2 -4l-2 -4l2 -5l-6 -56v-3l-15 72l-1 9h-3q-20 -4 -35 -15q-21 -15 -22 -38v-32q0 -22 1 -53t3 -46q0 -3 1 -7zM291 312l-17 4v-1q1 -1 1 -3.5t1 -5.5v-4q1 -3 2 -5t2 -3l3 -3q6 2 6 8q0 4 1 4q1 -1 1 -3q0 -4 3 -7l1 2
q-1 17 -4 17zM313 519q11 5 14 6l-1 1v3t-0.5 4t-1.5 5v8q-1 3 -1.5 7t-0.5 8q8 -27 21 -37q2 -1 4 -1.5t3.5 -1t3.5 -1.5q8 0 15 5q15 11 19 42v-9v-10q0 -4 -0.5 -7.5t-1 -6.5t-0.5 -5t-1 -3v-1q3 -1 14 -6q21 -8 26 9q-1 2 -6 0.5t-9 6t-1 22.5q5 29 -9 58q-12 27 -45 24
h-1q5 3 9 4h-1h-3h-5q-2 0 -6 -1l-6 -2q-4 -1 -7.5 -2.5t-7.5 -3.5l-9 -9q-1 -1 -2 -1h1q-4 -5 -5 -9q-6 -12 -8.5 -23t-2 -18t1.5 -17q2 -10 1 -16t-3.5 -8.5t-5.5 -3.5t-6 -1h-2l2 -4q1 -2 7.5 -6t16.5 1zM364 132q1 -4 2 -7t2 -3q7 -5 10 -2v3l-6 14q-3 1 -6 5
q-2 3 -4 6.5t-4 8.5v-3v-9q0 -6 2 -12l2 -8v1l2 9v-3zM348 133q1 6 1.5 12t-0.5 9v3q-1 -4 -3 -8t-4 -6l-4 -3q-1 -2 -2 -2l-1 -1l-6 -14q-1 -4 4 -3q4 0 6 2l4 13l2 -9h1q1 3 2 7zM665 520l-1 9h-3q-20 -4 -35 -15l-9 -8q36 -12 58 -34zM718 529l-3 -3l-1 -4l-12 -76l-6 59
l2 7l-2 4l-1 3h-7l-2 -3l-1 -4l1 -6l-4 -41l6 -12l1 -1v-2q3 -13 -3 -80t-11 -106q-1 -6 -2 -11q-2 -11 -11 -18l8 -59l3 -20q4 1 8 4l5 11l1 14l3 35l3 -37l1 -12q2 -8 5 -11q1 -1 3 -2v-1l4 -1l3 20l11 82l5 1l3 20l4 26l1 3q4 4 6 12v1v1l0.5 1.5t0.5 2.5v4v4q0 3 0.5 6
t0.5 6q0 2 0.5 5t0.5 5v6v6l5 90v1l1 1l2 4q5 8 0 -114v-9q1 -1 3 -1t4.5 0.5t5 2t5.5 2.5q0 1 1 2v6q4 33 5.5 76.5t-3.5 63.5q-1 8 -15 21q-9 8 -18.5 12.5t-19.5 2.5zM751 321l1 2l1 -4q0 -2 0.5 -3.5t2 -2.5t3.5 -1q3 0 5 6.5t3 12.5l1 6l-17 -4q-3 -1 -5 -18q0 -2 1 -2
zM649 531q5 2 8.5 3.5t4.5 1.5l1 1q-1 1 -1.5 4.5t-2 13t-1.5 18.5q8 -28 21 -37q5 -4 11 -4q8 0 15 5q15 11 19 41v-13q0 -6 -0.5 -11t-1 -9t-0.5 -6l-1 -2q3 -1 14 -6q11 -4 16.5 -2t7.5 7l2 4q-1 1 -6 0t-9 6.5t-1 22.5q1 9 1.5 16.5t-2 18t-7.5 22.5q-7 16 -20 21t-26 4
h-1q4 2 9 4q-19 1 -36 -10q-4 -3 -9 -8l-2 -2h1q-3 -4 -6 -9q-13 -28 -8 -57q3 -15 -1 -22.5t-10 -6.5h-5q0 -2 1.5 -4.5t8 -6.5t16.5 2zM700 144l4 -11q9 -4 10 2l-6 14q-3 1 -6 5q-5 5 -8 15q-2 -11 2 -24l2 -8v1l2 8v-2zM684 145q0 2 0.5 5t0.5 5t0.5 4.5t0 4t-0.5 2.5v2
v1q-1 -5 -3 -8.5t-4 -5.5l-4 -3l-2 -3h-1q-4 -8 -6 -14q-1 -4 4 -4l6 2l4 13l2 -8q1 1 1 0q0 1 2 7zM619 216q2 1 2.5 3t1.5 3v1q0 5 2 2q1 0 1 -2v-1q0 -5 2.5 -7.5t7.5 -1.5q4 0 6.5 3.5t4.5 8.5v3l3 14l-27 -5q-3 0 -4.5 -5.5t-2.5 -14.5q0 -3 1 -3t2 2zM418 221q0 1 1 1
v1q1 4 2 2l1 -2v-1l1 -3q5 -10 6 -5v2q-1 4 -1 7t-1 6.5t-2.5 5.5t-2.5 2l-27 5q0 -7 2 -15q1 0 1 -1v-1q1 -2 2 -4.5t2.5 -4.5t3 -3t3.5 -1q4 0 6 1t2.5 3t0.5 5zM427 247q-2 22 -5 95.5t-1 71.5q1 -1 2.5 -2t2.5 -2l5 -83q2 -22 4 -43.5t3 -31t1 -11.5v-1q3 -8 9 -17
l14 -185l38 1l17 144h1h3h4l19 -145h36l14 182q3 5 5.5 10t4.5 10v1v4q3 27 5 53l7 109h1v1l5 6q2 3 2 -34.5t-1 -79t-2 -52.5q3 -2 7.5 -1.5t10 2t12.5 4.5q5 24 12 106t5 92q-3 10 -36.5 27.5t-61.5 13.5l-6 -3l-21 -96l-9 71l3 8l-5 9h-12l-5 -9l3 -6l-10 -68v-4l-27 99
h-1h-3q-96 -14 -98 -51q-1 -7 1 -46.5t5.5 -83t6.5 -59.5q12 -7 35 -6zM465 589q-5 0 -5 -21v-6q0 -3 0.5 -6t1 -4.5t1.5 -3t2 -1.5q2 0 3 6q4 -17 15 -31.5t22 -22.5t20 -8q7 0 14 3t13.5 8.5t12.5 13t10 18t5 21.5q1 -7 4 -7q1 0 2 3t2 8t1 10q0 21 -5 21q-1 0 -2 -1
q1 4 1 6t-0.5 5.5t-0.5 6.5q-9 -7 -41 9q-5 2 -7 3q4 -1 7 -3q9 -5 17.5 -5t13.5 3t8.5 7t4.5 7l2 4q-2 2 -5 4.5t-13.5 8.5t-21.5 8.5t-29 0.5t-36 -11q-1 -1 -3.5 -2.5t-4.5 -3t-4 -3.5t-4 -3.5t-4 -1.5h14q-12 -7 -10 -30v-5q0 -2 -1 -5zM463 32l-5 -3q-10 -7 -14 -12.5
t7 -8.5q16 -2 32 10q2 3 3 2l1 -2h2q5 0 6 1q1 5 1 9v3v1h-33zM548 19l8 -1l1 2q1 1 3 -2q8 -6 15 -8.5t17 -1.5q11 3 7 8t-14 13l-5 3h-33v-1v-3v-2q0 -2 0.5 -3.5t0.5 -3.5zM248 19q-10 22 -14 50h-10v1v1v2q1 1 1.5 3t1.5 3q0 1 6 10q1 0 2 1q5 7 9 9q3 3 15 11q1 1 3 2
q9 5 14 8q2 1 19 8q8 4 21 8l2 4l2 3v1v1l-2 15q-15 -4 -31 -10q-2 0 -9 -3l-13 -5q-3 -1 -7 -3l-6 -3q-2 -1 -7 -3q-1 -1 -5.5 -3.5t-7 -4.5t-5.5 -4q-5 -3 -13 -11q-1 -2 -1.5 -2.5t-2.5 -1.5q-6 -8 -9 -13q-2 -3 -3.5 -6.5t-2.5 -8.5q-1 -2 -1 -4v-1q0 -2 -1 -3l-17 1
l2 -1l3 -3l5 -5q3 -3 7 -6.5t8.5 -7t10 -7.5t11.5 -7.5t12.5 -7.5t12.5 -7zM655 162l-1 11q-11 1 -16 2h-1l-3 1v-1q-12 1 -18 2l-1 -15q3 -1 8.5 -2t9.5 -1l-1 -4q3 1 9 2q9 -1 14 -2l1 1v0l-1 4q1 0 2 1z" />
    <glyph glyph-name="uniE605" unicode="&#xe605;" 
d="M892 747h-764q-12 0 -24 -5t-20.5 -13.5t-13.5 -20t-5 -24.5v-287q0 -26 18.5 -44.5t44.5 -18.5h255v63h-255v287h764v-287h-191v-63h191q17 0 32 8.5t23.5 23t8.5 31.5v287q0 26 -19 44.5t-45 18.5zM765 238h-127v191q-1 4 -3 10.5t-10 23.5t-17.5 29.5t-27 22.5
t-38.5 10q-12 -1 -22.5 -4.5t-19 -9t-16 -12.5t-12.5 -15t-9.5 -15.5t-7.5 -14.5t-5 -12.5t-3 -9.5v-3v-318l-64 64q-3 0 -8.5 1t-21 1.5t-30 -2t-33.5 -10.5t-34 -22q-24 -22 -32 -53.5t-4 -52.5l4 -21l191 -159q1 1 7 -0.5t12 -2.5t14 2.5t15 12.5q5 7 5.5 15t-3 14.5
t-7.5 11.5t-8 7l-3 3l-159 127q-11 16 1 35t32 28.5t30 0.5q5 -4 44.5 -43.5t76.5 -77.5l38 -38v477h64v-191q0 -22 18 -42.5t41 -20.5h121q45 0 75.5 -25.5t30.5 -70.5v-159q0 -18 16 -26.5t32 -1t16 27.5v159q0 39 -11 68.5t-27.5 46t-39 27t-42 14t-39.5 3.5z" />
    <glyph glyph-name="uniE606" unicode="&#xe606;" 
d="M171 471h85v85h85v85h-85v86h-85v-86h-86v-85h86v-85zM896 556h-171q-1 3 -3.5 9t-11 20.5t-18 26t-23.5 20.5t-29 9h-213q-19 0 -30 -10.5t-12 -21.5l-1 -10v-86h-85v-85h-171v-384q0 -22 10 -32.5t33 -10.5h725q15 0 24.5 4.5t14 14t4.5 24.5v469q0 12 -2.5 20t-8 13
t-13.5 7.5t-19 2.5zM533 87q-39 0 -74.5 15t-61 40.5t-41 61.5t-15.5 75q0 79 56.5 135.5t135.5 56.5q26 0 51 -7t46 -19.5t39 -30t30.5 -38.5t19 -46t6.5 -51q0 -80 -56 -136t-136 -56zM533 279zM384 278.5q0 61.5 44 105.5t105.5 44t105.5 -44t44 -105.5t-44 -105.5
t-105.5 -44t-105.5 44t-44 105.5z" />
    <glyph glyph-name="uniE607" unicode="&#xe607;" 
d="M957 717l1 10q0 9 -5 14q-6 6 -14 6h-11v0h-256q-6 0 -11 -2.5t-7.5 -7.5t-2.5 -10v-15q1 -9 7.5 -15t15.5 -6h188l-224 -222q-46 39 -103.5 60t-120.5 21q-95 0 -175.5 -46.5t-127 -127t-46.5 -175.5t46.5 -175.5t127 -127t175.5 -46.5t175.5 46.5t127 127t46.5 175.5
q0 130 -85 229l224 222v-191q-1 -8 5 -14.5t15 -6.5h14q6 0 10.5 2.5t7.5 6.5t3 9v258v1zM708 201q0 -122 -86 -208t-208 -86t-208 86t-86 208t86 208t208 86t208 -86t86 -208z" />
    <glyph glyph-name="uniE608" unicode="&#xe608;" 
d="M823 -212h-622q-83 0 -142 59t-59 142v622q0 83 59 142t142 59h623q82 0 141 -59t59 -142v-623q0 -82 -59 -141t-142 -59zM201 775q-68 0 -116 -48t-48 -116v-623q0 -67 48 -115t116 -48h623q67 0 115 48t48 115v623q0 68 -48 116t-115 48h-623zM334 468h-137
q-10 0 -18.5 5t-13.5 13.5t-5 18.5q0 16 10.5 26.5t26.5 10.5h137q5 0 10 -1t9 -3.5t7.5 -6t5.5 -7.5t3.5 -9t1.5 -10q0 -15 -11 -26t-26 -11zM265.5 400q-15.5 0 -26.5 10.5t-11 26.5v137q0 15 11 26t26 11q4 0 7 -0.5t6 -2.5l6 -2q3 -2 5.5 -4t4.5 -4.5t3.5 -5t2.5 -5.5
t1.5 -6.5t0.5 -6.5v-137q0 -16 -10.5 -26.5t-26 -10.5zM830 293h-633q-8 0 -13.5 5t-5.5 13t5.5 13.5t13.5 5.5h633q8 0 13.5 -5.5t5.5 -13.5q0 -5 -2.5 -9t-7 -6.5t-9.5 -2.5zM830 164h-633q-8 0 -13.5 5.5t-5.5 13.5q0 5 2.5 9t7 6.5t9.5 2.5h633q8 0 13.5 -5.5t5.5 -12.5
q0 -5 -2.5 -9.5t-7 -7t-9.5 -2.5zM830 36h-633q-8 0 -13.5 5.5t-5.5 12.5q0 3 1 6t2.5 5t4 4t5.5 3t6 1h633q8 0 13.5 -5.5t5.5 -13t-5.5 -13t-13.5 -5.5z" />
    <glyph glyph-name="uniE60A" unicode="&#xe60a;" horiz-adv-x="1025" 
d="M736 669q79 0 135.5 -54t56.5 -131t-33 -154t-79.5 -133.5t-109 -111t-106.5 -84.5t-88 -56q-203 118 -315 267q-101 136 -101 272q0 50 25.5 92.5t70 67.5t96.5 25q17 0 34 -3t33 -9t30.5 -14t27.5 -19t24 -24q14 -16 34.5 -25t40.5 -9q11 0 21.5 2t20 6.5t18 11
t15.5 14.5q27 33 66 51t83 18zM736 761q-44 0 -86 -13t-76.5 -35.5t-61.5 -54.5q-40 48 -98.5 75.5t-125.5 27.5q-78 0 -144.5 -37t-105 -101t-38.5 -139q0 -59 15.5 -118t41.5 -108.5t62 -97.5t73.5 -86.5t80 -74t78.5 -61t71 -47.5t55.5 -33.5t34.5 -18.5q20 10 49 26.5
t80 50.5t100 73.5t101.5 95.5t91.5 115.5t64.5 134t25.5 149.5q0 115 -84.5 196t-203.5 81z" />
    <glyph glyph-name="uniE60B" unicode="&#xe60b;" 
d="M607 258q-5 0 -9 1t-8 3.5t-7 6t-5 7.5q-6 12 -1.5 24.5t16.5 18.5q51 25 80.5 72.5t29.5 103.5q0 54 -26.5 99t-72 71.5t-98.5 26.5q-81 0 -138.5 -57.5t-57.5 -139.5q0 -56 29.5 -103.5t80.5 -72.5q11 -6 15.5 -18.5t-1.5 -24.5q-4 -8 -11 -12.5t-15 -5t-17 2.5
q-67 33 -106 96t-39 138q0 108 76 184.5t184 76.5t184.5 -76.5t76.5 -184.5q0 -75 -39.5 -138t-106.5 -96q-7 -3 -14 -3zM406 194q-9 0 -16.5 4t-11.5 11.5t-4 16.5v61q0 13 9 22.5t23 9.5q6 0 12 -2.5t10 -6.5t7 -10t3 -13v-61q0 -14 -9.5 -23t-22.5 -9zM606.5 194
q-8.5 0 -16 4t-11.5 11.5t-4 16.5v61q0 13 9 22.5t23 9.5q4 0 8 -1t7.5 -3t6.5 -5t5 -6.5t3.5 -7.5t1.5 -9v-61q0 -9 -4.5 -16.5t-12 -11.5t-16 -4zM506 -143q-109 0 -198 25.5t-139.5 71t-50.5 100.5q0 45 34.5 84t99 66.5t149.5 38.5q9 2 17 -1.5t13 -10t6 -15.5
q2 -13 -6 -23.5t-21 -12.5q-98 -13 -163 -49t-65 -77q0 -24 24 -47.5t65.5 -42.5t103.5 -31t131 -12q111 0 200 30q5 2 10.5 2t10 -1.5t8.5 -4.5t7 -7t5 -9q2 -8 0.5 -16.5t-7 -15t-13.5 -8.5q-99 -34 -221 -34zM837 -40q-12 1 -21 8q-10 9 -11 22t8 23.5t13.5 20.5t4.5 20
q0 32 -44 63t-115 50q-32 8 -70 13q-13 2 -21 12.5t-6 23.5t12.5 21t23.5 6q13 -1 26.5 -3.5t26 -5t24.5 -5.5q64 -17 110.5 -43.5t71.5 -60t25 -71.5q0 -44 -34 -83q-10 -11 -24 -11z" />
    <glyph glyph-name="uniE60D" unicode="&#xe60d;" 
d="M803 -212h-659q-46 0 -78 32t-32 78v733q0 46 32 78t78 32h513q22 0 31 -18.5t0 -36.5t-31 -18h-513q-15 0 -26 -11t-11 -26v-733q0 -15 11 -26t26 -11h659q15 0 26 11t11 26v586q0 23 18.5 32t36.5 0t18 -32v-586q0 -46 -32 -78t-78 -32zM562 385q-23 26 0 52l364 365
q11 10 26 10t27 -10q19 -21 5 -45l-5 -8l-364 -364q-8 -7 -17.5 -9.5t-19 0t-16.5 9.5zM437 374h-220q-13 0 -22 8t-11.5 18.5t0 21.5t11.5 18.5t22 7.5h220h2h2l2 -1q25 -3 29 -30q4 -28 -19 -39l-1 -1h-1h-1v-1h-1h-1h-1l-1 -1h-1h-1h-1h-1h-1h-1l-1 -1h-2zM657 155h-440
q-22 0 -31 18t0 36.5t31 18.5h440q22 0 31 -18.5t0 -36.5t-31 -18z" />
    <glyph glyph-name="uniE60E" unicode="&#xe60e;" 
d="M783 697q-149 50 -306.5 50t-305.5 -49q-24 -8 -43 -25t-29.5 -40.5t-10.5 -47.5v-356q0 -35 17 -79.5t43 -72.5q117 -120 190 -172t139 -52t138.5 52t190.5 173q17 18 31 46t21.5 55.5t7.5 49.5v356q0 36 -24 69t-59 43zM815 229q0 -16 -6 -38t-16.5 -43.5t-23.5 -35.5
q-109 -112 -174 -160.5t-118 -48.5t-118 48.5t-175 160.5q-12 13 -23 35t-17 44t-6 38v356q0 20 14 39.5t34 25.5q143 47 291 47q73 0 146 -12t144 -35q20 -6 34 -25.5t14 -39.5v-356zM758 622q-138 46 -281 46q-48 0 -95.5 -5t-94 -15.5t-92.5 -25.5q-11 -3 -19.5 -15
t-8.5 -22v-356q0 -20 11.5 -50.5t26.5 -45.5q103 -106 164.5 -153.5t107 -47.5t107.5 47.5t164 152.5q15 16 26.5 46.5t12.5 50.5v356q0 5 -2.5 10.5t-6.5 11t-9 9.5t-11 6zM720 229l-22 -54q-22 -22 -115 -99.5t-106 -77.5q-49 0 -225 181q-3 4 -7.5 13.5t-8 20.5t-3.5 17
v335q116 36 237 37l63 -2q3 -1 8 -1q9 -1 23 -3.5t30 -5.5t33 -6t33 -6.5t29 -6t21.5 -4t9.5 -2.5v-336zM338 311q-2 0 -33 -16q-5 22 -16 49q26 5 49 14v66l-46 -1v44l46 -1q0 43 -2 76h48q-1 -17 -1 -36v-40l30 1v-44q-8 0 -15.5 0.5t-14.5 0.5v-49q15 7 30 15
q-2 -17 -2 -48q-5 -2 -9 -3l-19 -9v-124q-1 -13 -12 -20q-18 -9 -57 -11q-3 28 -12 50q12 -2 18 -2q18 0 18 14v74zM619 339q-21 -46 -58 -87q43 -28 99 -33q-18 -35 -22 -47q-60 14 -111 50q-51 -34 -108 -48q-2 6 -4.5 12t-5.5 12t-6.5 11.5t-7.5 10.5q51 3 96 32
q-18 21 -37 52q14 6 32 17q-5 0 -16 -0.5t-17 -0.5v28h-32v81l36 -1q-4 8 -10 17.5t-13 21.5q13 5 27 15q-5 0 -10.5 -0.5t-10.5 -1t-10 -0.5q-4 15 -18 46q122 -9 206 19q5 -8 11.5 -17t14.5 -19l7 -9q-3 -1 -6 -1.5t-5.5 -1t-5.5 -0.5t-6 -0.5t-5.5 -1t-5.5 -1t-6 -0.5
t-5.5 -0.5t-5.5 -0.5q7 -4 17 -8t23 -9l-11 -22l-13 -26l39 1q-2 -30 0 -82h-43zM602 360l7 -10v37h-142v-27h135zM500 439q-5 -2 -9.5 -5t-7.5 -6h42q-3 9 -7 17.5t-7.5 16.5t-7.5 16l18 8l-49 -4zM494 321q18 -29 32 -42q24 27 31 42h-63zM593 428l-20 9q15 22 25 55
l-55 -5q4 -6 23 -46q-21 -8 -28 -13h55z" />
    <glyph glyph-name="uniE610" unicode="&#xe610;" 
d="M498 714h27h1q1 0 9 -0.5t12 -0.5q24 -2 47 -7q58 -12 111 -39q28 -15 53 -33t47 -40t41 -47q43 -57 64 -124q19 -60 20 -120v-2v-12v-2q0 -9 -0.5 -18t-1.5 -18q-1 -6 -1.5 -11t-1.5 -10l-2 -12l-2 -10q-6 -28 -15.5 -54.5t-22.5 -51.5q-32 -62 -83 -110
q-46 -43 -102 -72q-28 -14 -58 -23q-13 -5 -26.5 -8t-26.5 -5.5t-27 -4.5q-11 -1 -21 -1.5t-20 -0.5l-2 -1h-12l-2 1h-8h-11q-29 2 -57 8q-58 12 -110 39q-63 33 -112 86q-44 47 -72 104q-36 77 -40 161l-1 7v27v1l1 4q0 3 0.5 7t0.5 7.5t0.5 7.5t0.5 7q3 26 10 53
q12 49 35 94q33 61 83 110q28 26 60 47q15 9 30 17.5t31 15t33 12.5q31 11 61 16q15 2 32 4q4 1 8.5 1t10 0.5t8.5 0.5h1zM511 -103q108 0 200 53t145 144t54 198q0 108 -52.5 200t-143 146t-197.5 56q-66 0 -127 -19.5t-110.5 -55.5t-87 -85t-58 -109t-21.5 -125
q-1 -109 51.5 -202t145 -147t201.5 -54zM526 388l-4 -4l-4 -4l3 -3q2 -2 5 -4q19 -17 44 -33t52.5 -29.5t57.5 -24.5t58 -17q-4 -6 -5.5 -9t-3.5 -6.5t-3.5 -7t-3.5 -8.5q-29 9 -54 19.5t-53 24.5v-20q-11 1 -23.5 2t-25.5 1h-109q-29 0 -49 -3v29q-39 -24 -106 -51
q-8 18 -19 28q35 10 65 23.5t59 32.5q51 32 92 81zM371 439q-13 -21 -25 -37.5t-29 -34.5q-4 5 -8 8.5t-7.5 6.5t-8.5 5q59 55 80 129l32 -8q-10 -23 -19 -42h71q30 0 48 3v-32q-17 2 -46 2h-28q15 -28 27 -58l-29 -10q-4 14 -7 23t-7 19t-12 26h-32zM398 72h-34q3 23 3 48
v60q0 17 -0.5 27t-2.5 19q19 -2 47 -2h204q29 0 47 2q-3 -15 -3 -46v-60q0 -14 1 -25.5t2 -22.5h-33v25h-231v-25zM398 124h231v74h-231v-74zM566 292h11h9q4 0 8 1q-19 10 -36 21.5t-32 22.5t-27 23q-14 -14 -26.5 -24t-26.5 -20t-33 -22q8 -1 19 -1.5t25 -0.5h109z
M552 440q-11 -22 -30 -45q-3 2 -5 3l-4 4q-2 1 -5 2l-4 4q-3 1 -7 3q21 25 32 46t23 59l30 -7q-5 -15 -17 -43h114q31 0 51 3v-32q-24 3 -51 3h-54q10 -16 17 -28.5t16 -31.5l-28 -11q-8 22 -14 34.5t-21 36.5h-43z" />
    <glyph glyph-name="uniE611" unicode="&#xe611;" 
d="M0 395v-192q0 -26 19 -45t45 -19h64v320h-64q-17 0 -32 -8.5t-23.5 -23.5t-8.5 -32zM844 519v-66q51 -15 83.5 -57.5t32.5 -96.5q0 -36 -15 -68t-41.5 -54t-59.5 -32v-66q78 16 129 77.5t51 142.5q0 53 -23.5 100t-64.5 78.5t-92 41.5zM704 456v-67q28 -11 46 -35t18 -55
t-18 -55t-46 -35v-67q55 11 91.5 55t36.5 102t-36.5 102t-91.5 55zM192 139l448 -192v704l-448 -192v-320z" />
    <glyph glyph-name="uniE614" unicode="&#xe614;" 
d="M693 565q-2 16 -10 30t-19.5 24.5t-27 16.5t-32.5 6h-106h-92q-11 0 -22 -3t-20 -8t-17 -12t-14 -15.5t-10.5 -18.5t-5.5 -20q-1 -3 -1 -5v-4v-183v-120q0 -16 10.5 -27.5t24.5 -11.5q10 0 18.5 5.5t13 14.5t4.5 19v47v227h15v-682q0 -10 3.5 -19.5t9.5 -16.5t14.5 -11
t18.5 -4q13 0 23.5 7t16.5 18.5t6 25.5v347h22v-347q0 -21 13.5 -36t32.5 -15t32.5 15t13.5 36v683h15v-274q0 -11 4.5 -20t13 -14.5t17.5 -5.5q15 0 25.5 11.5t10.5 28.5v302q0 4 -1 9zM502 667q30 0 51.5 21t21.5 51q0 20 -10 37t-26.5 26.5t-36 9.5t-36.5 -9.5
t-26.5 -26.5t-9.5 -37q0 -30 21 -51t51 -21z" />
    <glyph glyph-name="uniE615" unicode="&#xe615;" 
d="M518 684zM454 684q0 27 19 46t45.5 19t45 -19t18.5 -45.5t-18.5 -45.5t-45.5 -19q-17 0 -32 8.5t-23.5 23.5t-8.5 32zM706 291l-43 243q-4 29 -25.5 49t-51.5 20h-76h-3h-69q-30 0 -51.5 -20t-25.5 -49l-24 -137l-19 -106q-2 -15 5.5 -27t21 -14t24.5 6.5t14 23.5l8 49
l31 175h16l-34 -187l-30 -168h63v-266q0 -13 9 -22.5t22 -9.5q5 0 9 1.5t7.5 3.5t6.5 4.5t5 6t3 8t1 8.5v266h7h3h10v-265q0 -6 1.5 -10.5t4.5 -8.5t6.5 -7t8.5 -4.5t10 -1.5q9 0 16 4t11.5 11.5t4.5 16.5v265h67l-11 59l-53 296h16l39 -224q3 -15 14 -23.5t25 -6.5
q8 2 14.5 8t9.5 14.5t2 18.5z" />
    <glyph glyph-name="uniE617" unicode="&#xe617;" 
d="M106 -158q-14 0 -26 9q-6 4 -9.5 9.5t-5.5 12t-2 13.5v763q0 15 9 27t23 16l271 72h1l4 1q4 1 6 1q1 0 4 -1q4 0 6 -1h1l259 -69l259 69q3 1 6 1.5t5 0.5q15 0 27 -9q17 -14 17 -35v-763q0 -10 -4 -19t-11.5 -15t-16.5 -9l-271 -72l-2 -1q-4 -1 -8 -1h-1h-1q-2 0 -4 0.5
t-4 0.5t-3 1l-258 69l-259 -69q-6 -2 -12 -2zM691 -57l183 49v673l-183 -49v-673zM603 -57v673l-183 49v-673zM150 -57l183 49v673l-183 -49v-673z" />
    <glyph glyph-name="uniE618" unicode="&#xe618;" 
d="M65 748h238v-238h-238v238zM395 748h238v-238h-238v238zM719 748h239v-238h-239v238zM65 410h238v-238h-238v238zM395 410h238v-238h-238v238zM719 410h239v-238h-239v238zM65 89h238v-238h-238v238zM395 89h238v-238h-238v238zM719 89h239v-238h-239v238z" />
    <glyph glyph-name="uniE619" unicode="&#xe619;" 
d="M65 619h894v-149h-894v149zM63 371h894v-149h-894v149zM63 98h894v-149h-894v149zM63 98z" />
    <glyph glyph-name="uniE61A" unicode="&#xe61a;" 
d="M420 -44l-360 348l90 93l264 -254l454 501l96 -87z" />
    <glyph glyph-name="uniE61B" unicode="&#xe61b;" 
d="M630 651q0 -10 -2 -20.5t-5.5 -20t-8.5 -18.5t-11.5 -16.5t-14.5 -14t-16.5 -11.5t-18 -9t-20 -5.5t-21.5 -1.5q-49 0 -83.5 34.5t-34.5 83t34.5 83t83.5 34.5t83.5 -34.5t34.5 -83.5zM762 442q44 1 75 31q31 31 31 75t-31 75t-75 31t-75 -31t-31 -75t31 -75t75 -31z
M866 392q-39 0 -67 -27.5t-28 -66.5t28 -67t67 -28t66.5 28t27.5 67t-27.5 66.5t-66.5 27.5zM762 130q-16 0 -31 -6t-27 -18q-24 -24 -24 -58t24 -58.5t58 -24.5q16 0 31.5 6.5t27.5 18.5q15 15 21 36.5t0 42.5t-21 37q-25 24 -59 24zM512 15q-19 0 -35.5 -9.5t-26 -26
t-9.5 -35.5q0 -29 21 -50t50 -21t50 21t21 50t-21 50t-50 21zM262 107q-24 0 -42 -18q-11 -11 -15 -26t0 -30.5t15 -26.5q17 -17 42 -17q11 0 22 4t20 13q11 11 15 26.5t0 30.5t-15 26q-18 18 -42 18zM158 345q-13 0 -23.5 -6.5t-17 -17t-6.5 -23.5q0 -20 14 -33.5
t33.5 -13.5t33 13.5t13.5 33t-13.5 33.5t-33.5 14zM262 512q1 0 4 1l2 1q12 2 19 9q10 10 10 24.5t-10.5 25t-24.5 10.5q-7 0 -13.5 -2.5t-11.5 -7.5q-11 -10 -11 -25t11 -25q5 -5 11.5 -8t13.5 -3z" />
    <glyph glyph-name="uniE61C" unicode="&#xe61c;" 
d="M513 747q73 0 141.5 -22.5t123.5 -64t96.5 -96.5t64 -123.5t21.5 -141.5q0 -92 -35.5 -174.5t-95.5 -142.5t-143.5 -95t-176.5 -35q-90 1 -173 36.5t-142.5 95.5t-94.5 143t-35 173q0 92 35.5 174.5t95.5 142.5t143 95t175 35zM510 220q12 -12 13 -12l26 -26l27 -27
l26 -27l27 -26q14 -14 22 -14t23 14q6 6 17 17.5t14 14.5q8 7 11.5 11t5.5 8.5t2 7t-2 7.5t-6 9l-11 11l-35 35q-18 18 -42.5 42t-35.5 36q106 104 119 117t13 21t-14 22l-36 36q-8 8 -13 11t-10 3t-10 -3.5t-13 -11.5q-19 -18 -54 -52l-40 -41q-3 -4 -6.5 -7.5t-8.5 -8
t-8 -7.5q-104 106 -117 119q-21 22 -42 0q-3 -4 -6 -7l-8 -8q-4 -4 -7.5 -7t-7.5 -7t-7 -8q-7 -6 -10.5 -10.5t-5 -8.5t0.5 -8.5t5 -8.5t10 -11l115 -115q-8 -8 -8 -9l-27 -27l-28 -28l-27 -27q-15 -15 -28 -27q-22 -22 -1 -42q1 0 36 -34q12 -13 18.5 -16t13 0t18.5 15
q9 10 112 115z" />
    <glyph glyph-name="uniE61D" unicode="&#xe61d;" 
d="M937 683l-183 42q-6 2 -11 -1l-219 -100l-201 84q-3 2 -7 2t-7 -2l-211 -82q-6 -2 -9 -6.5t-3 -10.5v-580q0 -2 0.5 -4t1 -3.5t1.5 -3t2.5 -2.5t2.5 -2q8 -6 17 -2l205 80l202 -85q3 -1 7 -1t7 2l30 13q47 -94 114 -196q2 -4 6.5 -6t8.5 -2q10 0 15 8q100 151 144 261
l78 -18q9 -2 16 3q7 6 7 14v581q0 14 -14 17zM691 -131q-54 85 -100 175.5t-46 132.5q0 60 43 103t103 43q40 0 73.5 -19.5t53.5 -53.5t20 -73q0 -42 -46.5 -132.5t-100.5 -175.5zM914 108l-51 12q11 35 11 57q0 49 -24.5 91.5t-66.5 67t-92 24.5q-76 0 -129.5 -54
t-53.5 -129q0 -41 38 -123l-22 -10l-201 84l-7 2q-2 0 -3.5 -0.5t-3.5 -1.5l-186 -72v540l193 76l202 -85q7 -3 14 1l220 100l162 -37v-543zM316 598q-8 0 -13.5 -5.5t-5.5 -12.5v-368q0 -5 2.5 -9.5t7 -7t9.5 -2.5q3 0 6.5 1.5t6 4t4 6t1.5 7.5v368q0 3 -1 5.5t-2.5 5t-4 4
t-5 2.5t-5.5 1zM524.5 527q-7.5 0 -13 -5.5t-5.5 -12.5v-141q0 -5 2.5 -9t7 -6.5t9.5 -2.5q3 0 6.5 1.5t6 4t4 5.5t1.5 7v141q0 7 -5.5 12.5t-13 5.5zM736 606v-186q0 -8 5.5 -13t12.5 -5q4 0 7.5 1t6 3.5t4 6t1.5 7.5v186q0 8 -5.5 13t-13.5 5q-5 0 -9 -2.5t-6.5 -6.5
t-2.5 -9zM691 266q-28 0 -48 -20t-20 -48q0 -6 1 -11.5t2.5 -10.5t4 -9.5t5.5 -9t7 -8t8 -6.5t9 -5.5t10 -4.5t10.5 -2.5t10.5 -0.5q14 0 26.5 5t22 14.5t15 22t5.5 26.5q0 41 -37 60q-15 8 -32 8zM691.5 166q-8.5 0 -16 4.5t-12 11.5t-4.5 16q0 13 9.5 22.5t22.5 9.5
q9 0 16 -4.5t11.5 -11.5t4.5 -16t-4.5 -16t-11.5 -11.5t-15.5 -4.5z" />
    <glyph glyph-name="uniE620" unicode="&#xe620;" 
d="M768 384v224h-128v-96l-128 128l-352 -352h64v-352h192v288h192v-288h192v352h64zM448 -64h128v256h-128v-256zM576 192h-128v-256h128v256zM914 -38q0 -44 -38 -66q-18 -10 -38 -10h-652q-20 0 -38 10t-28 27.5t-10 38.5v313h-78v-313q0 -31 12 -59.5t33 -49.5t49.5 -33
t59.5 -12h652q64 0 109 45t45 109v313h-78v-313zM838 768h-652q-64 0 -109 -45t-45 -109v-313h78v313q0 31 22.5 53.5t53.5 22.5h652q21 0 38.5 -10t27.5 -28t10 -38v-313h78v313q0 64 -45 109t-109 45z" />
    <glyph glyph-name="uniE621" unicode="&#xe621;" 
d="M151 663q120 119 288 144q51 7 101.5 4t98.5 -15t93.5 -34t86.5 -52q82 -62 133.5 -149t66.5 -188q15 -103 -12 -202.5t-85 -177.5t-146 -131.5t-191 -68.5q-88 -12 -175.5 5.5t-162.5 63.5q-13 8 -17 22.5t4 27.5t23 17t28 -4q134 -82 289 -59q118 16 210 89t135.5 181
t26.5 226q-12 87 -56.5 161.5t-114.5 127.5q-47 35 -100.5 56.5t-110 28t-114.5 -1.5q-118 -17 -210 -89.5t-135.5 -181t-26.5 -226.5q13 -94 64 -174q9 -12 5.5 -27t-15.5 -23q-9 -6 -18.5 -6t-18.5 4t-14 13q-60 93 -76 203q-7 51 -4 101.5t15 98.5t34 93.5t52 86.5
q23 30 49 56zM151 663zM805 529q-10 9 -25.5 10t-27.5 -10l-319 -337l-161 156q-10 9 -25 9.5t-27 -11.5q-10 -11 -10.5 -26.5t9.5 -24.5l193 -183v-1h1q1 -1 6 -4l1 -1l2 -1q3 -1 6 -1.5t6 -0.5q6 0 12 2l1 1q1 1 2 1q5 4 7 5v0l353 362q7 10 8.5 21t-2 19t-10.5 15z
M805 529z" />
    <glyph glyph-name="uniE623" unicode="&#xe623;" horiz-adv-x="1028" 
d="M419 35q-90 0 -154 63.5t-64 153.5q0 36 11 69t31.5 59.5t47 47t59.5 31t69 10.5q90 0 153.5 -63.5t63.5 -153.5t-63.5 -153.5t-153.5 -63.5zM419 400q-14 0 -27 -2.5t-25 -7t-23 -11t-20.5 -14.5t-17.5 -17.5t-14.5 -20.5t-11 -23t-7 -25t-2.5 -27q0 -61 43.5 -104
t104.5 -43t104 43t43 104t-43 104.5t-104 43.5zM653 538l50 -49l-132 -132l-49 49zM725 362h-70v133h-134v70h204v-203z" />
    <glyph glyph-name="uniE624" unicode="&#xe624;" 
d="M492 85l-26 -39q-1 -2 -2 -4.5t-2.5 -9.5t-0.5 -13.5t7 -14t17 -12.5q28 -12 51 -27.5t38 -30t24 -25.5t17.5 -23.5t10.5 -15.5q11 -14 27.5 -13.5t24.5 17.5q7 13 25 56t36 78t48 82.5t75 95t101 89.5q-66 -24 -123 -61t-90 -72.5t-56.5 -67.5t-32.5 -52l-9 -19
q-2 3 -5.5 7.5t-14 17.5t-21.5 24t-26.5 23t-30.5 18q-13 5 -24 6t-17.5 -1t-11.5 -5t-7 -6zM456 -71q-45 21 -59 64q-15 44 8 86q1 1 1.5 2.5t1.5 3.5l27 38q12 19 35.5 32.5t54.5 13.5q4 0 7.5 -0.5t7.5 -0.5l8 -2q4 0 8 -1l8 -2q4 -1 8 -2.5t8 -3.5q31 -12 60 -37
q16 20 37 45q-10 5 -21 11l-20 10q-11 6 -22.5 10.5t-22.5 9.5l-22 8q-11 5 -22 8q-3 1 -6.5 3t-8.5 8t-7.5 14.5t-2 23t6.5 32.5q40 43 64.5 106.5t24.5 130.5q0 99 -53.5 154t-135.5 55t-135 -55t-53 -154q0 -67 24 -131t65 -106q6 -16 6.5 -30t-3 -22.5t-9.5 -15
t-10.5 -9t-7.5 -4.5q-147 -53 -209 -122q-29 -34 -29 -63v-28q0 -121 362 -121q15 0 29.5 0.5t29.5 1t30 1.5q-26 22 -63 38z" />
    <glyph glyph-name="uniE625" unicode="&#xe625;" 
d="M512 780q-98 0 -186.5 -38t-152.5 -102.5t-102 -153t-38 -186t38 -186.5t102 -153.5t152.5 -102t186.5 -37.5t186.5 37.5t153 102t102.5 153.5t38 186q0 78 -24.5 151.5t-69 132t-103.5 103t-132 69t-151 24.5zM516 -59q-98 0 -181 48.5t-131.5 131.5t-48.5 181.5
t48.5 181.5t131.5 131.5t181 48.5q49 0 96 -13t86.5 -36.5t73 -56.5t57 -73t36.5 -86.5t13 -95.5q0 -37 -7.5 -73t-21 -68t-33.5 -61.5t-44.5 -53.5t-53.5 -44t-61 -33.5t-68 -21t-73 -7.5zM558 362h-85q-4 0 -8.5 -2.5t-6.5 -6.5t-2 -9v-263q0 -5 2 -9t6.5 -6.5t8.5 -2.5
h85q7 0 12 5t5 13v263q0 7 -5 12.5t-12 5.5zM558 541h-84q-7 0 -12 -5t-5 -12v-84q0 -7 5 -12t12 -5h84q4 0 8 2.5t6.5 6.5t2.5 8v84q0 7 -5 12t-12 5z" />
    <glyph glyph-name="uniE627" unicode="&#xe627;" 
d="M512 300zM161 300q0 95 47 176t128 128t176.5 47t176 -47t127.5 -128t47 -176t-47 -176t-127.5 -128t-176 -47t-176.5 47t-128 128t-47 176z" />
    <glyph glyph-name="uniE628" unicode="&#xe628;" 
d="M297 463.5q0 -24.5 -17 -42t-42 -17.5q-16 0 -29.5 8t-21.5 21.5t-8 29.5q0 25 17.5 42t42 17t41.5 -17t17 -41.5zM85 40l-21 20l243 251l165 -163l247 321l239 -314l-23 -17l-216 283l-244 -316l-168 165zM961 -35h-901v670h901v-670zM89 -6h843v612h-843v-612z" />
    <glyph glyph-name="uniE62A" unicode="&#xe62a;" 
d="M865 748h-708q-39 0 -66 -27.5t-27 -65.5v-708q0 -26 12.5 -47.5t34 -33.5t46.5 -12h708q25 0 46.5 12t34 33.5t12.5 47.5v708q0 38 -27 65.5t-66 27.5zM752 421l-302 -302q-5 -5 -11.5 -4.5t-11.5 5.5l-21 20l-135 136q-3 3 -4.5 7.5t0 9t4.5 8.5l37 37q5 5 12 5t12 -5
l107 -107l252 252q4 4 11 3.5t12 -5.5l37 -37q12 -12 1 -23z" />
    <glyph glyph-name="uniE62B" unicode="&#xe62b;" 
d="M693 91l-34 -24q-8 -5 -17.5 -8.5t-18.5 -3.5q192 -83 263 -141h-376h-376q18 14 44 30t52.5 30.5t57 29.5t54.5 25.5t46.5 20.5t32.5 14t13 6q18 7 19.5 26t-15.5 29q-30 17 -54 45.5t-38.5 64t-17.5 71.5q0 12 -9 20.5t-21 8.5h-1q-10 0 -10 13q0 9 7 12
q10 5 14.5 15.5t1.5 21.5q-6 18 -9 36t-3 37q0 92 61.5 158t148.5 66h1h1h2h1q14 0 29 -3v22q0 10 2 20t7 19q-21 3 -38 3h-1h-2h-1h-1q-55 0 -105.5 -22.5t-86.5 -61t-57.5 -91t-21.5 -110.5q0 -18 2 -36t6 -35q-20 -22 -20 -51q0 -23 12.5 -42t32.5 -27q16 -103 92 -174
q-217 -94 -284 -159q-10 -9 -10 -22v-41q0 -12 9 -21t22 -9h411h412q12 0 21 9t9 21v41q0 4 -1 8t-3 7.5t-5 6.5q-61 59 -250 145zM673 539q7 21 26 34q9 8 20.5 11.5t23.5 3.5q8 0 17 -2q40 -9 53 -47l34 -96l36 -1v271q0 4 -1 8t-3 7.5t-5 6.5t-6.5 5t-7.5 3t-8 1h-218
q-13 0 -22 -9t-9 -22v-41v-230l36 1zM960 371q-2 9 -12 9l-65 1l-80 2l-21 59l-27 76q-3 9 -12 9q-4 0 -7.5 -2.5t-4.5 -6.5l-9 -26l-39 -109l-80 -2l-65 -1q-9 0 -12 -9q-1 -4 0 -8t4 -7l76 -56l25 -19l15 -11l-39 -129l-3 -9q-1 -4 0 -8t5 -6q1 -1 3 -2h2l2 -1h1l1 1h1h1
l4 2l94 64l25 18l119 -82l8 -3q4 0 7 3q8 5 5 14l-42 138l15 11l26 19l75 56q2 2 3.5 4.5t1.5 5t-1 5.5z" />
    <glyph glyph-name="uniE62E" unicode="&#xe62e;" 
d="M502 -36h-360q-12 0 -21 1t-16.5 2.5t-13 4.5t-10 7.5t-7.5 9.5t-5 12.5t-3 16.5t-1 20v274q0 214 -1 275q0 29 11 40t40 11q306 -2 685 -1q28 1 39 -8.5t11 -36.5q-1 -51 8 -60.5t58 -9.5q14 0 22.5 -3t13 -9.5t6.5 -15t1 -20.5v-209v-209q0 -24 -5.5 -41t-17 -28.5
t-29 -17t-41.5 -5.5h-364zM111 18q26 -4 27 -4q580 -1 627 -1q26 0 33.5 12t7.5 37v114v126v110q0 67 1 122q0 32 -12.5 43t-44.5 11q-49 -1 -588 -1q-2 0 -51 -3v-566zM312 80q-8 0 -20 -0.5t-21 -0.5h-19q-11 0 -21.5 0.5t-19.5 2.5q-10 1 -21.5 12.5t-12.5 20.5
q-1 29 -1.5 67t0 68t-0.5 68q0 7 1 12.5t3 9.5t5 7t7.5 4.5t10 2.5t12.5 1q102 -2 198 0q14 0 22.5 -3.5t12 -12t3.5 -21.5q-1 -36 -1 -67v-66q0 -35 1 -66q0 -23 -9.5 -31.5t-31.5 -7.5h-97zM454 422q-199 0 -238 1q-6 0 -12.5 3.5t-14.5 9.5l-12 9q4 2 11.5 8t14 9t11.5 3
q242 2 481 0q4 0 9 -2.5t9 -5t9.5 -7t9.5 -6.5q-5 -2 -13 -8t-14.5 -9.5t-12.5 -3.5q-39 -1 -238 -1zM625 354q7 0 24 0.5t29.5 0.5t24.5 -2q2 0 5 -1l4 -4q3 -1 5.5 -3.5t5 -4.5t5.5 -4l4 -5q-3 -3 -8.5 -10t-10 -11t-8.5 -4q-80 -4 -160 0q-2 0 -5 2t-6 4.5t-5.5 5.5
t-5.5 7t-5 6q3 2 7 6.5t7.5 7.5t7.5 5.5t8 2.5q8 1 77 1zM619 188q-69 0 -78 1q-6 1 -13.5 9.5t-7.5 14.5t8 14.5t14 8.5q81 3 165 0q3 0 6.5 -2.5t6 -5.5t6.5 -7l6 -6q-2 -2 -5 -6t-5 -7t-5 -6t-5.5 -4.5t-5.5 -2.5q-10 -1 -87 -1zM593 80h-12q-7 0 -12.5 -0.5t-12 0
t-11.5 1.5q-3 1 -5.5 2.5t-5.5 3.5t-5 4.5t-5 5t-5 4.5q2 2 6.5 5.5t7 6t6.5 5t8 2.5q51 3 100 0q5 -1 9 -4t9.5 -8.5t8.5 -7.5q-3 -2 -7 -5.5t-7 -6t-7 -4.5t-7 -3q-8 -1 -16.5 -1.5t-20 0t-16.5 0.5z" />
    <glyph glyph-name="uniE62F" unicode="&#xe62f;" 
d="M912 -135q-8 0 -13 6l-248 248q-1 0 -1 1l-7 8q-5 5 -4.5 13t5.5 13q49 45 75 105q28 62 28 131q0 134 -95 229q-45 46 -104.5 70.5t-123.5 24.5q-134 0 -229 -95q-30 -31 -51.5 -67.5t-32.5 -77.5t-11 -84q0 -134 95 -228q46 -46 105 -70.5t124 -24.5q39 0 77 9
q73 20 121 15q4 0 7 -2t5.5 -4.5t3.5 -6t1 -7.5q-1 -8 -7 -13t-14 -4q-42 4 -107 -14h-1q-21 -5 -42.5 -7.5t-43.5 -2.5q-74 0 -141 28q-64 27 -114 77t-78 115q-28 67 -28 140.5t28 140.5q28 64 78 114t114 78q23 9 46 15.5t46.5 9.5t48.5 3q73 0 140 -28q65 -28 115 -78
t77 -114q14 -34 21 -69t7 -72q0 -76 -30 -146q-27 -59 -71 -105l242 -242q6 -5 6 -13t-5.5 -13.5t-13.5 -5.5zM166 390h-3q-7 1 -12 7t-4 14q4 32 13.5 62.5t25.5 58.5q4 7 11.5 9t13.5 -2q5 -2 7.5 -6.5t2.5 -9t-2 -9.5q-28 -50 -35 -107q0 -5 -3 -9t-7 -6t-8 -2z" />
    <glyph glyph-name="uniE636" unicode="&#xe636;" 
d="M947 200q-6 -6 -9 -10q-4 -5 -8 -8l-7 -7l-90 90l14 13q8 7 13 11q13 12 28 11q7 -1 13.5 -3t10.5 -4q11 -6 23 -19q13 -14 19 -28q3 -9 4 -21.5t-11 -24.5zM784 37l-39 -39l-35 -35q-7 -7 -13 -13.5t-12 -11.5l-11 -12q-2 -2 -4 -3.5t-3.5 -3t-4.5 -2.5q-6 -5 -12 -8
q-3 -2 -8 -4t-12 -4q-6 -3 -13 -5l-14 -4q-14 -5 -27 -8q-12 -3 -19 -4q-13 -2 -17 3q-2 3 -2.5 7.5t0.5 10.5q1 7 4 19q4 14 8 27q5 16 8 25q3 11 5 16q4 7 8 13t10 11l13 14l27 27q16 15 35 35q20 21 38 39l103 103l90 -90zM695 591q0 11 -8 18.5t-18 7.5h-53v53h105
q11 0 19 -7.5t8 -18.5v-359l-53 -58v364zM616 472q0 -3 -2 -6.5t-5 -5t-6 -1.5h-396q-3 0 -5.5 1t-4 3t-2.5 4t-1 5v27q0 5 3.5 9t9.5 4h396q5 0 9 -4t4 -9v-27zM563 564h-26q-6 0 -11 2.5t-8.5 6t-5.5 8t-2 10.5v105q0 11 8 19t19 8h26q11 0 18.5 -8t7.5 -19v-105
q0 -11 -7.5 -19t-18.5 -8zM325 670h159v-53h-159v53zM273 564h-27q-5 0 -10 2.5t-8.5 6t-5.5 8t-2 10.5v105q0 4 1 7.5t2.5 6.5t4 5t5.5 4t6.5 3t6.5 1h27q11 0 18.5 -8t7.5 -19v-105q0 -11 -7.5 -19t-18.5 -8zM114 591v-581q0 -4 1.5 -8t4 -7t5.5 -5.5t7.5 -4t8.5 -1.5h333
l-48 -53h-338q-7 0 -13 3.5t-9.5 9.5t-3.5 14v686q0 11 7.5 18.5t18.5 7.5h106v-53h-53q-6 0 -10.5 -2t-8 -5.5t-6 -8.5t-2.5 -10zM207 37q-3 0 -5.5 1t-4 2.5t-2.5 4t-1 5.5v26q0 6 3.5 10t9.5 4h363l-48 -53h-315zM616 156q0 -6 -4 -10t-9 -4h-396q-4 0 -7 2t-4.5 5
t-1.5 7v26q0 5 3.5 9t9.5 4h396q13 0 13 -13v-26zM603 353h-396q-6 0 -9.5 4t-3.5 10v26q0 5 3.5 9t9.5 4h396q3 0 6 -1.5t5 -4.5t2 -7v-26q0 -6 -4 -10t-9 -4zM616 261q0 -2 -1 -4t-2 -3.5t-2.5 -3t-3.5 -2t-4 -0.5h-396q-6 0 -9.5 4t-3.5 9v26q0 6 3.5 10t9.5 4h396
q5 0 9 -4t4 -10v-26z" />
    <glyph glyph-name="uniE637" unicode="&#xe637;" 
d="M706 127h-13q-9 0 -15 -6.5t-6 -15.5v-69q0 -7 -3 -12.5t-7 -10t-10 -7t-13 -2.5h-409q-13 0 -22.5 9.5t-9.5 22.5v613q0 13 9.5 22.5t22.5 9.5h409q14 0 23 -9.5t10 -22.5v-70q0 -6 2.5 -11t7.5 -8t11 -3h13q9 0 15 6.5t6 15.5v91q0 18 -8.5 33t-23.5 23.5t-33 8.5h-453
q-27 0 -46 -19t-19 -46v-656q0 -13 5 -25t14 -21t21 -14t25 -5h453q27 0 46 19t19 46v91q0 9 -6 15.5t-15 6.5zM883 353l-13 14h-1l-1 2l-121 120l-9 9q-5 5 -11.5 5t-10.5 -5l-14 -13q-11 -11 0 -22l10 -10l85 -85h-341q-6 0 -10.5 -2.5t-7 -7t-2.5 -9.5v-14
q0 -8 5.5 -13.5t14.5 -5.5h341l-85 -85l-10 -9q-11 -11 0 -23l14 -13q11 -11 22 0l9 10l121 120l1 2l14 13q10 11 0 22z" />
    <glyph glyph-name="uniE63B" unicode="&#xe63b;" 
d="M484 751q-180 0 -315 -118q-130 -113 -159 -281q-6 -41 -6 -81q0 -79 24 -152t68.5 -132t103.5 -103.5t132 -68.5t152 -24q97 0 186 38t153.5 102t102.5 153t38 186.5t-38 186.5t-102.5 153.5t-153.5 102.5t-186 38zM707 340l-271 -268q-9 -9 -21 -9q-13 0 -22 9l-3 4
q-1 1 -2.5 1.5t-2.5 2.5l-125 123q-9 9 -9 22t9 22t22 9t22 -9l111 -110l249 246q6 6 14 8t15.5 0t13.5 -8q9 -9 9 -21.5t-9 -21.5z" />
    <glyph glyph-name="uniE63C" unicode="&#xe63c;" 
d="M905 -191h-262q-5 0 -8 3.5t-3 7.5v382h-240v-382q0 -4 -3 -7.5t-8 -3.5h-262q-4 0 -7.5 3.5t-3.5 7.5v469h-76q-7 0 -10 7q-1 3 -0.5 6.5t2.5 5.5l480 480q8 7 16 0l156 -156v104q0 5 3 8t8 3h174q5 0 8 -3t3 -8v-301l128 -127q5 -5 2 -12t-10 -7h-76v-469
q0 -3 -1.5 -5.5t-4 -4t-5.5 -1.5zM654 -169h240v469q0 5 3 8t8 3h61l-113 112q-3 4 -3 8v295h-153v-120q0 -8 -6 -11q-3 -1 -6.5 -0.5t-5.5 3.5l-167 167l-454 -454h61q5 0 8 -3t3 -8v-469h240v382q0 4 3.5 7.5t7.5 3.5h262q4 0 7.5 -3.5t3.5 -7.5v-382zM599 -191h-174
q-3 0 -5 1t-3.5 2.5t-2 3.5t-0.5 4v349q0 5 3 8t8 3h174q3 0 5.5 -1.5t4 -4t1.5 -5.5v-349q0 -5 -3 -8t-8 -3zM435 -169h153v327h-153v-327zM599 -191h-174q-3 0 -5 1t-3.5 2.5t-2 3.5t-0.5 4v349q0 5 3 8t8 3h174q3 0 5.5 -1.5t4 -4t1.5 -5.5v-349q0 -5 -3 -8t-8 -3z
M435 -169h153v327h-153v-327z" />
    <glyph glyph-name="uniE63D" unicode="&#xe63d;" 
d="M930 644l-263 -264l263 -262q8 -8 8 -20t-8 -20l-119 -119q-9 -8 -20.5 -8t-19.5 8l-262 262l-260 -262q-9 -8 -20.5 -8t-19.5 8l-119 119q-5 5 -7 12.5t0 14.5t7 13l260 262l-260 260q-5 5 -7 12.5t0 14.5t7 13l119 119q8 8 19.5 8t20.5 -8l260 -260l262 264q5 5 12.5 7
t14.5 0t13 -7l119 -119q2 -2 3.5 -4.5t2.5 -5t1.5 -5t0.5 -5.5t-0.5 -5.5t-1.5 -5t-2.5 -5t-3.5 -4.5z" />
    <glyph glyph-name="uniE63E" unicode="&#xe63e;" 
d="M602 -212q-11 0 -20 8l-292 263h-170q-12 0 -25.5 3t-27 8.5t-25.5 15.5t-21.5 23t-15 31t-5.5 40v180q0 10 1.5 19.5t5 20t8.5 20t12 19t16.5 17t21 13t25.5 9t30 3.5h170l292 263q15 13 32.5 5t17.5 -27v-904q0 -20 -17 -27q-6 -3 -13 -3zM120 420q-52 0 -59 -50
q-1 -5 -1 -10v-180q0 -53 50 -60q6 -1 10 -1h181q4 0 7.5 -1t7 -2.5t5.5 -3.5l251 -226v768l-251 -226q-4 -4 -9 -6t-11 -2h-181zM753 451q-12 0 -21 8.5t-9 21t9 21.5l120 120q6 6 13.5 8t15.5 0t14 -8q8 -8 8 -20.5t-8 -21.5l-121 -121q-2 -2 -4.5 -3.5t-5 -2.5t-5.5 -1.5
t-6 -0.5zM934 240h-181q-6 0 -11.5 2.5t-9.5 6.5t-6.5 9.5t-2.5 11.5q0 12 9 21t21 9h181q12 0 21 -9t9 -21.5t-9 -21t-21 -8.5zM873.5 -92q-12.5 0 -21.5 9l-120 121q-6 6 -8 13.5t0 15.5t8 13q8 9 20.5 9t21.5 -9l121 -120q5 -6 7.5 -13.5t0 -15.5t-7.5 -14
q-9 -9 -21.5 -9z" />
    <glyph glyph-name="uniE641" unicode="&#xe641;" 
d="M939 757h-570q-13 0 -22.5 -9t-9.5 -23v-261h65v229h413l-167 -94q-16 -10 -16 -28v-499h-230v178h-65v-210q0 -13 9.5 -22.5t22.5 -9.5h263v-122q0 -9 4.5 -16.5t12 -11.5t16 -4t15.5 4l268 152q10 3 16.5 11.5t6.5 18.5v685q0 14 -9.5 23t-22.5 9zM443 312q5 0 10 1
t9.5 3.5t8.5 5.5t7 7t5 8.5t3.5 9.5t1.5 10q0 19 -13.5 32t-31.5 13h-173v84q0 12 -10.5 17.5t-19.5 -1.5l-178 -129q-8 -6 -8 -16q0 -5 2 -9t6 -7l178 -129q5 -4 11 -4q5 0 9 3q5 2 7.5 6.5t2.5 10.5v84h173z" />
    <glyph glyph-name="uniE645" unicode="&#xe645;" 
d="M540 806q114 0 195 -80q38 -38 59.5 -88.5t21.5 -106.5q0 -114 -81 -195t-195 -81q-56 0 -106.5 21.5t-88.5 59.5t-59.5 88.5t-21.5 106.5q0 16 2 32t5.5 31t9 29.5t12 28.5t15 26.5t17.5 24.5t20 23q81 80 195 80zM529 131l-60 -286l67 -57l67 57l-60 286l26 16l-33 22
l-33 -22zM653 235q119 -40 196.5 -148t81.5 -246h-284l-64 317zM424 -159h-282q5 138 81.5 245.5t194.5 147.5l70 -76zM574 634q-9 -5 -15 -8q-103 -50 -256 -53q-3 -20 -3 -40q0 -100 70.5 -170t169.5 -70t170 70q33 33 51.5 77t18.5 93v6v6q0 3 -0.5 6t-0.5 6t-1 6v6l-2 6
q0 3 -1 6q-33 -1 -63 5q-64 11 -138 48z" />
    <glyph glyph-name="uniE646" unicode="&#xe646;" 
d="M615 337q0 -15 -4 -30t-11 -27.5t-18 -23t-23.5 -18t-27 -11.5t-30.5 -4q-46 0 -81 33q-32 35 -32 81q0 6 0.5 11.5t1.5 11t2.5 11t3.5 10.5t4.5 9.5t5.5 9t6.5 9t7.5 8.5q34 34 81 34q10 0 18.5 -1.5t17 -4t16 -6.5t15 -9.5t13.5 -12.5q17 -16 25.5 -36t8.5 -44z" />
    <glyph glyph-name="uniE647" unicode="&#xe647;" 
d="M627 463q-4 1 -9.5 0t-14.5 -9t-10 -24q0 -3 1 -8.5t9.5 -14.5t23.5 -10h1t4.5 0.5t6.5 2t6.5 4t6.5 6t5 9t3 11.5q-1 4 -2 9t-9.5 14.5t-21.5 9.5zM426 463h-2q-1 0 -4 -1t-6.5 -2t-7 -3.5t-6.5 -6t-5 -9t-2 -11.5v-2q0 -1 1 -4v-6q1 -3 3.5 -7t6 -7t9.5 -5t13 -2h2h2
q2 0 4 0.5t4.5 1.5t5 2.5t5 4t5 6t4 8t2.5 10.5q0 3 -1 8t-9.5 14.5t-23.5 10.5zM387 122q-8 -4 -21.5 -12t-48.5 -36.5t-63 -63t-54 -93.5t-32 -125h323zM546 -208h339q0 3 -1 8.5t-4.5 23t-8.5 35t-14 42t-20.5 47.5t-28.5 49t-37 48t-47 42.5t-58 34.5zM843 26
q-2 3 -6.5 9.5t-19.5 24t-32.5 34t-46.5 36t-61 33.5t-76 23.5t-91 8.5h-12q-8 0 -31.5 -3.5t-46.5 -9t-54.5 -19.5t-59 -32.5t-56 -49t-49.5 -69.5l-1 443q0 6 -0.5 17.5t3 45t12 65t30.5 70.5t54 69t86.5 54t124.5 32l53 -5q158 -27 230 -142q47 -75 50 -182v-453z
M770 485q-9 -1 -25 -1.5t-63 2t-90.5 10.5t-98 29.5t-95.5 52.5v0q-83 -83 -124 -94q2 -1 0.5 -8t1 -20t4.5 -29.5t10.5 -36t19 -39t29.5 -38.5t42 -34.5t57.5 -27.5t74.5 -17q10 0 25.5 0.5t57 11.5t74 34t63 75.5t37.5 126.5v3zM627 463q-4 0 -9.5 -1t-14.5 -9t-10 -23
q1 -3 2 -8.5t9.5 -14.5t22.5 -10q12 -1 14 -1l-12 1q1 0 2 0.5t4 1.5t6 2.5t6.5 4t6 6t4.5 8.5t2 10q0 4 -1.5 9.5t-10 14.5t-21.5 9q-10 1 -13 0l13 -2v2zM426 463l-14 -3q-16 -8 -19 -30q0 -4 1.5 -9.5t9.5 -15t22 -8.5v0q4 0 9 0.5t14 9t11 23.5q-1 4 -2 9.5t-9.5 14.5
t-22.5 9v0z" />
    <glyph glyph-name="uniE64A" unicode="&#xe64a;" 
d="M535 724q9 -10 8.5 -23t-9.5 -22l-420 -395q-6 -6 -14.5 -8t-16.5 0.5t-14 8.5q-6 7 -8 15t0.5 16t8.5 14l420 395q9 9 22.5 9t22.5 -10zM489 724q9 10 22 10t23 -9l420 -394q9 -9 9.5 -22.5t-8.5 -23.5q-9 -9 -22.5 -9.5t-22.5 8.5l-420 395q-9 9 -9.5 22t8.5 23z
M964 578q0 -24 -23 -31l-9 -1q-14 0 -23 9.5t-9 22.5v128q0 6 2.5 12t6.5 10.5t10 7t13 2.5q13 0 22.5 -9.5t9.5 -22.5v-128zM964 706q0 -24 -23 -31l-9 -1h-128q-14 0 -23 9.5t-9 22.5q0 6 2.5 12t6.5 10.5t10 7t13 2.5h128q13 0 22.5 -9.5t9.5 -22.5zM257 -127
q0 -13 -9 -22.5t-23 -9.5q-13 0 -22.5 9.5t-9.5 22.5v440q0 14 9.5 23t22.5 9q14 0 23 -9t9 -23v-440zM836 -127q0 -13 -9.5 -22.5t-22.5 -9.5q-9 0 -16.5 4.5t-11.5 12t-4 15.5v440q0 14 9 23t23 9q6 0 12 -2.5t10 -6.5t7 -10t3 -13v-440zM449 -127q0 -8 -4 -15.5
t-11.5 -12t-16.5 -4.5h-192q-13 0 -22.5 9.5t-9.5 22.5q0 9 4.5 16.5t12 11.5t15.5 4h192q14 0 23 -9t9 -23zM835 -127q0 -13 -9 -22.5t-23 -9.5h-192q-13 0 -22.5 9.5t-9.5 22.5q0 14 9.5 23t22.5 9h192q7 0 13 -2.5t10 -6.5t6.5 -10t2.5 -13zM643 129q0 -13 -9 -22.5
t-23 -9.5h-192q-13 0 -22.5 9.5t-9.5 22.5q0 14 9.5 23t22.5 9h192q14 0 23 -9t9 -23zM449 -127q0 -8 -4 -15.5t-11.5 -12t-16.5 -4.5q-13 0 -22.5 9.5t-9.5 22.5v256q0 14 9.5 23t22.5 9q14 0 23 -9t9 -23v-256zM643 -127q0 -13 -9 -22.5t-23 -9.5q-13 0 -22.5 9.5
t-9.5 22.5v256q0 14 9.5 23t22.5 9q14 0 23 -9t9 -23v-256z" />
    <glyph glyph-name="uniE64C" unicode="&#xe64c;" 
d="M889 220q-2 6 -10.5 10.5t-18.5 5.5l-164 18q45 72 71.5 133.5t26.5 106.5q0 29 -5 57.5t-14.5 54t-23.5 49t-32 44.5t-38.5 38.5t-44.5 31t-50 23.5t-54.5 15t-57.5 5q-87 0 -161 -42.5t-117 -115.5t-43 -160q0 -89 110 -257l-234 26q-13 1 -21 -3q-5 -3 -6.5 -6
t-1.5 -7l63 -386q3 -16 26 -19l296 -43q3 -1 5 -1l6 1l283 33l313 -43q3 -1 6 -1q6 0 10.5 1t8.5 3q9 6 6 16zM473.5 680q66.5 0 113.5 -46.5t47 -112.5q0 -13 -2 -26t-6 -24.5t-10 -22.5t-13 -21t-16 -18.5t-18.5 -16t-21 -13t-23 -9.5t-24.5 -6t-26 -2q-67 0 -113.5 46.5
t-46.5 112.5t46.5 112.5t113 46.5zM585 74l-22 -3q11 14 17 22zM56 227l219 -25l33 -156l-226 29zM117 -125l-28 164l227 -30l36 -167zM349 117q26 -34 52 -67l-36 -4zM410 -159l-37 168l57 7l44 -51q22 25 55 64l66 8l44 -168zM622 148q27 36 53 75l160 -18l51 -161
l-243 30zM699 -132l-46 169l245 -31l55 -173z" />
    <glyph glyph-name="uniE655" unicode="&#xe655;" 
d="M504 325q14 0 28 4t26 11.5t22 18t17 23t10.5 27t3.5 30.5q0 30 -14 56.5t-39 41.5t-54 15q-17 0 -32.5 -5.5t-28.5 -15t-23 -22.5q-2 -1 -3 -2q0 -1 -0.5 -2t-1.5 -2q-9 -14 -14 -30.5t-5 -33.5q0 -61 48 -95q27 -19 60 -19zM504 528q8 0 16.5 -2t15.5 -5t14 -8
q-17 -1 -50 -20q-25 -13 -58 6q8 9 17.5 15.5t21 10t23.5 3.5zM431 483q24 -15 47 -15q17 0 31 8q27 15 39.5 17.5t22.5 -3.5l2 -1q15 -23 15 -50q0 -25 -11 -45.5t-30.5 -32.5t-42.5 -12q-35 0 -59.5 26.5t-24.5 63.5q0 23 11 44zM721 214q3 0 3 3l16 92q0 2 -2 3
q-11 8 -11 22q0 13 10 21q2 2 1.5 4.5t-2.5 2.5q-22 5 -40 20q0 1 -2 1h-2q-13 -7 -24.5 -17.5t-20.5 -23t-16 -28.5q41 -39 61 -100h29zM810 382q-17 -15 -39 -20q-2 0 -2.5 -2.5t0.5 -4.5q10 -8 10 -21q0 -6 -2.5 -12t-8.5 -10q-2 -1 -1 -3l15 -92q1 -3 4 -3h108h2l1 1
t1 2q-1 58 -23.5 101.5t-60.5 64.5q-2 1 -4 -1zM753 383q17 0 33 7t27 19t17.5 28.5t6.5 34.5q0 36 -24.5 62t-59.5 26q-41 0 -66 -34l-1 -1q-1 -1 -1 -1.5t-1 -1.5q-3 -4 -5 -9l-4 -10q-2 -5 -3 -10t-2 -10.5t-1 -10.5q0 -37 25 -63t59 -26zM753 541q20 0 36 -11
q-5 -1 -10.5 -2.5t-12 -5t-15.5 -8.5q-20 -10 -46 5q5 5 10.5 9t11.5 7t12.5 4.5t13.5 1.5zM697 507q19 -12 36 -12q4 0 8 0.5t8.5 2t7.5 3.5q22 12 31.5 13.5t17.5 -2.5l1 -1q12 -18 12 -39q0 -15 -5 -27.5t-14 -22t-21 -15t-26 -5.5q-27 0 -46 20.5t-19 49.5q0 4 0.5 9
t1.5 9t3 8.5t4 8.5zM130 214h108q3 0 4 3l15 92l-1 3q-4 3 -6.5 6.5t-4 7.5t-1.5 8q0 13 11 21q1 2 1 4q0 1 -1 2t-2 1q-11 2 -21 7.5t-18 12.5q-2 2 -4 1q-38 -21 -60.5 -64.5t-23.5 -101.5q0 -1 1 -2t3 -1zM328 382q-18 -15 -40 -20q-2 0 -3 -3l2 -4q4 -3 7 -8.5t3 -12.5
q0 -14 -11 -22q-2 -1 -2 -3l16 -92q0 -3 3 -3h12q24 70 73 110q-4 8 -9 15t-10 13.5t-11 11.5t-12.5 10t-13.5 9h-2q-2 0 -2 -1zM270.5 383q34.5 0 59.5 26t25 62.5t-25 62.5t-59 26q-41 0 -67 -34l-1 -1l-1 -3q-15 -23 -15 -50q0 -37 24.5 -63t59 -26zM271 541q19 0 36 -11
q-5 -1 -11 -2.5t-12.5 -5t-15.5 -8.5q-20 -10 -45 5q19 22 48 22zM214 507q19 -12 37 -12q4 0 7.5 0.5t8 2t8.5 3.5q21 12 30.5 13.5t17.5 -2.5l1 -1h1q11 -18 11 -39q0 -29 -19 -49.5t-46.5 -20.5t-46.5 20.5t-19 49.5q0 9 2.5 18t6.5 17zM470 263q0 16 13 27q3 2 2 5
q0 1 -1 2t-3 1q-28 6 -50 26q-1 1 -3 1h-2q-49 -27 -77.5 -83t-29.5 -129l1 -3q1 -1 2 -1.5t2 -0.5h138q3 1 5 4l20 118q0 3 -2 4q-15 11 -15 29zM577 324q-11 -10 -24 -16.5t-27 -9.5q-2 0 -3 -3v-3q0 -1 1 -2q13 -11 13 -27q0 -18 -14 -28q-2 -2 -2 -5l20 -118q1 -4 4 -4
h139q2 0 3.5 1.5t1.5 3.5q-2 73 -30 129t-77 83h-2q-2 0 -3 -1z" />
    <glyph glyph-name="uniE656" unicode="&#xe656;" 
d="M827 400q-12 0 -21 9.5t-9 22t9 22t21 9.5q8 0 14.5 -4.5t10.5 -11.5t4 -15q0 -13 -8.5 -22.5t-20.5 -9.5zM651 400q-12 0 -21 9.5t-9 22t9 22t21 9.5q8 0 14.5 -4.5t10.5 -11.5t4 -15q0 -13 -8.5 -22.5t-20.5 -9.5zM475 400q-12 0 -20.5 9.5t-8.5 22t8.5 22t20.5 9.5
q8 0 14.5 -4.5t10.5 -11.5t4 -15.5t-4 -15.5t-10.5 -11.5t-14.5 -4.5zM840 211v-80q0 -6 -3 -13h-1v-1l-1 -1l-1 -1q-2 -3 -3 -4l-5 -3q-3 -2 -4.5 -2.5t-5.5 -0.5l-1 -1h-2h-1h-1q-1 0 -2 0.5t-3 0.5q-4 1 -5 2h-1l-1 1l-181 103h-157q-44 0 -76 31t-32 76v266q0 45 32 76
t76 31h379q45 0 76.5 -31t31.5 -76v-266q0 -45 -31.5 -76t-76.5 -31v0zM892 580q0 22 -17.5 41t-39.5 19h-369q-22 0 -39.5 -18t-17.5 -40v-260q0 -22 18 -41t39 -19h162h2l5 -2q3 -1 5 -2l143 -76v60q0 10 9 15t21 5h26q22 0 37.5 17.5t15.5 39.5v261v0zM139 371v-267
q0 -22 15.5 -39t37.5 -17h18q8 0 16.5 -3t14.5 -8.5t6 -12.5v-61l156 82q2 1 4 1.5t3.5 1t3.5 0.5h156q22 0 38 17t16 39h54q0 -44 -32 -75.5t-76 -31.5h-157l-181 -103h-2v-1q-1 0 -5 -1t-5 -1t-2 -1q-1 0 -2 1h-1q-2 0 -3 0.5t-3 0.5q-2 1 -4.5 2.5t-4 2.5t-3.5 4
q0 1 -1 1.5t-1 1.5l-1 1l-2 6q-1 3 -1 6v80q-45 0 -76.5 31.5t-31.5 75.5v267q0 44 31.5 74t76.5 30h119l1 -51h-118q-23 0 -38.5 -14.5t-15.5 -36.5v-2z" />
    <glyph glyph-name="uniE657" unicode="&#xe657;" 
d="M64 -148l104 45l-59 61zM242 189l169 -172l465 473l-169 172zM841 748q-31 0 -57.5 -15t-42.5 -40l165 -168q16 11 28.5 26.5t19 35t6.5 40.5q0 19 -6 38t-17 33.5t-25.5 26t-33 17.5t-37.5 6zM124 -11l75 -72l179 69l-163 165z" />
    <glyph glyph-name="uniE65E" unicode="&#xe65e;" 
d="M106 -31zM255 343q8 98 83 167q73 68 174 68q90 0 158 -56l-137 -137h364v364l-135 -135h-1q-109 93 -250 92q-153 0 -265 -105q-14 -13 -26 -27t-23 -28.5t-20 -30t-16.5 -31.5t-13.5 -33t-10 -34.5t-7 -36t-4 -37.5h129zM262 -15q110 -91 250 -91q152 0 264 105
q57 53 86.5 116.5t33.5 140.5h-129q-7 -98 -81 -166q-38 -35 -81 -52t-93 -17q-88 0 -159 56l138 137h-365v-364zM917 -31z" />
    <glyph glyph-name="uniE65F" unicode="&#xe65f;" 
d="M847 -146h-670q-70 0 -119 49t-49 118v558q0 70 49 119t119 49h279q54 0 96.5 -31t60.5 -81h234q69 0 118 -49t49 -118v-447q0 -34 -13.5 -65t-35.5 -53.5t-53 -35.5t-65 -13zM847 524h-335v55q0 24 -16.5 40t-39.5 16h-279q-23 0 -39.5 -16t-16.5 -40v-558
q0 -23 16.5 -39.5t39.5 -16.5h56v391q0 23 16 39.5t39 16.5h614v56q0 15 -7.5 28t-20 20.5t-27.5 7.5z" />
    <glyph glyph-name="uniE660" unicode="&#xe660;" 
d="M857 19l-74 130v261q0 77 -52 148t-133 101q-2 19 -9.5 36t-19 29.5t-26.5 19t-32 6.5q-35 0 -59.5 -25.5t-28.5 -65.5q-81 -30 -133 -101t-52 -148v-261l-77 -136q-8 -15 0 -29.5t25 -14.5h184q7 -32 27 -58t50 -41t64 -15t63.5 15t49.5 41t27 58h184h1q13 0 21 8.5
t8 20.5q0 13 -8 21zM510.5 692q15.5 0 24.5 -19q-1 0 -10 1t-14 1t-14 -1t-11 -1q9 19 24.5 19zM511 -87q-28 0 -49.5 15.5t-30.5 40.5h159q-4 -12 -12 -22.5t-18 -18t-23 -11.5t-26 -4zM236 27l56 100q4 6 4 14v269q0 77 63 142t151.5 65t151.5 -65t63 -142v-269
q0 -8 4 -14l56 -100h-549z" />
    <glyph glyph-name="uniE667" unicode="&#xe667;" 
d="M512 715q-116 0 -214 -57.5t-155.5 -155.5t-57.5 -214t57.5 -214t155.5 -155.5t214 -57.5t214 57.5t155.5 155.5t57.5 214t-57.5 214t-155.5 155.5t-214 57.5zM512 -96q-159 0 -271.5 112.5t-112.5 271.5t112.5 271.5t271.5 112.5t271.5 -112.5t112.5 -271.5
t-112.5 -271.5t-271.5 -112.5zM277 288q0 -97 69 -166t166 -69q64 0 118 31.5t85.5 85.5t31.5 118q0 97 -69 166t-166 69t-166 -69t-69 -166z" />
    <glyph glyph-name="uniE668" unicode="&#xe668;" 
d="M207 729v-161h-143v-269v-266q0 -44 21.5 -81.5t59 -59t80.5 -21.5h573q67 0 114.5 47.5t47.5 114.5v44v222v269v161h-753zM117 261v255h90v-417q0 -100 -52 -123q-38 44 -38 101v184zM906 261v-184q0 -41 -20.5 -76t-55.5 -55.5t-76 -20.5h-485q-24 0 -48 8
q38 33 38 144v51v388h4v52h-4v107h647v-414zM332 568h486v-68h-486v68zM332 421h180v-45h-180v45zM565 421h253v-315h-253v315zM332 331h180v-45h-180v45zM332 242h180v-45h-180v45zM332 151h180v-45h-180v45z" />
    <glyph glyph-name="uniE669" unicode="&#xe669;" 
d="M428 252q51 20 83 65.5t32 101.5q0 24 -6.5 47t-18 42.5t-28 36t-36 28.5t-43 18t-47.5 6q-74 0 -126.5 -52t-52.5 -126q0 -56 32 -101.5t82 -65.5q-84 -22 -138.5 -91t-54.5 -158h35q0 45 18 86t47.5 71t71 47.5t86.5 17.5q92 0 157 -65t65 -157h36q0 89 -54.5 158
t-139.5 91zM221 418.5q0 59.5 42 101.5t101 42t101 -42t42 -101.5t-42 -101t-101 -41.5t-101 41.5t-42 101zM871 -2h-160v32h160q4 0 7.5 2t5.5 5.5t2 7.5v510q0 4 -2 7.5t-5.5 5.5t-7.5 2h-376v32h376q20 0 33.5 -13.5t13.5 -33.5v-510q0 -31 -28 -43q-10 -4 -19 -4z
M572 495h252v-37h-252v37zM572 380h252v-37h-252v37zM638 257h186v-37h-186v37z" />
    <glyph glyph-name="uniE66F" unicode="&#xe66f;" horiz-adv-x="1028" 
d="M855 348zM723 -148h132v415l-132 -131v-284zM281 154v-302h131v298l-67 68zM66 -148h132v219l-132 -132v-87zM575 -12l-70 -70v-66h131v197zM962 547h-255l103 -103l-235 -234l-1 1l-1 -1l-228 230l-279 -279v-134l279 279l228 -230l1 1l1 -1l302 301l85 -84v254z" />
    <glyph glyph-name="uniE670" unicode="&#xe670;" 
d="M665 233v97l-307 312v-108l257 -238v-31l-257 -220v-109z" />
    <glyph glyph-name="uniE671" unicode="&#xe671;" 
d="M135 22h-62q0 -65 46.5 -112t112.5 -47v63q-12 0 -22.5 2.5t-20 7.5t-18 11.5t-15 15t-11.5 18t-7.5 20t-2.5 21.5zM135 365h-62v-128h62v128zM73 580h62q0 26 13 48t35 35t49 13v63q-66 0 -112.5 -47t-46.5 -112zM135 194h-62v-127h62v127zM135 532h-62v-128h62v128z
M951 475q-14 -17 -27.5 -35t-27.5 -36h55v71zM743 685v54h-128v-63h117zM278 -139h128v63h-128v-63zM889 67h62v127h-62v-127zM791 -74v-63q66 0 112.5 47t46.5 112h-63q0 -40 -28 -68t-68 -28zM889 237h62v128h-62v-128zM278 676h128v63h-128v-63zM448 676h128v63h-128v-63
zM448 -139h128v63h-128v-63zM615 -139h128v63h-128v-63zM513 547q102 0 174.5 -72.5t72.5 -174.5t-72.5 -174.5t-174.5 -72.5t-174.5 72.5t-72.5 174.5t72.5 174.5t174.5 72.5zM513 630q-89 0 -165 -44.5t-120 -120t-44 -165t44 -165.5t120 -120.5t165 -44.5q67 0 128 26.5
t105.5 70.5t70.5 105t26 128t-26 128t-70.5 105t-105.5 70.5t-128 26.5zM596 176q-6 0 -11 1.5t-10 4.5t-9 6l-82 83q-12 12 -12 29v0v165q0 8 3.5 15.5t9 13t13 9t15.5 3.5q17 0 29 -12t12 -29v-148l71 -70q12 -12 12 -29t-12 -29.5t-29 -12.5z" />
    <glyph glyph-name="uniE672" unicode="&#xe672;" 
d="M795 677h-566q-39 0 -66.5 -27.5t-27.5 -66.5v-566q0 -39 27.5 -66.5t66.5 -27.5h566q39 0 66.5 27.5t27.5 66.5v566q0 25 -12.5 47t-34.5 34.5t-47 12.5zM842 17q0 -8 -2.5 -15t-7 -12.5t-10 -10t-12.5 -7t-15 -2.5h-566q-19 0 -33 14t-14 33v566q0 13 6.5 23.5t17 17
t23.5 6.5h566q19 0 33 -14t14 -33v-566zM614 201l88 70l56 -38q6 -4 13 -4q4 0 7.5 1.5t7 3.5t5.5 6q5 8 3.5 17.5t-10.5 14.5l-70 48q-14 9 -28 -2l-112 -89l-166 114h-1q-1 1 -2.5 1.5t-3.5 1.5h-1l-1 1h-6h-2h-1q-1 0 -2 -1h-1l-6 -3l-141 -94q-8 -5 -10 -15t3 -18
q7 -10 20 -10q7 0 13 4l128 85l364 -250q3 -2 6.5 -3t6.5 -1q13 0 20 10q3 5 3.5 11.5t-2 12t-7.5 9.5zM571 371q12 0 24 2.5t22.5 8t19.5 12.5t16.5 16.5t12.5 20t8 22t3 24.5q0 44 -31 75t-75 31t-75 -31t-31 -75q0 -29 14 -53.5t38.5 -38.5t53.5 -14zM571 536
q8 0 15.5 -2.5t14 -6t12 -9t9.5 -12t6 -14t2 -15.5q0 -6 -1 -11t-3 -9.5t-4.5 -9t-5.5 -8.5t-7 -7t-8.5 -6t-9 -4.5t-10 -2.5t-10.5 -1q-24 0 -41.5 17t-17.5 41.5t17 42t42 17.5z" />
    <glyph glyph-name="uniE674" unicode="&#xe674;" 
d="M934 -212h-699q-18 0 -36 11.5t-30 27.5t-22 32t-15 27l-5 12l1 73l34 -2q12 0 22.5 2.5t17.5 6.5t12.5 10t9 12t6 12.5t3.5 12t1.5 10t0.5 6.5v3q0 60 -57 73l-13 2h-37l1 144h34q14 0 26 4t19 10.5t13 14t9 14.5l4 14q2 6 2 10l1 4q0 22 -7.5 38t-18.5 23t-21.5 11.5
t-18.5 4.5l-7 1h-35l-2 144l35 2q21 0 36.5 7.5t22.5 18t10.5 21.5t4.5 18v8q0 13 -4 24.5t-10.5 19t-14 13t-15.5 8.5t-14 5t-10 3h-4h-37v71q0 7 3 14t8 12t11.5 7.5t14.5 2.5h658q15 0 25.5 -10.5t10.5 -25.5l73 -2q6 0 11.5 -2t9 -5.5t6.5 -7.5t5 -7.5t3 -7t2 -5.5v-2
v-914q0 -5 -2 -10t-5 -8.5t-6.5 -6t-7 -4.5t-6.5 -3t-5 -2h-2zM785 556h-475v-293h475v293zM896 729l-38 13v-808q0 -15 -10.5 -25.5t-25.5 -10.5l-623 1q0 -7 4 -13.5t9.5 -11t11 -7.5t9.5 -4l4 -2h621q18 0 27 8.5t10 17.5l1 8v834zM401 482h293q7 0 12.5 -5t5.5 -12.5
t-5.5 -13t-12.5 -5.5h-293q-7 0 -12.5 5.5t-5.5 13t5.5 12.5t12.5 5zM401 373h293q7 0 12.5 -5.5t5.5 -13t-5.5 -13t-12.5 -5.5h-293q-7 0 -12.5 5.5t-5.5 13t5.5 13t12.5 5.5zM200 629q0 -15 -10.5 -26t-25.5 -11h-73q-8 0 -14.5 3t-11.5 8t-8 11.5t-3 14.5q0 10 5 18
t13.5 13t18.5 5h73q15 0 25.5 -10.5t10.5 -25.5zM91 373h73q6 0 11.5 -2t10 -5.5t8 -8t5 -10t1.5 -11.5q0 -15 -10.5 -25.5t-25.5 -10.5h-73q-10 0 -18.5 5t-13.5 13t-5 18q0 15 11 26t26 11zM91 80h73q15 0 25.5 -10.5t10.5 -25.5q0 -10 -4.5 -18.5t-13 -13.5t-18.5 -5h-73
q-6 0 -11.5 2t-10 5.5t-8 8t-5.5 10t-2 11.5q0 15 11 25.5t26 10.5z" />
    <glyph glyph-name="uniE675" unicode="&#xe675;" 
d="M501 700l-15 6l-149 39q-42 11 -54 -31l-176 -735q-12 -43 31 -54l148 -40q43 -11 54 32l177 734q3 12 2.5 21t-5.5 16t-13 12zM429 444q-3 -10 -11 -17q-2 -2 -3.5 -3t-3.5 -1h-3h-4h-1l-135 36l-4 2l-2 2q-2 1 -3 3t-2 4.5t-1.5 4.5t-0.5 5v4q0 3 1 6q2 10 10 16
q4 3 8 4.5t8 0.5l134 -37h1l2 -1h1q2 -2 4 -4.5t4 -5.5q2 -4 2 -9t-1 -10zM452 533q-1 -5 -1 -6q-2 -7 -7 -12l-4 -4q-1 -1 -4 -3q-6 -3 -10 -2h-1l-134 36l-4 2q-2 1 -3.5 2.5t-2.5 3.5l-2 4q-2 5 -2 13q1 5 1 6q1 1 2 4q0 1 1 1q3 8 8 12q7 6 15 3l135 -36h1l7 -6l3 -5
q1 -1 1.5 -2.5t0.5 -3.5v-3v-3v-1zM703 673q-5 -10 -5 -23v-763q0 -13 5 -23q4 -10 11 -10q4 0 6.5 2.5t5 7.5t4 11t1.5 12v763q0 6 -1.5 12t-3.5 11q-3 5 -5.5 7.5t-6.5 2.5q-7 0 -11 -10zM683 650q0 13 -4 23q-5 10 -12 10t-11 -10q-5 -10 -5 -23v-763q0 -13 5 -23
q4 -10 11 -10t12 10q2 5 3 10.5t1 12.5v763zM892 673q-2 -5 -3 -11t-1 -12v-763q0 -14 4 -23q5 -10 11.5 -10t11.5 10q2 5 3.5 11t1.5 12v763q0 13 -5 23t-11 10q-7 0 -12 -10zM872 650q0 13 -4 23q-2 5 -5 7.5t-7 2.5q-6 0 -11 -10q-3 -5 -4 -11t-1 -12v-763q0 -13 5 -23
q2 -5 5 -7.5t6 -2.5q7 0 12 10q2 5 3 10.5t1 12.5v763zM613 679q-10 9 -23 9q-14 0 -24 -9q-9 -10 -9 -24v-767q0 -14 9 -24q4 -3 7.5 -5t7.5 -3.5t9 -1.5q13 0 23 10q3 4 5.5 7.5t3.5 7.5t1 9v767q0 14 -10 24zM762 679q-9 -10 -9 -24v-767q0 -14 9 -24q4 -3 7.5 -5
t7.5 -3.5t9 -1.5q3 0 6.5 1t6.5 2t5.5 3t5.5 4q9 10 9 24v767q0 14 -9 24q-3 2 -5.5 4t-5.5 3t-6.5 1.5t-6.5 0.5q-5 0 -9 -1t-7.5 -3t-7.5 -5z" />
    <glyph glyph-name="uniE682" unicode="&#xe682;" 
d="M536 641zM435 640.5q0 41.5 29.5 71t71 29.5t71 -29.5t29.5 -70.5q0 -21 -8 -39.5t-21.5 -32t-32 -21.5t-38.5 -8q-42 0 -71.5 29.5t-29.5 71zM535.5 521q-49.5 0 -84.5 35t-35 84.5t35 84.5t85 35q32 0 59.5 -16t44 -43.5t16.5 -59.5q0 -50 -35.5 -85t-85 -35zM536 722
q-10 0 -19 -2t-17 -6t-15 -10t-12.5 -13t-9.5 -15t-6.5 -17t-2.5 -18q0 -34 24 -58t58 -24q11 0 21.5 3t19.5 8.5t16.5 13t12.5 16t8 19t3 22t-3 22t-8 19t-12.5 16.5t-16.5 13t-19.5 8t-21.5 3zM281 535zM191 535q0 25 12 45.5t32.5 32.5t45.5 12q37 0 63.5 -26.5
t26.5 -63.5q0 -18 -7 -35t-19 -29t-29 -19t-35 -7t-35 7t-29 19t-19 29t-7 35zM281 426q-45 0 -77 32t-32 77q0 18 5.5 34.5t15.5 30t23.5 23.5t30 16t34.5 6q45 0 77 -32.5t32 -77.5q0 -15 -4 -29t-11 -26t-17 -22t-22 -17t-26 -11t-29 -4zM281 606q-19 0 -35.5 -9.5
t-26 -26t-9.5 -35.5q0 -29 21 -50t50 -21t50 21t21 50.5t-21 50t-50 20.5zM173 275zM95 275h155q0 -32 -22.5 -54.5t-54.5 -22.5t-55 22.5t-23 54.5zM173 178q-40 0 -68.5 28.5t-28.5 68.5q0 19 7.5 37t20.5 31t31 20.5t38 7.5q40 0 68 -28t28 -68q0 -26 -13 -48.5
t-35 -35.5t-48 -13zM173 333q-24 0 -41 -17t-17 -41q0 -7 1.5 -13.5t4 -12t6.5 -10.5t9 -9t11 -7t12.5 -4.5t13.5 -1.5q24 0 41 17t17 41t-17 41t-41 17zM281 15zM218 15q0 26 18.5 44.5t44.5 18.5t44.5 -18.5t18.5 -44.5t-18.5 -44t-44.5 -18t-44.5 18t-18.5 44zM281 -67
q-34 0 -58 24t-24 58q0 22 11 41t30 30t41 11q34 0 58 -24t24 -58q0 -13 -4.5 -25.5t-12 -22.5t-17.5 -17.5t-22.5 -12t-25.5 -4.5zM281 59q-18 0 -30.5 -13t-12.5 -31t12.5 -30.5t30.5 -12.5t30.5 12.5t12.5 30.5t-12.5 31t-30.5 13zM536 -89zM484 -89q0 22 15 37t37 15
q10 0 20 -4t17 -11t11 -16.5t4 -20.5q0 -14 -7 -26t-19 -19t-26 -7q-11 0 -20.5 4t-16.5 11t-11 17t-4 20zM536 -160q-30 0 -51 21t-21 50.5t21 50.5t50.5 21t50.5 -21t21 -51q0 -14 -5.5 -27.5t-15 -23t-23 -15t-27.5 -5.5zM536 -56q-14 0 -23.5 -9.5t-9.5 -23.5
q0 -9 4.5 -16.5t12 -12t16.5 -4.5q14 0 23.5 10t9.5 23.5t-9.5 23t-23.5 9.5zM795 18zM756 18q0 16 11.5 27.5t27 11.5t27 -11.5t11.5 -27.5t-11.5 -27t-27 -11t-27 11t-11.5 27zM794.5 -40q-23.5 0 -40.5 17t-17 41t17 41t40.5 17t40.5 -17t17 -41t-17 -41t-40.5 -17z
M795 37q-8 0 -14 -5.5t-6 -13.5t6 -13.5t14 -5.5t13.5 5.5t5.5 13.5t-5.5 13.5t-13.5 5.5zM900 274zM872 274.5q0 11.5 8.5 20t20 8.5t20 -8.5t8.5 -20t-8.5 -20t-20 -8.5t-20 8.5t-8.5 20zM900 227q-19 0 -33 14t-14 33.5t14 33.5t33.5 14t33.5 -14t14 -34q0 -12 -6.5 -23
t-17.5 -17.5t-24 -6.5zM900 283q-8 0 -8 -9q0 -3 2.5 -5.5t6 -2.5t6 2.5t2.5 6t-2.5 6t-6.5 2.5zM795 532zM777 531.5q0 7.5 5 12.5t12.5 5t12.5 -5t5 -12q0 -15 -14 -18h-3q-8 0 -13 5t-5 12.5zM795 532zM758 532q0 10 5 18.5t13.5 13t18 4.5t18 -4.5t13.5 -13t5 -18.5
q0 -16 -10.5 -26.5t-25.5 -10.5q-10 0 -18.5 5t-13.5 13.5t-5 18.5z" />
    <glyph glyph-name="uniE684" unicode="&#xe684;" 
d="M120 -114q-3 0 -6 1.5t-5 3.5q-5 6 -4 13q12 67 45 127q33 59 82 104.5t111 72.5q28 13 57.5 21.5t60.5 12.5v1q-74 17 -123 75q-55 64 -55 148q0 31 8 60t23 54.5t37 47.5q67 67 161.5 67t161.5 -67t67 -162q0 -27 -6 -53.5t-18.5 -50.5t-30.5 -45q-49 -58 -123 -74v-1
q134 -17 233 -110t123 -227q1 -7 -3 -12q-1 -2 -3 -3.5t-4.5 -2t-4.5 -0.5l-784 -1v0zM512 664q-53 0 -99 -26.5t-72.5 -72t-26.5 -99.5q0 -16 2.5 -31.5t7.5 -30t12 -28.5t15.5 -26t19 -23t23 -20t26 -16t28.5 -12.5t31 -7.5q13 -2 13 -16l-1 -28q0 -1 -0.5 -3t-1.5 -4
l-2 -2q-1 -2 -2.5 -3t-3.5 -1.5t-4 -1.5q-123 -11 -217 -93t-121 -202l746 1q-27 120 -121 202t-218 93q-4 0 -7 2t-5 5.5t-2 7.5v27q0 13 13 16q72 11 119 66.5t47 128.5q0 54 -27 99.5t-72.5 72t-99.5 26.5z" />
    <glyph glyph-name="uniE68B" unicode="&#xe68b;" 
d="M511 747q-97 0 -179.5 -48t-130.5 -130.5t-48 -179.5q0 -71 39 -166.5t94.5 -175.5t118 -136.5t106.5 -56.5t107 56.5t118 136.5t94 175.5t39 166.5q0 58 -18 112.5t-51 98.5t-77 77.5t-99 51.5t-113 18zM511 209q-74 0 -127 52.5t-53 127.5q0 48 24 89.5t65.5 65.5
t90.5 24t90 -24t65 -65.5t24 -89.5q0 -75 -52.5 -127.5t-126.5 -52.5z" />
    <glyph glyph-name="uniE697" unicode="&#xe697;" 
d="M275 -33q0 -31 15.5 -57.5t42 -42t57.5 -15.5q39 0 69 23t41 60q-106 32 -201 113q-24 -41 -24 -81zM283 430l22 -21q19 4 50.5 25.5t64 49t72 57t74 49.5t71 26t61.5 -13q-4 6 -10 11q-22 22 -51.5 24t-61 -11.5t-65 -35t-66.5 -48.5t-62 -50.5t-55.5 -41t-43.5 -21.5z
M912 688q0 17 -8.5 31.5t-23.5 23t-32 8.5q-25 0 -43 -16.5t-21 -41.5q-53 34 -115 34q-39 0 -79.5 -12t-86 -37t-74 -43t-77.5 -53q-35 -23 -52.5 -35t-44 -28t-45.5 -22.5t-34 -6.5q-13 0 -24.5 -4.5t-19.5 -13t-13 -19.5q-22 -54 25.5 -164.5t127.5 -190.5
q67 -67 159.5 -114t156.5 -47q36 0 56 17t20 47q0 20 15.5 51.5t31 55t46.5 69.5q27 39 41.5 60.5t38 61.5t34.5 66t22 64t9.5 67.5t-11.5 63.5t-33 65q23 3 38.5 21t15.5 42zM813 688q0 14 10 24.5t24.5 10.5t25 -10.5t10.5 -24.5q0 -10 -5 -18t-13 -12.5t-17 -4.5
q-11 0 -21 6l-6 6q-4 5 -6 10.5t-2 12.5zM722 201q-35 -50 -52 -76t-33 -62t-16 -62q0 -4 -0.5 -6.5t-3 -6.5t-10 -6t-19.5 -2q-53 0 -137.5 42.5t-147.5 105.5q-75 75 -117.5 173t-26.5 135q4 11 17 11q26 0 61.5 15.5t62 32.5t76.5 52q47 33 73.5 50t69 41t79.5 34.5
t71 10.5q15 0 29 -2t27.5 -6.5t26 -11.5t25 -16.5t23.5 -20.5q100 -100 24 -259q-26 -56 -102 -166z" />
    <glyph glyph-name="uniE6A6" unicode="&#xe6a6;" 
d="M823 637h-624q-29 0 -50.5 -21.5t-21.5 -50.5v-528q0 -30 21.5 -51t50.5 -21h624q30 0 51 21t21 51v528q0 9 -2.5 18.5t-7 17.5t-11 14.5t-14.5 11t-17.5 7.5t-19.5 3zM245 456q0 13 6.5 24.5t17.5 17.5t24 6h144q10 0 19 -3.5t15.5 -10t10 -15.5t3.5 -19v-192
q0 -19 -14 -33.5t-34 -14.5h-144q-13 0 -24 6.5t-17.5 17.5t-6.5 24v192zM753 97h-484q-6 0 -11.5 3t-9 8.5t-3.5 12.5q0 10 7 17t17 7h484q7 0 12.5 -3.5t8.5 -9t3 -11.5q0 -10 -7 -17t-17 -7zM753 217h-192q-4 0 -8.5 1.5t-8 5t-5.5 8t-2 9.5q0 3 1 6t2.5 5.5t4 5t5 4
t5.5 2.5t6 1h192q10 0 17 -7t7 -17t-7 -17t-17 -7zM753 337h-192q-4 0 -8.5 1.5t-8 5t-5.5 8t-2 9.5q0 9 7 16.5t17 7.5h192q5 0 9.5 -2t8 -5.5t5 -8t1.5 -8.5q0 -7 -3 -12.5t-8.5 -8.5t-12.5 -3zM753 456h-192q-4 0 -8.5 2t-8 5.5t-5.5 8t-2 8.5q0 10 7 17t17 7h192
q10 0 17 -7t7 -16.5t-7 -17t-17 -7.5z" />
    <glyph glyph-name="uniE6B0" unicode="&#xe6b0;" 
d="M377 506h383v-45h-383v45zM377 330h383v-45h-383v45zM377 154h186v-45h-186v45zM224 517h68v-67h-68v67zM224 341h68v-67h-68v67zM224 165h67v-67h-67v67zM506 -54h-332q-15 0 -15 20v646q0 20 15 20h647q14 0 14 -20v-374v0q0 -9 6.5 -15.5t15.5 -6.5t15 6.5t6 15.5v0
v416q0 9 -6.5 15.5t-15.5 6.5h-718q-9 0 -15.5 -6.5t-6.5 -15.5v-730q0 -6 3 -11t8 -8t11 -3h368q5 0 9 2t7 5t5 7t2 8q0 9 -6.5 15.5t-16.5 6.5zM910 111q6 6 6 15q0 10 -6.5 16.5t-15.5 6.5q-9 -1 -16 -7v0v0l-161 -161l-64 65q-7 6 -16 6q-5 0 -9 -1.5t-7 -4.5t-5 -7.5
t-2 -8.5q0 -9 7 -16l65 -65h-1l32 -32v1l1 -1l31 32z" />
    <glyph glyph-name="uniE6BC" unicode="&#xe6bc;" 
d="M952 17q4 -11 6 -30q2 -17 2 -35.5t-2 -34.5q-3 -16 -8 -24q-2 -1 -4.5 -3t-6.5 -4t-10 -3q-4 -2 -9 -3t-10.5 -2.5t-11.5 -2.5l-12 -2q-22 -4 -57 -9q-32 -4 -63 -6q-32 -3 -61 -5q-30 -1 -51 -1t-51 1q-29 2 -60 5q-22 2 -61 6q-31 3 -56 7q-26 4 -42 8q-18 4 -22 7
q-3 2 -5 7t-3 13l-4 17q-4 32 3 80q2 14 8 25t15 18q18 14 43 23q26 9 51 15q26 7 46 20l8 6l6 4q4 3 6 6l5 4q8 9 12 18t4 18q0 8 -1 23q-1 17 -12 28q-12 10 -23 19q-6 6 -11 15.5t-9 19.5q-3 11 -7 24q-6 2 -10 5q-5 4 -10 11t-9 20q-2 6 -3 11.5t-1 11.5q1 11 5 18
q3 9 9 16q0 29 3 58q4 24 11 52q8 27 24 50q14 21 32 34.5t36 20.5q9 4 18.5 6.5t19 4t18.5 2t17 0.5q23 0 43 -4.5t38 -14t31 -19.5t21 -20q5 -6 9.5 -12.5t8 -13t6.5 -14t5 -14.5q9 -29 14 -55q1 -11 2 -21t1.5 -20t-0.5 -20q5 -4 8 -10q2 -2 3 -5.5t2 -7.5q2 -9 1 -21
q-1 -8 -3 -14.5t-4 -11.5q-6 -10 -11 -15q-3 -3 -6.5 -5t-7.5 -3q-1 -4 -2.5 -8.5t-2.5 -8t-2 -7.5q-2 -5 -4.5 -10t-5 -9.5t-5.5 -8t-6 -6.5q-4 -3 -7 -5.5t-6 -4.5l-10 -10q-4 -4 -7 -11q-1 -1 -2 -3t-1 -4l-2 -4v-4q-2 -12 -2 -23l2 -12q1 -6 4 -12q6 -12 17 -22
q13 -11 34 -19q9 -4 19.5 -7.5t21.5 -5.5l12 -4l10 -2q6 -2 11 -4t11 -4q20 -8 37 -21q8 -6 14 -14t9 -18zM479 181q-2 -10 -4 -15q-2 -3 -5 -6t-8 -6q-3 -2 -6.5 -4t-7 -3.5t-7 -3.5t-7.5 -3l-6 -4q-4 -1 -8 -2.5t-7 -2.5q-28 -9 -52 -19q-24 -11 -42 -28q-9 -9 -15 -21.5
t-8 -28.5q0 -3 -0.5 -6t-1 -6.5t-0.5 -6.5t-0.5 -6t-0.5 -5v-6h-1q-1 -2 -1 -3l-2 -3q-40 3 -70 6q-33 3 -65 8q-30 4 -51 9q-20 4 -25 9q-2 1 -3.5 3t-2.5 5.5t-2.5 7.5t-2 9.5t-1.5 11.5q-4 31 3 81q4 27 22 42q19 15 44 23q8 3 17 5l16 6l18 4q26 8 46 20q16 10 25 19
q8 9 12 19q3 9 3 19t-1 21q-1 18 -12 28q-3 4 -6.5 7t-7.5 6.5t-8 7.5q-4 2 -7 5.5t-5.5 8.5t-4.5 10l-4 10q-3 10 -7 23l-11 6q-2 2 -4 4.5t-5 6.5q-5 7 -9 19q-5 13 -4 23q1 12 5 20q3 9 9 16q0 28 3 57q4 24 12 52q4 13 10 25.5t14 23.5q14 22 32 35q6 4 11.5 8t12 7
t12.5 6q17 7 36 10q4 1 8 1t7.5 0.5t7 0.5t7 0.5t7.5 0.5q22 0 42 -5t38 -14q35 -18 53 -40q3 -4 5.5 -7.5t3.5 -7.5l4 -6q1 -4 2 -7q3 -15 8 -30q-17 -10 -36 -28q-19 -20 -33 -39q-6 -8 -11 -17t-9 -18.5t-7 -19.5q-4 -15 -7.5 -29t-5.5 -27q-4 -31 -4 -62q-3 -3 -5 -5.5
t-3.5 -5.5t-2.5 -7q-4 -9 -5 -21v-6q0 -3 0.5 -6t1.5 -6.5t2 -7.5q2 -7 4.5 -13t5.5 -10q5 -8 9 -12q3 -3 6 -5l5 -2q4 -15 7 -27q4 -11 9 -22t12 -16q3 -3 5.5 -5t3.5 -4q2 -1 3 -2t2 -2.5t1 -2.5q2 -3 2.5 -8t2.5 -14z" />
    <glyph glyph-name="uniE6C2" unicode="&#xe6c2;" 
d="M385 312l23 -1v166q-1 6 -4 9q-4 3 -9 4h-125q-6 0 -9.5 -4t-3.5 -9v-166l23 1l2 6v147h101v-147zM458 280q-1 1 -2 2.5t-2.5 2t-2.5 0.5l-43 1l-25 1h-11h-5l-3 7l-24 71q-2 5 -8 5q-5 -1 -7 -5l-24 -71l-3 -7h-5h-11l-25 -1l-43 -1q-5 0 -6.5 -5t2.5 -8l66 -50l-24 -79
q0 -3 0.5 -5t2.5 -4h1l1 -1h1v0h1h1h1h1v1h2l68 47l69 -47q1 0 2 -0.5t2 -0.5q3 0 5 1.5t2.5 3.5t0.5 5l-25 79l67 50q4 3 3 8zM938 286h-449q-7 0 -12 -5t-5 -12v-292q0 -7 5 -12t12 -5h104l-9 33h-79v259h416v-259h-74q29 -12 54 -33h37q5 0 8.5 2t6 6t2.5 9v292
q0 7 -5 12t-12 5zM827 -35l-5 2q-2 1 -4 1q-1 1 -2.5 1.5t-3.5 1t-3 0.5t-1.5 0.5t-1.5 0.5h-2q-2 0 -3 -1q-14 -8 -34 -8t-34 8q-1 1 -3 1h-2l-1 -1q-4 -1 -10 -3q-2 0 -5 -1q-2 -1 -5 -2q-6 -2 -12 -5q-5 -2 -8.5 -4t-7.5 -4l-5 8l-5 8l-40 64q-2 3 -5.5 4t-7.5 0
q-8 -4 -6 -12l9 -31l9 -33l14 -52q0 -1 1 -2v-3q0 -2 1.5 -3.5t3.5 -1.5h238q4 2 5 5v19q0 2 -1 4q-14 13 -29.5 23t-33.5 16zM708 51q0 -10 10 -10q2 -21 16 -37t33 -16t33 16t16 37q10 0 10 10q0 3 -2 6t-4 4q3 9 3 19q0 24 -16.5 41.5t-39.5 17.5t-39.5 -17.5
t-16.5 -41.5q0 -10 3 -19q-5 -4 -6 -10zM379 81h-93v-149h-150v675l393 61v-237v-131h62v73l209 -47v-26h59v27q17 11 22 30t-5.5 36t-29.5 21l-238 59q-8 2 -17 1v190q22 17 17 44q-3 19 -18.5 31t-35.5 9l-452 -71q-10 -1 -18 -6t-13.5 -12.5t-7.5 -17t-1 -18.5
q3 -18 17 -30v-711q0 -12 9 -21t21 -9h372v80h-102v149z" />
    <glyph glyph-name="uniE6C6" unicode="&#xe6c6;" 
d="M128 249h582l-262 -263l64 -70l384 384l-384 384l-64 -64l269 -269h-589v-102z" />
    <glyph glyph-name="uniE6CB" unicode="&#xe6cb;" 
d="M649 107h-365q-9 0 -15.5 6.5t-6.5 16t6.5 16t15.5 6.5h365q6 0 11 -3t8 -8t3 -12q0 -9 -6.5 -15.5t-15.5 -6.5zM649 220h-365q-9 0 -15.5 7t-6.5 16q0 6 3 11.5t8 8.5t11 3h365q4 0 8.5 -2t7.5 -5t4.5 -7t1.5 -9q0 -9 -6.5 -16t-15.5 -7zM375 448q-4 0 -8.5 2t-7.5 5
t-4.5 7t-1.5 8.5t1.5 9t4.5 7.5t7.5 4.5t8.5 1.5h183q9 0 15.5 -6.5t6.5 -16t-6.5 -16t-15.5 -6.5h-183zM671 357q0 -10 -6.5 -16.5t-15.5 -6.5h-365q-3 0 -6.5 1t-6.5 3.5t-5 5t-3 6t-1 7.5q0 6 3 11.5t8 8.5t11 3h365q6 0 11 -3t8 -8.5t3 -11.5zM853 -53h-682
q-19 0 -34.5 9.5t-25 25t-9.5 34.5v568q0 29 20 49t49 20h341h205h68q7 0 14 -2.5t13 -6.5t10 -9.5t6.5 -12.5t2.5 -15v-318v-75v-130q0 -6 -3.5 -11.5t-8.5 -8.5t-11 -3q-5 0 -9 2t-7 5t-5 7t-2 9v136v69v273q0 19 -13.5 32t-31.5 13h-274h-68h-205q-18 0 -31.5 -13
t-13.5 -32v-524q0 -12 6 -22.5t16.5 -16.5t22.5 -6h569h46h23q9 0 17.5 3.5t14.5 9.5t9.5 14.5t3.5 17.5v524q0 9 6.5 15.5t16.5 6.5q6 0 11.5 -3t8.5 -8t3 -11v-524v-22q0 -29 -20 -49t-49 -20z" />
    <glyph glyph-name="uniE6E7" unicode="&#xe6e7;" 
d="M614 658q0 -34 -17 -63.5t-46.5 -47t-64.5 -17.5q-53 0 -90.5 37.5t-37.5 90.5t37.5 90.5t90.5 37.5t90.5 -37.5t37.5 -90.5zM758 431q48 0 81 33q22 23 30 52.5t0 59t-30 51.5q-33 34 -81 34q-9 0 -17.5 -1.5t-17.5 -4t-17 -6.5t-15.5 -9.5t-13.5 -12.5q-34 -33 -34 -81
t34 -82q16 -16 37 -24.5t44 -8.5zM870.5 377q-42.5 0 -72.5 -30t-30 -72.5t30 -72.5t72 -30q28 0 51.5 13.5t37.5 37.5t14 51q0 43 -30 73t-72.5 30zM758 93q-12 0 -23 -3t-21.5 -9t-18.5 -15q-27 -26 -27 -63t27 -63q8 -9 18.5 -15t21.5 -9t23 -3q37 0 63 27q27 26 27 63
t-27 63q-12 13 -29 20t-34 7zM486.5 -33q-31.5 0 -54 -22.5t-22.5 -54t22.5 -54t54 -22.5t54 22.5t22.5 54t-22.5 54t-54 22.5zM215 67q-27 0 -45.5 -19t-18.5 -45.5t18.5 -45t45 -18.5t45.5 18.5t19 45t-19 45.5q-4 5 -9.5 8.5t-11.5 5.5t-12 3.5t-12 1.5zM102 326
q-21 0 -36 -15t-15 -36.5t15 -36.5t36 -15q11 0 20.5 4t16.5 11t11 16.5t4 19.5q0 14 -7 26t-19 19t-26 7zM215 508h5q1 1 2 1q13 2 20 10q11 11 11 27t-11 27q-6 6 -13 8.5t-14 2.5q-16 0 -27 -11q-6 -5 -9 -12.5t-3 -14.5t3 -14.5t9 -12.5q11 -11 27 -11z" />
    <glyph glyph-name="uniE6ED" unicode="&#xe6ed;" 
d="M915 146h-26l1 2v1v56q0 54 -38 91.5t-92 37.5q-15 0 -29.5 -3t-27 -9.5t-24 -15.5t-20 -20t-15 -24t-10 -27.5t-3.5 -29.5v-56v-2v-1h-15q-12 0 -21.5 -5.5t-15.5 -15.5t-6 -22v-205q0 -18 12.5 -31t30.5 -13h299q18 0 30.5 13t12.5 31v205q0 18 -12.5 30.5t-30.5 12.5z
M697 149v56q0 26 18.5 44.5t44.5 18.5t45 -18.5t19 -44.5v-56v-2v-1h-127v2v1zM925 -102q0 -11 -10 -11h-299q-10 0 -10 11v205q0 4 3 7t7 3h299q2 0 4 -0.5t3.5 -2t2 -3.5t0.5 -4v-205zM766 11q-11 0 -18 -7t-7 -17v-48h49v48q0 3 -0.5 6t-2.5 6t-4 5t-5 3.5t-6 2.5t-6 1z
M627 200q-24 9 -47 15q-4 2 -8 2h-9l-7 -2q-7 -4 -19 -9q-4 -1 -16 -5q-1 0 -3 -1l-4 -1q-5 -1 -14 -3q-3 -1 -6 -1.5t-7 -0.5q-9 -1 -11 -2q-5 0 -9 -0.5t-9 -0.5h-8h-4h-3h-3q-18 1 -35 4t-33 8t-28 12q-4 2 -8 2h-6q-2 0 -4 -1q-146 -34 -257 -142q-5 -5 -5 -12v-58
q0 -19 5 -84t11 -65h360h97h24q-29 61 -29 129q0 63 25 119t70 97zM267 473q0 -13 9 -22t21 -9h1q3 -42 23.5 -80t55 -62.5t73.5 -24.5q6 0 13 1q1 0 5 1q2 0 4 0.5t4 0.5q2 1 6 2q2 0 7 2q4 2 6 2q1 1 3 2h1q42 19 70.5 62.5t32.5 93.5q6 0 11.5 2.5t9.5 6.5t6.5 10t2.5 12
q0 10 -5 17.5t-13 11.5q10 29 10 60q0 14 -2 27.5t-6 26.5t-9 25t-12 22.5t-15 20.5t-17.5 18.5t-20 15.5t-22 12.5t-23.5 8.5l-4 1q-8 2 -17 4h-1l-4 1q-12 1 -21 1q-48 0 -88 -24.5t-63 -67t-23 -92.5q0 -31 9 -60q-3 -1 -5 -4l-6 -4q-2 -3 -3.5 -6.5t-2.5 -7t-1 -7.5z
" />
    <glyph glyph-name="uniE6EE" unicode="&#xe6ee;" 
d="M850 204v-85q0 -6 -4 -13v-1l-1 -1l-1 -1q-3 -3 -4 -5l-5 -3l-4 -2q-2 -1 -6 -1h-1l-2 -1q-1 0 -2 1q-2 0 -5.5 1t-5.5 1q0 1 -1 1l-189 109h-163q-10 0 -20 1.5t-19 5t-17.5 8.5t-16 11t-13.5 13.5t-11 16t-8.5 17.5t-5 19t-1.5 20v281q0 12 2 23t6.5 21t10.5 19
t13.5 16.5t16.5 14t19 10.5t21.5 6.5t22.5 2.5h394q23 0 43.5 -9t35.5 -24t24 -36t9 -44v-281q0 -46 -33 -79t-79 -33zM906 597q0 15 -7.5 28t-20.5 20.5t-28 7.5h-394q-15 0 -28 -7.5t-20.5 -20.5t-7.5 -28v-281q0 -23 16.5 -39.5t39.5 -16.5h172h1q7 -1 12 -4l153 -88v64
q0 7 3.5 13.5t10 10.5t14.5 4h28q23 0 39.5 16.5t16.5 39.5v281zM821.5 429q-11.5 0 -19.5 8t-8 19.5t8 20t19.5 8.5t20 -8.5t8.5 -20t-8.5 -19.5t-20 -8zM653 429q-12 0 -20 8t-8 20q0 7 3.5 13.5t10 10.5t14.5 4q12 0 20 -8.5t8 -19.5q0 -6 -2 -11t-6 -9t-9 -6t-11 -2z
M484.5 429q-11.5 0 -20 8t-8.5 19.5t8.5 20t20 8.5t19.5 -8.5t8 -20t-8 -19.5t-19.5 -8zM119 372v-281q0 -9 3 -17.5t8 -15.5t12 -12t15.5 -8t17.5 -3h28q12 0 20 -8t8 -20v-64l153 88q5 3 12 4h1h172q23 0 39.5 16.5t16.5 39.5h56q0 -11 -2.5 -22.5t-6.5 -21t-10 -19
t-13.5 -17t-17 -13.5t-19.5 -10.5t-21 -6.5t-22 -2h-163l-189 -109h-1q-2 -1 -6 -2q-3 -1 -5 -1l-1 -1h-1h-1l-2 1l-6 1q-2 1 -5 3l-4 3q-1 0 -2 1t-2 3l-1 1l-1 1v1q-4 7 -4 14v84q-46 0 -79 33t-33 79v281q0 47 33 80t79 33h113v-56h-113q-23 0 -39.5 -16.5t-16.5 -40.5z
" />
    <glyph glyph-name="uniE6F1" unicode="&#xe6f1;" 
d="M898 744h-773q-24 0 -40.5 -16.5t-16.5 -40.5v-542q0 -24 16.5 -41t40.5 -17h773q25 0 41.5 17t16.5 41v542q0 11 -4.5 22t-12 18.5t-18.5 12t-23 4.5zM898 165q0 -4 -1.5 -7.5t-4 -6t-6 -4.5t-7.5 -2h-734q-8 0 -14 6t-6 14v502q0 8 6 14t14 6h734q5 0 9.5 -3t7 -7.5
t2.5 -9.5v-502zM667 -9q0 3 -1 6t-3 5.5t-4.5 4t-5.5 2.5t-6 1h-270q-8 0 -14 -5.5t-6 -13.5v-77h-193v-58h696v58h-193v77zM743 243l-124 131l-9 11l-11 -11l-75 -79l-131 138l-9 10l-11 -10l-170 -179l20 -21l160 169l131 -139l11 -14l9 14l75 79l132 -139l19 -17l5 24
l56 239l-27 7zM463 504q57 -124 57 -153q27 101 49 144q16 20 16 45q0 29 -19 49t-46.5 20t-47 -20t-19.5 -49q0 -3 0.5 -6.5t1 -6.5t1.5 -6l2 -6l2 -6z" />
    <glyph glyph-name="uniE6FD" unicode="&#xe6fd;" 
d="M146 519h585v-73h-585v73zM146 337h220v-256h-220v256zM439 337h292v-37h-292v37zM439 227h292v-37h-292v37zM439 117h292v-36h-292v36zM987 519h-109v183q0 15 -11 26t-26 11h-804q-8 0 -14.5 -3t-11.5 -8t-8 -11.5t-3 -14.5v-804q0 -10 5 -18.5t13.5 -13.5t18.5 -5h950
q16 0 26.5 11t10.5 26v585q0 7 -3 14t-8 12t-11.5 7.5t-14.5 2.5zM805 -66h-732v732h732v-732zM951 -66h-73v512h73v-512z" />
    <glyph glyph-name="uniE706" unicode="&#xe706;" 
d="M218 287l-71 -83l237 -250l531 564l-77 76l-454 -486z" />
    <glyph glyph-name="uniE72C" unicode="&#xe72c;" horiz-adv-x="1025" 
d="M512 764q94 0 180 -37t148 -99t99 -148t37 -180t-37 -180t-99 -148t-148 -99t-180 -37t-180 37t-148 99t-99 148t-37 180t37 180t99 148t148 99t180 37zM512 812q-139 0 -257 -68.5t-186.5 -186.5t-68.5 -257t68.5 -257t186.5 -186.5t257 -68.5t257 68.5t186.5 186.5
t68.5 257t-68.5 257t-186.5 186.5t-257 68.5zM738 119l-181 181l181 181q10 9 10 22.5t-9.5 23t-23 9.5t-22.5 -10l-181 -181l-181 181q-9 10 -22.5 10t-23 -9.5t-9.5 -23t10 -22.5l181 -181l-181 -181q-10 -9 -10 -22.5t9.5 -23t23 -9.5t22.5 10l181 181l181 -181
q9 -10 22.5 -10t22.5 10q6 6 8.5 14t0 16.5t-8.5 14.5z" />
    <glyph glyph-name="uniE755" unicode="&#xe755;" 
d="M576 217q-16 -15 -29 -26q6 33 30 115q21 69 21 81q0 14 -11 24q-11 9 -31.5 7t-44.5 -16q-28 -15 -61 -52l-11 -12l38 -30l10 10q9 9 22 21q-43 -142 -43 -182q0 -18 10 -30q11 -11 29 -11q17 0 40 13q21 11 65 53l12 12l-35 34zM940 477q-35 82 -99 146q-63 64 -146 99
q-85 36 -179 36t-179 -36q-21 -9 -40.5 -19.5t-38 -23t-35.5 -26.5t-33 -30q-64 -64 -98 -146q-37 -86 -37 -179.5t37 -179.5q34 -82 98 -146t146 -98q86 -36 180 -37q31 0 61 4t60 12.5t58 20.5q41 17 77.5 42t68.5 56.5t56.5 68t42.5 77.5q36 86 36 179.5t-36 179.5z
M917 297.5q0 -81.5 -31.5 -156t-85.5 -128t-128.5 -85.5t-155.5 -32q-109 0 -201.5 54t-146.5 146.5t-54 201.5q0 81 32 155.5t85.5 128.5t128 85.5t156 31.5t156 -31.5t128.5 -85.5t85.5 -128.5t31.5 -156zM564 536q-13 -15 -13 -35q0 -8 2.5 -15t8.5 -13q11 -11 27 -11
q19 0 33 15q13 15 13 35q0 16 -10 27q-8 8 -19 10.5t-22.5 -1.5t-19.5 -12z" />
    <glyph glyph-name="uniE75D" unicode="&#xe75d;" 
d="M491 -70q73 0 140 28.5t115 77t76.5 115.5t28.5 140q0 59 -18 114t-51.5 99.5t-78 77.5t-99.5 51.5t-113 18.5q-98 0 -181.5 -48.5t-131.5 -131.5t-48 -181t48 -181t131.5 -131.5t181.5 -48.5zM491 584q39 0 77 -10.5t70.5 -29.5t59.5 -46t46 -59t29.5 -70t10.5 -78
q0 -121 -86 -207t-207.5 -86t-207.5 86t-86 207t86 207t208 86zM445 489h91v-91h-91v91zM445 322h91v-229h-91v229z" />
    <glyph glyph-name="uniE792" unicode="&#xe792;" 
d="M238 551q0 -4 -1 -8t-3.5 -7.5t-5.5 -5.5t-7 -3.5t-8 -1.5h-125q-11 0 -18.5 7.5t-7.5 18.5v123q0 10 7.5 17.5t18.5 7.5h125q10 0 17.5 -7.5t7.5 -17.5v-123zM957 569q0 -9 -4 -17.5t-10 -14.5t-14.5 -10t-18.5 -4h-535q-19 0 -32.5 13.5t-13.5 32.5v86q0 13 6 23.5
t16.5 16.5t23.5 6h535q20 0 33.5 -13.5t13.5 -32.5v-86zM238 239q0 -11 -7.5 -18.5t-17.5 -7.5h-125q-7 0 -13 3.5t-9.5 9.5t-3.5 13v122q0 11 7.5 18.5t18.5 7.5h125q10 0 17.5 -7.5t7.5 -18.5v-122zM957 257q0 -19 -13.5 -32.5t-33.5 -13.5h-535q-19 0 -32.5 13.5
t-13.5 32.5v86q0 12 6 23t16.5 17t23.5 6h535q13 0 23.5 -6t17 -17t6.5 -23v-86zM238 -76q0 -10 -7.5 -17.5t-17.5 -7.5h-125q-11 0 -18.5 7.5t-7.5 17.5v123q0 11 7.5 18.5t18.5 7.5h125q10 0 17.5 -7.5t7.5 -18.5v-123zM957 -57q0 -19 -13.5 -32.5t-33.5 -13.5h-535
q-19 0 -32.5 13.5t-13.5 32.5v86q0 9 3.5 17.5t9.5 14.5t14.5 10t18.5 4h535q20 0 33.5 -13.5t13.5 -32.5v-86z" />
    <glyph glyph-name="uF0003" unicode="&#xf0003;" 
d="M491 769q-100 0 -191 -38.5t-156.5 -104.5t-104.5 -157t-39 -190.5t39 -190.5t104.5 -157t156.5 -104.5t191 -38.5t191 38.5t156.5 104.5t104.5 157t39 190q0 80 -25 155t-70.5 135.5t-105.5 106t-135 70t-155 24.5zM705 131l-66 -67q-5 -5 -12 -5t-12 5l-124 124
l-124 -124q-5 -5 -12 -5t-12 5l-66 67q-3 2 -4 5t-1 6.5t1 6.5t4 6l123 123l-123 124q-5 5 -5 12t5 12l66 67q5 5 12 5t12 -5l124 -124l124 124q5 5 12 5t12 -5l66 -67q5 -5 5 -12t-5 -12l-124 -124l124 -123q5 -5 5 -12t-5 -12z" />
    <glyph glyph-name="uF004C" unicode="&#xf004c;" 
d="M938 -27l-214 216q-2 2 -8 7q18 28 30.5 59t19.5 65.5t7 69.5q0 98 -47.5 180t-129 130t-177.5 48q-58 0 -112 -18t-98 -51t-76.5 -77t-50.5 -98.5t-18 -113.5q0 -97 47.5 -179t129 -130t178.5 -48q104 0 193 58q4 -6 6 -8l214 -216q22 -22 53 -22q15 0 28.5 5.5
t24.5 16.5q22 22 22 53t-22 53zM419 146q-101 0 -172 71.5t-71 173t71 173t171.5 71.5t171.5 -71.5t71 -173.5q0 -49 -19 -94.5t-51.5 -78t-77.5 -52t-94 -19.5z" />
    <glyph glyph-name="uF007C" unicode="&#xf007c;" 
d="M748 469h-287v141q0 26 -16 35t-39 -6l-278 -180q-22 -15 -22 -35.5t22 -34.5l276 -179q16 -9 28.5 -7.5t20.5 12t8 24.5v122h206q32 0 56 -14.5t34.5 -35.5t16.5 -42t7 -35v-15q-1 0 0 -8.5t-1.5 -23t-5 -31.5t-11.5 -34t-20.5 -31t-31 -23t-44.5 -9h-425q-2 0 -5.5 -1
t-12 -4.5t-15 -9t-12 -16.5t-5.5 -26q0 -23 12.5 -36.5t25.5 -15.5l12 -1h506q35 0 63 15t45 39t30 53t18.5 58.5t9 53.5t4.5 39v15q0 5 -0.5 14t-4 34.5t-9 49t-18.5 52t-30 49t-45 34.5t-63 14z" />
    <glyph glyph-name="uF0084" unicode="&#xf0084;" 
d="M98 699h-34v-830h899v34l-864 1zM548 665q0 14 -10 24t-24 10h-104q-15 0 -25 -10t-10 -24v-692h173v692zM341 457q0 15 -10.5 25t-24.5 10h-104q-14 0 -24 -10t-10 -25v-484h173v484zM756 250q0 9 -5 17t-13 12.5t-17 4.5h-104q-14 0 -24 -10t-10 -24v-277h173v277z
M929 77h-104q-10 0 -18 -4.5t-12.5 -12.5t-4.5 -18v-69h173v69q0 10 -4.5 18t-12.5 12.5t-17 4.5z" />
    <glyph glyph-name="uF0085" unicode="&#xf0085;" 
d="M319 388l8 30l-117 31l-8 -29zM174.5 82q-18.5 5 -34.5 -4.5t-21 -27.5t4.5 -34.5t27.5 -21.5t34.5 4.5t21 27.5t-4.5 34.5t-27.5 21.5zM589 75q-19 0 -32 -13t-13 -32t13 -32.5t32 -13.5t32.5 13.5t13.5 32.5t-13.5 32t-32.5 13zM650 500h-121v-31h121v31zM411 615
l-175 47q-12 3 -23 -3t-14 -18l-181 -674q-3 -12 3 -23t18 -14l176 -47q8 -2 16 0t13.5 7.5t7.5 13.5l181 674q1 5 1 9.5t-2 9t-5 8t-7 6.5t-9 4zM251 16.5q-10 -36.5 -42.5 -55.5t-69 -9t-55 42.5t-9.5 68.5q7 24 24 41t40.5 23.5t47.5 0.5q36 -10 55 -42.5t9 -69zM286 146
l-176 47l94 352l176 -47zM343 476l-117 32l-8 -30l117 -31zM923 439h-122v-30h122v30zM923 378h-122v-30h122v30zM923 500h-122v-31h122v31zM650 439h-121v-30h121v30zM953 651h-182q-12 0 -21 -8.5t-9 -21.5v-697q0 -13 9 -22t21 -9h182q6 0 11.5 2.5t10 6.5t6.5 9.5
t2 12.5v697q0 13 -8.5 21.5t-21.5 8.5zM862 -61q-38 0 -64.5 26.5t-26.5 64.5q0 24 12 45t33 33.5t46 12.5q38 0 64.5 -27t26.5 -64.5t-26.5 -64t-64.5 -26.5zM953 166h-182v364h182v-364zM680 651h-182q-12 0 -21 -8.5t-9 -21.5v-697q0 -7 2.5 -12.5t6.5 -9.5t9.5 -6.5
t11.5 -2.5h182q13 0 22 9t9 22v697q0 13 -9 21.5t-22 8.5zM589 -59q-37 0 -64 26.5t-27 64t27 64.5t64.5 27t64 -27t26.5 -64q0 -19 -7 -36t-19.5 -29t-29 -19t-35.5 -7zM680 166h-182v364h182v-364zM650 378h-121v-30h121v30zM862 75q-19 0 -32 -13t-13 -32t13 -32.5
t32 -13.5t32.5 13.5t13.5 32.5t-13.5 32t-32.5 13zM186 361l118 -31l7 29l-117 32z" />
    <glyph glyph-name="uF0088" unicode="&#xf0088;" horiz-adv-x="1025" 
d="M614 549q-66 0 -113.5 -47t-47.5 -113.5t47.5 -114t114 -47.5t113.5 47.5t47 114t-47 113.5t-114 47zM939 800h-854q-35 0 -60 -25t-25 -60v-853q0 -35 25 -60t60 -25h854q12 0 23 3t20 8.5t17 13.5t13.5 17.5t8.5 20.5t3 22v853q0 35 -25 60t-60 25zM614 147
q-23 0 -45 4t-42 12t-38 19l-76 -75l81 -80l-81 -81l-80 81l-81 -81l-80 81l80 80l-80 80l80 81l81 -81l75 76q-35 57 -35 125q0 100 70.5 170.5t170.5 70.5q25 0 49 -5t45.5 -14t41 -22t35.5 -29.5t29.5 -36t22.5 -40.5t14 -45t5 -49q0 -100 -71 -170.5t-171 -70.5v0z" />
    <glyph glyph-name="uF00A8" unicode="&#xf00a8;" 
d="M481 725q-14 0 -20.5 -3.5t-11 -7.5t-10.5 -5q-4 0 -11 1.5t-35 -3.5q-23 -5 -39.5 -25t-22.5 -38t-7 -33q-5 -48 -2 -125q1 -4 1 -7.5t-1 -5.5t-2.5 -3.5t-3 -2.5t-2.5 -1l-2 -1h-1q-13 1 -17.5 -21.5t-1.5 -45.5l2 -23q1 -3 2 -10t1.5 -9.5t3 -7.5t6.5 -8t11.5 -7.5
t18.5 -8.5q5 -17 15 -32.5t20 -25.5t19 -18t15 -11l6 -4v-1v-6v-10v-10v-12q0 -6 0.5 -12.5t0.5 -11.5q-1 0 -1 -2t-0.5 -6t-1.5 -9.5t-4.5 -12t-8.5 -13.5t-14 -14t-21 -13t-30 -11t-40 -8q-32 -5 -59 -12.5t-43.5 -14t-32.5 -17t-21.5 -15.5t-17.5 -16l-13 -14
q-24 -23 -24 -143h874q0 13 -2 33.5t-10 59.5t-20 50q0 1 -12.5 13.5t-17.5 16.5t-22 15.5t-33.5 17.5t-43.5 13.5t-60 12.5q-26 4 -47 10.5t-32.5 15t-19 17.5t-9.5 18t-3 15.5t-1 11.5l1 5q1 2 1 6v10v10q0 6 0.5 11.5t0.5 9.5v7v2q5 4 13.5 11.5t26.5 32.5t27 52
q6 3 17 9.5t14 9t8.5 7t7.5 9.5t3 12q1 1 1 3t0.5 8.5t0.5 12.5v15q0 8 -1 15t-2.5 14.5t-4 12.5t-6.5 8t-9 3q0 1 -3.5 0t-6 3t-0.5 14q3 19 3 54t-2 56q0 3 -0.5 12t-1.5 16.5t-2.5 17.5t-4.5 18t-8 15.5t-13 13t-18 7.5q-18 3 -33.5 2t-20.5 0q-7 1 -17 12t-23 22t-27 11
z" />
    <glyph glyph-name="uF00B0" unicode="&#xf00b0;" 
d="M545 179q-79 0 -148 34t-116 93q-149 -87 -217 -246q-41 -97 -42 -203h552q-51 71 -51 159q0 23 3.5 45.5t11 43.5t17.5 40t24 36q-8 -1 -16.5 -1.5t-17.5 -0.5zM795 223q-86 0 -146.5 -61t-60.5 -146.5t60.5 -146t146.5 -60.5t146.5 60.5t60.5 146t-60.5 146.5
t-146.5 61zM937 14q0 -10 -5 -18t-13 -13t-18 -5h-68v-68q0 -7 -2.5 -13.5t-7.5 -11.5t-11.5 -7.5t-13.5 -2.5h-5q-15 0 -25.5 10.5t-10.5 24.5v68h-68q-5 0 -10.5 2t-10 5t-8 7.5t-5 10t-1.5 11.5v4q0 15 10.5 25.5t24.5 10.5h68v68q0 14 10.5 24.5t25.5 10.5h5
q9 0 17.5 -4.5t13 -13t4.5 -17.5v-68h68q7 0 14 -3t11.5 -7.5t7.5 -11t3 -14.5v-4zM554 519zM282 519q0 113 79.5 192.5t192.5 79.5q55 0 105.5 -21.5t87 -58t58 -87t21.5 -105.5q0 -113 -80 -192.5t-192.5 -79.5t-192 79.5t-79.5 192.5z" />
    <glyph glyph-name="uF00C2" unicode="&#xf00c2;" 
d="M906 529q-30 51 -71 91q-21 21 -44.5 39t-47.5 33l56 56q9 0 23.5 -1t47.5 -11t51 -29q39 -40 41 -122zM404 20h-170v170l20 21q56 -27 100 -71t71 -100zM859 482l-385 -393q-32 53 -75 95q-43 44 -96 75l393 386q54 -25 96 -67t67 -96zM177 636v-673h673v280l112 113
v-423q0 -34 -24 -58t-57 -24h-735q-33 0 -57 24t-24 58v734q0 33 24 57t57 24h424l-113 -112h-280z" />
    <glyph glyph-name="uF00C6" unicode="&#xf00c6;" 
d="M512 736q-88 0 -169 -34.5t-139.5 -93t-93 -139.5t-34.5 -169.5t34.5 -169.5t93 -139.5t139.5 -93t169.5 -34.5t169.5 34.5t139.5 93t93 139.5t34.5 170q0 44 -9 87.5t-25.5 82t-40.5 74t-53 65t-64.5 53t-74 40t-82 25.5t-88.5 9zM512 38q-53 0 -101.5 20.5t-83.5 55.5
t-56 83.5t-21 102.5q0 108 77 184.5t185 76.5q71 0 131.5 -35t95.5 -95t35 -131q0 -109 -76.5 -185.5t-185.5 -76.5z" />
    <glyph glyph-name="uF00CF" unicode="&#xf00cf;" 
d="M683 723q-14 0 -23.5 -9t-9.5 -22v-777q0 -13 9.5 -22.5t23 -9.5t23 9.5t9.5 22.5v777q0 8 -4.5 15.5t-11.5 11.5t-16 4zM770.5 705q-2.5 0 -5.5 -1t-4.5 -2.5t-3 -4.5t-1.5 -5v-777q0 -5 4.5 -9.5t10 -4.5t10 4.5t4.5 9.5v777q0 2 -1.5 5t-3 4.5t-4.5 2.5t-5.5 1z
M846 705q-4 0 -7 -1.5t-5 -5t-2 -6.5v-777q0 -2 1 -5t3 -4.5t4.5 -3t5.5 -1.5q6 0 10 4.5t4 9.5v777q-2 12 -14 13zM932 723q-9 0 -16.5 -4t-12 -11.5t-4.5 -15.5v-777q0 -13 9.5 -22.5t23.5 -9.5q6 0 12 2.5t10.5 7t7 10.5t2.5 12v777q0 13 -9.5 22t-22.5 9zM533 723h-121
q-15 0 -28.5 -7.5t-21 -20.5t-7.5 -29l-1 -724q0 -23 17 -39.5t41 -16.5h120q24 0 41 16.5t17 39.5v724q0 23 -16.5 40t-40.5 17zM521 452h-98q-2 0 -5 0.5t-5 2t-4 3.5t-3 4t-2 4.5t-1 5.5q0 8 6 13.5t14 5.5h98q9 0 14.5 -5.5t5.5 -13.5q0 -6 -2.5 -10.5t-7 -7t-10.5 -2.5
zM521 536h-97q-9 0 -15 6t-6 14q0 5 3 9.5t7.5 7.5t10.5 3h97q6 0 10.5 -3t7 -7.5t2.5 -9.5q0 -8 -5.5 -14t-14.5 -6zM240 723h-120q-16 0 -29 -7.5t-21 -20.5t-8 -29v-724q0 -23 17 -39.5t40 -16.5h121q15 0 28.5 7.5t21.5 20.5t8 28v724q0 15 -7.5 28t-21 21t-29.5 8z
M229 452h-98q-5 0 -10 2.5t-7.5 7t-2.5 10.5q0 8 6 13.5t14 5.5h98q8 0 14 -5.5t6 -13.5q0 -6 -2.5 -10.5t-7.5 -7t-10 -2.5zM229 536h-98q-4 0 -7.5 1.5t-6.5 4t-4.5 6.5t-1.5 8q0 8 6 14t14 6h98q4 0 7.5 -2t6.5 -4.5t4.5 -6t1.5 -7.5q0 -8 -6 -14t-14 -6z" />
    <glyph glyph-name="uF0105" unicode="&#xf0105;" 
d="M233 352q-29 0 -53.5 -14.5t-39 -39.5t-14.5 -54v-289q0 -45 31.5 -76.5t75.5 -31.5h249l-164 505h-85zM786 352h-85l-164 -505h249q22 0 41.5 8.5t34 23t23 34.5t8.5 42v289q0 45 -31.5 76.5t-75.5 31.5zM812 14h-136q-6 0 -10.5 4.5t-4.5 11t4.5 10.5t10.5 4h136
q4 0 7.5 -2t5.5 -5.5t2 -7.5t-2 -7.5t-5.5 -5.5t-7.5 -2zM708 556q0 82 -58 140t-140 58q-54 0 -100 -26.5t-72.5 -72t-26.5 -99.5q0 -82 58 -140.5t141 -58.5q54 0 99.5 26.5t72 72.5t26.5 100zM510 325l-98 -81l98 -298l97 298z" />
  </font>
</defs>
</svg>
