<?xml version="1.0" standalone="no"?><!DOCTYPE svg PUBLIC "-//W3C//DTD SVG 1.1//EN" "http://www.w3.org/Graphics/SVG/1.1/DTD/svg11.dtd"><svg class="icon" width="200px" height="200.00px" viewBox="0 0 1024 1024" version="1.1" xmlns="http://www.w3.org/2000/svg"><path d="M184.975711 443.520371a152.502857 353.645714 80.27 1 0 697.117121-119.53612 152.502857 353.645714 80.27 1 0-697.117121 119.53612Z" fill="#BAD4FF" /><path d="M548.571429 42.057143a421.668571 421.668571 0 0 0-420.571429 420.571428 22.674286 22.674286 0 0 0 0 4.937143C98.377143 498.102857 36.571429 566.857143 36.571429 615.497143c0 53.577143 50.651429 74.24 86.857142 75.52l41.142858 9.142857 7.862857 202.605714a75.702857 75.702857 0 0 0 75.702857 74.788572H402.285714a30.171429 30.171429 0 0 0 0-60.16h-153.965714a15.36 15.36 0 0 1-15.36-15.177143l-9.508571-250.514286-89.417143-19.931428H128a64 64 0 0 1-20.662857-4.205715c-9.691429-3.84-9.691429-7.497143-9.691429-10.788571 0-18.285714 38.4-70.217143 81.737143-112.822857a29.988571 29.988571 0 0 0 7.497143-30.537143 26.331429 26.331429 0 0 0 1.462857-9.325714 360.594286 360.594286 0 0 1 721.188572 0 30.171429 30.171429 0 0 0 60.16 0 421.485714 421.485714 0 0 0-420.571429-420.571429z m0 0" fill="#3585F9" /><path d="M430.445714 480.365714l-20.662857 53.577143a44.251429 44.251429 0 0 1-11.702857 18.285714 30.354286 30.354286 0 0 1-21.942857 6.948572 32.182857 32.182857 0 0 1-23.04-8.045714c-5.851429-5.302857-6.582857-14.262857-2.194286-27.245715l96.182857-280.502857a25.782857 25.782857 0 0 1 10.057143-13.348571 40.045714 40.045714 0 0 1 41.691429 0 25.417143 25.417143 0 0 1 9.874285 13.348571l97.28 281.417143a23.954286 23.954286 0 0 1-2.56 25.965714 33.097143 33.097143 0 0 1-23.04 8.228572 28.342857 28.342857 0 0 1-21.577142-6.4 42.057143 42.057143 0 0 1-10.605715-15.908572l-22.308571-56.137143h-95.451429z m83.748572-52.662857l-36.571429-115.931428-36.571428 115.931428z m189.44 101.485714a26.514286 26.514286 0 0 1-30.902857 29.805715 29.074286 29.074286 0 0 1-23.04-7.497143 32 32 0 0 1-6.765715-21.211429V253.805714a26.331429 26.331429 0 0 1 29.805715-29.805714 34.742857 34.742857 0 0 1 22.857142 6.582857 28.16 28.16 0 0 1 8.045715 22.857143z m0 0" fill="#3585F9" /></svg>